<?xml version="1.0" encoding="UTF-8" standalone="no"?>
<!-- Created with Inkscape (http://www.inkscape.org/) -->

<svg
   xmlns:dc="http://purl.org/dc/elements/1.1/"
   xmlns:cc="http://creativecommons.org/ns#"
   xmlns:rdf="http://www.w3.org/1999/02/22-rdf-syntax-ns#"
   xmlns:svg="http://www.w3.org/2000/svg"
   xmlns="http://www.w3.org/2000/svg"
   version="1.1"
   width="110"
   height="110"
   id="svg3985">
  <defs
     id="defs3987" />
  <metadata
     id="metadata3990">
    <rdf:RDF>
      <cc:Work
         rdf:about="">
        <dc:format>image/svg+xml</dc:format>
        <dc:type
           rdf:resource="http://purl.org/dc/dcmitype/StillImage" />
        <dc:title></dc:title>
      </cc:Work>
    </rdf:RDF>
  </metadata>
  <g
     transform="translate(-317.04724,-245.5532)"
     id="g3800-1-1"
     style="stroke:#e54d4c;stroke-opacity:1">
    <path
       d="m 389.62137,272.25973 c 0.51666,-0.51943 2.33494,-4.4624 3.29254,-5.44189 0.39756,-0.40664 1.53071,-3.11994 2.60463,-4.51481 0.85556,-1.11125 2.57727,-4.93131 2.9202,-5.37132 0.92403,-1.18562 2.67642,-4.16183 3.68399,-5.05877 1.20404,15.8346 -0.17243,46.55112 -1.85663,61.45662 l -5.32237,-5.048 c -1.41607,-2.00678 -1.71522,-7.99926 -1.86453,-9.80421 -0.11665,-1.41002 -0.81435,-10.4729 -1.10228,-11.63631 -0.98668,-3.98689 -1.89824,-10.40461 -2.35555,-14.58131 z"
       id="path3036-7-7"
       style="fill:#c8c8c8;fill-opacity:1;stroke:#e54d4c;stroke-width:1;stroke-linecap:butt;stroke-linejoin:miter;stroke-miterlimit:4;stroke-opacity:1;stroke-dasharray:none" />
    <path
       d="m 335.58781,264.61935 c 2.74584,-0.0445 5.07004,-1.2353 7.5719,-1.84681 3.2684,-0.83608 5.87752,-1.50674 9.04935,-2.21617 1.9127,-0.59881 5.90003,-1.14938 5.90003,-1.14938 0,0 4.36271,5.00705 5.55016,7.79788 0.93428,1.78323 2.43836,3.63921 2.95489,5.17106 1.37649,1.99551 2.18702,2.50113 2.8497,4.06133 1.52228,1.4689 2.01828,2.3187 3.59339,3.65564 0.53776,0.69371 2.79493,3.21607 3.1843,4.08529 0.77155,1.483 2.05973,2.10969 3.30025,4.08026 0.94603,1.09727 2.05356,2.9896 3.69361,4.06298 0.78256,1.2075 1.54381,1.88614 2.66625,4.04283 0.82385,0.34654 2.35916,3.09016 3.61092,4.33263 1.60733,1.40586 2.59456,2.93001 3.44803,3.69361 1.42191,1.7072 2.72539,3.26988 3.81738,4.67791 1.1246,1.26321 2.95489,2.94703 2.95489,2.94703 0,0 -0.0143,-0.83135 0.48527,-4.02298 0.0659,-2.77456 0.74155,-6.7744 0.0854,-8.58131 0.57836,-3.70549 0.27253,-5.98728 0.66514,-9.64116 -0.10206,-2.08099 0.66866,-4.31017 -0.0468,-6.18953 -0.0668,-2.97857 -0.23403,-6.25705 -0.073,-9.36172 -0.14426,-2.66742 0.57439,-4.99498 0.36937,-7.68833 -0.003,-3.46817 0.3752,-6.81928 0.37133,-10.28259 -0.0904,-3.21678 0.4833,-4.55611 0.4833,-4.55611 0,0 5.4066,-1.24653 9.10238,-1.72303 3.17234,-0.88825 9.0471,-1.7257 9.0471,-1.7257 0,0 -0.18859,7.78667 -0.79935,11.45286 -1.04226,4.37955 -0.8326,8.73385 -1.10218,13.44221 -0.2497,2.25275 0.0335,6.07705 -0.73872,7.49153 0.21687,4.29314 -1.55125,7.28156 -1.35564,11.57004 -0.53051,4.6713 -0.84231,8.28825 -1.22989,12.92763 -0.51274,2.14967 -0.53052,4.46514 -0.73479,7.13967 -0.76758,2.99509 -1.13648,7.10314 -1.60318,10.34801 -0.15751,3.13456 -0.80301,4.1601 -0.93106,7.30182 -0.50294,2.99811 -1.64458,5.21209 -1.52873,8.24156 0.15644,2.80037 -1.46659,4.33441 -1.47744,7.16642 -0.1327,2.2563 -0.73873,1.66213 -0.73873,1.66213 0,0 -5.69183,-4.92738 -7.75658,-7.38722 -2.37293,-2.92694 -7.084,-6.47897 -8.41131,-8.1682 -3.31754,-3.33025 -8.45763,-5.76087 -11.35838,-9.37017 -3.32835,-3.94731 -6.81263,-7.79873 -9.76984,-12.01713 -3.02249,-3.2888 -2.91999,-6.32251 -6.15882,-8.98379 -2.25465,-3.34358 -5.42181,-6.21875 -8.31062,-9.04935 -3.31305,-2.43127 -5.25848,-5.10785 -7.5719,-8.31062 -1.20191,-1.08558 -3.16742,-4.46834 -3.69017,-4.10693 -1.04789,-2.87336 -3.57256,-5.08949 -5.1745,-8.08198 -1.09611,-2.05779 -4.05381,-4.59645 -4.19264,-6.89212 z"
       id="path3030-4-4"
       style="fill:#ffffff;fill-opacity:1;stroke:#e54d4c;stroke-width:1;stroke-linecap:butt;stroke-linejoin:miter;stroke-miterlimit:4;stroke-opacity:1;stroke-dasharray:none" />
    <path
       d="m 329.30867,277.91635 c -1.68085,2.77111 -2.05813,4.29532 -3.35983,7.01858 0.0157,1.89288 -1.06544,2.92937 -2.0767,4.67841 1.58891,1.58589 5.90774,4.86263 8.23328,6.91773 2.35803,2.35058 5.38886,4.21488 7.55614,6.11045 2.61477,1.78062 5.64636,4.50788 8.3085,6.65852 1.84638,1.79725 4.87927,3.7066 6.82453,5.92177 2.67439,2.3937 5.65577,3.99087 8.14725,6.24717 1.86198,2.13214 4.90535,3.26125 6.41568,5.22236 2.26684,1.5518 3.98019,3.25151 6.12129,4.78235 0.98535,0.85696 2.47028,2.00256 3.6936,2.58553 1.26725,1.50623 3.00558,2.23933 4.43234,3.69362 1.68312,0.39073 3.59275,2.48141 5.17105,3.50892 1.14115,0.67555 2.38017,1.67476 3.32425,2.03149 1.15226,1.29515 2.30026,2.35397 3.32425,3.32425 1.32056,1.84373 2.96503,2.48949 4.06297,3.69361 1.59017,0.74957 4.04874,2.55231 4.04874,2.55231 0,0 1.09781,-0.90159 2.13749,-2.91252 1.04511,-0.52502 2.36196,-2.76401 2.36196,-2.76401 0,0 -4.56329,-4.27041 -7.18665,-6.73262 -2.50754,-3.8536 -4.86443,-4.55742 -7.1436,-7.38329 -3.02726,-3.14363 -6.39785,-6.1589 -9.19522,-9.58081 -3.02966,-3.02831 -6.12982,-6.01146 -8.63954,-9.39679 -2.32284,-2.7697 -4.69504,-5.68944 -7.14283,-8.48016 -1.9477,-2.30787 -4.62945,-5.84047 -7.17644,-7.92968 -2.49553,-3.1909 -4.81302,-5.89502 -8.03898,-8.39496 -2.28815,-2.44432 -2.6937,-4.07569 -4.99282,-5.71001 -1.41933,-3.02756 -4.0123,-5.06802 -5.66222,-7.75658 -1.07035,-1.28588 -2.2497,-4.13423 -3.19654,-5.17302 -1.32822,-1.23364 -3.21299,-5.1244 -4.19462,-5.92551 -2.85808,4.18281 -5.45957,11.19097 -6.15733,13.19289 z"
       id="path3032-0-0"
       style="fill:#c8c8c8;fill-opacity:1;stroke:#e54d4c;stroke-width:1;stroke-linecap:butt;stroke-linejoin:miter;stroke-miterlimit:4;stroke-opacity:1;stroke-dasharray:none" />
  </g>
</svg>
