<?xml version="1.0" encoding="UTF-8" standalone="no"?>
<!-- Created with Inkscape (http://www.inkscape.org/) -->

<svg
   xmlns:dc="http://purl.org/dc/elements/1.1/"
   xmlns:cc="http://creativecommons.org/ns#"
   xmlns:rdf="http://www.w3.org/1999/02/22-rdf-syntax-ns#"
   xmlns:svg="http://www.w3.org/2000/svg"
   xmlns="http://www.w3.org/2000/svg"
   xmlns:sodipodi="http://sodipodi.sourceforge.net/DTD/sodipodi-0.dtd"
   xmlns:inkscape="http://www.inkscape.org/namespaces/inkscape"
   width="500"
   height="500"
   id="svg2"
   version="1.1"
   inkscape:version="0.48.5 r10040"
   sodipodi:docname="geek-pregunta.svg">
  <defs
     id="defs4" />
  <sodipodi:namedview
     id="base"
     pagecolor="#ffffff"
     bordercolor="#666666"
     borderopacity="1.0"
     inkscape:pageopacity="0.0"
     inkscape:pageshadow="2"
     inkscape:zoom="1.0234674"
     inkscape:cx="196.97721"
     inkscape:cy="106.40787"
     inkscape:document-units="px"
     inkscape:current-layer="layer2"
     showgrid="false"
     inkscape:window-width="1920"
     inkscape:window-height="1057"
     inkscape:window-x="-8"
     inkscape:window-y="-8"
     inkscape:window-maximized="1" />
  <metadata
     id="metadata7">
    <rdf:RDF>
      <cc:Work
         rdf:about="">
        <dc:format>image/svg+xml</dc:format>
        <dc:type
           rdf:resource="http://purl.org/dc/dcmitype/StillImage" />
        <dc:title></dc:title>
      </cc:Work>
    </rdf:RDF>
  </metadata>
  <g
     inkscape:label="Capa 1"
     inkscape:groupmode="layer"
     id="layer1"
     transform="translate(0,-552.36218)"
     style="display:inline" />
  <g
     inkscape:groupmode="layer"
     id="layer2"
     inkscape:label="Capa"
     style="display:inline">
    <path
       style="fill:#97bfdb;fill-opacity:1;stroke:#5c93ba;stroke-width:2.11711001;stroke-linecap:round;stroke-linejoin:miter;stroke-miterlimit:4;stroke-opacity:1;stroke-dasharray:none;display:inline"
       d="m 144.18516,345.01249 c 0,0 -13.13181,10.53742 -20.09099,11.55983 -6.95918,1.02243 -17.26024,6.76303 -13.21043,11.04854 4.04981,4.28552 12.81764,5.11098 17.37841,2.67318 4.56079,-2.4378 15.92301,-25.28155 15.92301,-25.28155 z"
       id="path4787"
       inkscape:connector-curvature="0" />
    <path
       style="fill:#97bfdb;fill-opacity:1;stroke:#5c93ba;stroke-width:2.11711001;stroke-linecap:butt;stroke-linejoin:miter;stroke-miterlimit:4;stroke-opacity:1;stroke-dasharray:none;display:inline"
       d="m 191.26535,370.57366 c 0,0 -13.54276,-14.90002 -20.78275,-22.65714 -6.17244,-6.61334 -12.92854,-11.37711 -22.23709,-6.72283 -9.30855,4.65426 -21.79326,22.84327 -34.89716,31.60314 -4.57016,3.05512 -12.22542,10.43549 -11.97334,12.55277 0.25209,2.11727 -3.209143,8.45413 10.7726,9.18938 13.98177,0.73526 24.91139,-3.60934 31.71985,-7.95665 6.80846,-4.34731 17.35513,-12.34013 18.90656,-11.82299 1.55142,0.51714 12.92855,10.85998 12.92855,10.85998 z"
       id="path4785"
       inkscape:connector-curvature="0"
       sodipodi:nodetypes="cssssssscc" />
    <path
       style="fill:#fffb99;fill-opacity:1;stroke:#cdce76;stroke-width:2;stroke-linecap:butt;stroke-linejoin:miter;stroke-miterlimit:4;stroke-opacity:1;stroke-dasharray:none"
       d="m 255.25972,316.06644 c 0,0 -6.35096,32.4876 -8.06083,41.76977 -1.70987,9.28217 -12.98413,44.26711 -27.11371,36.39588 C 205.76255,386.25333 194.1928,371.5152 194.1928,371.5152 l -13.43472,19.78568 c 0,0 14.65606,19.05288 27.35798,26.86945 12.70192,7.81656 24.82675,13.35243 38.59429,1.22133 12.05839,-10.62509 26.62518,-68.15068 26.62518,-68.15068 z"
       id="path4781"
       inkscape:connector-curvature="0"
       sodipodi:nodetypes="cssccsscc" />
    <path
       style="fill:#fffb99;fill-opacity:1;stroke:#cdce76;stroke-width:2;stroke-linecap:butt;stroke-linejoin:miter;stroke-miterlimit:4;stroke-opacity:1;stroke-dasharray:none"
       d="m 258.19094,313.13523 c 0,0 2.1984,53.49462 2.68694,69.37202 0.48854,15.8774 -1.95414,46.41086 -2.19841,57.64717 -0.24427,11.23631 0.7328,69.12775 0.7328,69.12775 0,0 13.43473,4.88536 22.22836,4.88536 8.79364,0 4.15255,-204.20778 4.15255,-204.20778 z"
       id="path4779"
       inkscape:connector-curvature="0" />
    <path
       style="fill:#fffb99;fill-opacity:1;stroke:#cdce76;stroke-width:1.975;stroke-linecap:butt;stroke-linejoin:miter;stroke-miterlimit:4;stroke-opacity:1;stroke-dasharray:none"
       d="m 284.32758,308.98268 c 0,0 -0.24427,53.73888 -0.97707,66.68507 -0.73281,12.94619 -3.29665,45.67015 -3.17549,59.84558 0.24428,28.57932 2.93122,79.63127 2.93122,79.63127 0,0 28.47998,1.42642 51.05194,-0.7328 25.18766,-2.40944 37.86149,-7.81657 37.86149,-7.81657 0,0 -6.83949,-86.9593 -11.72484,-121.15677 -4.88536,-34.19748 -14.65607,-82.07394 -14.65607,-82.07394 z"
       id="path4777"
       inkscape:connector-curvature="0"
       sodipodi:nodetypes="csscscscc" />
    <path
       style="fill:#fffb99;fill-opacity:1;stroke:#cdce76;stroke-width:2;stroke-linecap:butt;stroke-linejoin:miter;stroke-miterlimit:4;stroke-opacity:1;stroke-dasharray:none"
       d="m 336.89168,355.73396 c 0,0 15.03617,33.72981 18.28724,69.08515 3.50501,38.11695 2.03192,42.26385 2.4383,52.42343 0.40639,10.15958 2.84469,33.32342 2.84469,33.32342 l 24.78937,-1.21915 c 0,0 1.84249,-49.14148 -2.4383,-75.99366 -4.47022,-28.04044 -11.78511,-61.36386 -16.66171,-74.36812 -4.8766,-13.00427 -19.91278,-59.33195 -19.91278,-59.33195"
       id="path4767"
       inkscape:connector-curvature="0"
       sodipodi:nodetypes="cssccssc" />
    <path
       style="fill:#ffffcb;fill-opacity:1;stroke:#cdce76;stroke-width:2;stroke-linecap:butt;stroke-linejoin:miter;stroke-miterlimit:4;stroke-opacity:1;stroke-dasharray:none"
       d="m 284.32758,308.98268 c 0,0 5.61815,12.21338 7.81656,16.85447 2.19841,4.64108 8.3051,15.14459 8.3051,15.14459 0,0 19.54142,-12.45765 30.53346,-22.71689 10.99205,-10.25925 15.8774,-16.6102 15.8774,-16.6102 l -3.90828,-20.76276 z"
       id="path4769"
       inkscape:connector-curvature="0" />
    <path
       style="fill:#ffffcb;fill-opacity:1;stroke:#cdce76;stroke-width:2;stroke-linecap:butt;stroke-linejoin:miter;stroke-miterlimit:4;stroke-opacity:1;stroke-dasharray:none"
       d="m 271.13712,341.95881 c 0,0 2.61467,-10.53611 5.61816,-17.09873 2.8185,-6.15843 7.5723,-15.8774 7.5723,-15.8774 l -29.80066,-6.59523 -0.7328,12.94618 c 0,0 2.82596,6.16859 6.59522,12.45765 3.5171,5.86833 10.74778,14.16753 10.74778,14.16753 z"
       id="path4771"
       inkscape:connector-curvature="0"
       sodipodi:nodetypes="cscccsc" />
    <path
       style="fill:#1d3d59;fill-opacity:1;stroke:none"
       d="m 177.87356,108.62069 c 0,0 -14.50251,-1.75852 -15.51724,-9.195402 -0.9988,-7.320081 6.32184,-13.505748 6.32184,-13.505748 0,0 -12.64368,-6.896552 -8.90804,-14.367816 2.99734,-5.994665 15.51724,-5.172414 15.51724,-5.172414 0,0 -4.11161,-17.364761 4.88505,-23.275862 9.9947,-6.566844 29.88506,-0.574713 29.88506,-0.574713 0,0 -0.57471,-13.21839 12.06897,-14.367816 12.64368,-1.149425 14.94252,12.643679 14.94252,12.643679 0,0 1.71762,-10.943312 5.27402,-14.332954 3.96387,-3.778014 18.31562,-4.749039 22.88691,0.696685 2.58787,3.082899 2.87356,11.624774 2.87356,11.624774 0,0 10.04579,-9.121053 18.96552,-7.75862 9.76156,1.491019 16.37931,17.816092 16.37931,17.816092 0,0 7.37357,-9.312217 13.21839,-10.919541 11.49425,-3.160919 18.67816,4.885058 17.81609,11.494253 -0.86207,6.609196 -6.32184,11.206897 -6.32184,11.206897 0,0 16.9863,-2.458266 22.12643,7.471264 5.32146,10.279797 -4.31034,21.551724 -4.31034,21.551724 0,0 23.57207,1.653914 25.28736,9.770115 1.6348,7.735353 -9.03893,9.663853 -8.04598,16.091953 0.88717,5.74331 14.44587,4.45389 16.66667,11.2069 2.09705,6.37671 -3.16092,10.63218 -3.16092,10.63218 0,0 3.44828,1.80799 4.31035,5.45977 0.72623,3.07637 -1.72414,7.75863 -1.72414,7.75863 0,0 7.29458,4.50833 5.74712,13.7931 -2.01149,12.06896 -15.51724,16.95402 -15.51724,16.95402 0,0 4.25684,2.98059 2.58621,6.32184 -2.58621,5.17241 -11.2069,5.74712 -11.2069,5.74712 0,0 3.50251,5.39332 2.29885,10.05748 -2.29885,8.90804 -14.08046,14.65517 -14.08046,14.65517 0,0 7.55571,0.30582 6.32184,5.74713 -1.2676,5.59012 -15.22988,6.60919 -15.22988,6.60919 z"
       id="path4070"
       inkscape:connector-curvature="0"
       sodipodi:nodetypes="cscscscscsscscsscscssscscscscscscc" />
    <path
       style="font-size:medium;font-style:normal;font-variant:normal;font-weight:normal;font-stretch:normal;text-indent:0;text-align:start;text-decoration:none;line-height:normal;letter-spacing:normal;word-spacing:normal;text-transform:none;direction:ltr;block-progression:tb;writing-mode:lr-tb;text-anchor:start;baseline-shift:baseline;color:#000000;fill:#1d3d59;fill-opacity:1;stroke:none;stroke-width:1px;marker:none;visibility:visible;display:inline;overflow:visible;enable-background:accumulate;font-family:Sans;-inkscape-font-specification:Sans"
       d="m 342.03125,226.40625 -0.75,0.65625 c 1.07667,1.25419 2.30415,2.86623 3.65625,4.25 1.33345,1.36469 2.79316,2.4971 4.4375,2.75 l 0,0.0312 c 0.0232,0.007 0.0394,-0.006 0.0625,0 2.92639,0.80655 5.26915,0.22473 6.96875,-1.125 1.71304,-1.3604 2.82028,-3.42451 3.5625,-5.5 -1.73529,1.9918 -2.66449,3.43595 -4.1875,4.7188 -1.48777,1.18151 -3.40984,1.70399 -6.125,0.9375 l -0.0312,0 -0.0312,0 c -1.28284,-0.17689 -2.64843,-1.18074 -3.9375,-2.5 -1.28907,-1.31926 -2.51586,-2.92673 -3.625,-4.21875 z"
       id="path4116"
       inkscape:connector-curvature="0"
       sodipodi:nodetypes="ccscccscccccscc" />
    <path
       style="font-size:medium;font-style:normal;font-variant:normal;font-weight:normal;font-stretch:normal;text-indent:0;text-align:start;text-decoration:none;line-height:normal;letter-spacing:normal;word-spacing:normal;text-transform:none;direction:ltr;block-progression:tb;writing-mode:lr-tb;text-anchor:start;baseline-shift:baseline;color:#000000;fill:#1d3d59;fill-opacity:1;stroke:none;stroke-width:1px;marker:none;visibility:visible;display:inline;overflow:visible;enable-background:accumulate;font-family:Sans;-inkscape-font-specification:Sans"
       d="M 342.9375,226.25 342,226.625 c 1.82668,4.61564 3.31216,8.45874 5.53125,11.46875 1.15658,1.56881 2.74379,2.43242 4.59375,2.78125 1.84996,0.34883 3.95563,0.20667 6.28125,-0.15625 -2.27369,-0.82985 -4.4394,-0.54902 -6.09375,-0.84375 -1.66517,-0.31398 -2.99605,-1.01322 -4,-2.375 -2.10199,-2.85117 -3.54662,-6.63006 -5.375,-11.25 z"
       id="path4120"
       inkscape:connector-curvature="0"
       sodipodi:nodetypes="ccssccsc" />
    <path
       style="fill:#97bfdb;fill-opacity:1;stroke:#5c93ba;stroke-width:1.975;stroke-linecap:butt;stroke-linejoin:miter;stroke-miterlimit:4;stroke-opacity:1;stroke-dasharray:none"
       d="m 183.33333,89.942528 c 0,0 -21.55172,43.103452 -29.88505,66.379302 -4.28818,11.97732 -9.77653,23.29022 -9.19541,37.93105 0.73995,18.64226 24.71265,41.37931 40.22989,51.72413 13.90045,9.26696 29.55453,14.31216 44.82758,26.43678 15.59019,12.37638 25.14368,30.74713 25.14368,30.74713 0,0 5.2559,4.52109 26.20295,6.57433 34.92691,3.42353 61.87177,-28.12605 61.87177,-28.12605 0,0 -1.72414,-29.88506 1.14942,-50 2.87356,-20.11495 9.1954,-64.36782 9.1954,-64.36782 0,0 0.57472,-66.66667 -27.01149,-83.333334 C 298.27586,67.241379 236.78161,59.195402 216.09195,67.241379 195.4023,75.287356 183.33333,89.942528 183.33333,89.942528 z"
       id="path4066"
       inkscape:connector-curvature="0"
       sodipodi:nodetypes="csssscscscssc" />
    <path
       style="fill:#1d3d59;fill-opacity:1;stroke:none"
       d="m 172.99159,94.023176 c 0,0 7.23936,4.470215 19.02447,2.844682 11.78512,-1.625532 13.81703,-5.892557 13.81703,-5.892557 0,0 4.28503,6.596324 11.98831,7.924473 11.78511,2.031916 36.98087,-17.068095 36.98087,-17.068095 0,0 7.3149,6.908515 13.41065,7.721281 6.09575,0.812767 18.69362,-3.251065 18.69362,-3.251065 0,0 2.84469,8.534047 7.72129,10.972346 4.87659,2.438299 15.84894,1.625533 15.84894,1.625533 0,0 -2.84468,7.314896 -1.62553,9.753196 1.21915,2.4383 5.51344,1.09932 6.90851,4.06383 1.62554,3.45426 -4.45578,4.94633 -4.45578,8.19739 0,3.25107 3.28594,9.56445 6.13062,10.7836 2.84468,1.21915 11.78511,1.91288 11.78511,1.91288 0,0 -5.15388,5.39661 -3.41939,9.46585 1.53566,3.60279 9.97408,2.61197 11.49775,4.18286 2.24955,2.31927 2.96371,5.90699 1.74456,8.34529 -1.21915,2.4383 -4.49587,1.16536 -4.70826,5.33229 -0.16793,3.29457 2.55732,3.79689 2.55732,3.79689 0,0 -3.0356,9.71527 -9.54403,19.46556 -5.10731,7.65127 -12.56899,13.66911 -12.56899,13.66911 0,0 4.1504,5.3752 9.39612,11.68651 4.62208,5.561 9.94194,12.12178 9.94194,12.12178 l 21.32068,-30.28154 c 0,0 8.56771,-58.78923 -4.72869,-85.1806 -15.1552,-30.080814 -53.09675,-52.653027 -118.25752,-47.953217 0,0 -44.22663,0.474554 -59.4596,35.761723 z"
       id="path4068"
       inkscape:connector-curvature="0"
       sodipodi:nodetypes="cscscscscsssscsssscscsccscc" />
    <rect
       style="color:#000000;fill:#000000;stroke:#000000;stroke-width:1.35226214;stroke-linecap:butt;stroke-linejoin:miter;stroke-miterlimit:4;stroke-opacity:1;stroke-dasharray:none;stroke-dashoffset:0;marker:none;visibility:visible;display:inline;overflow:visible;enable-background:accumulate"
       id="rect4072"
       width="10.49169"
       height="17.874729"
       x="185.99309"
       y="144.644"
       ry="5.0033703"
       transform="matrix(0.99944344,-0.03335887,0.03335887,0.99944344,0,0)" />
    <rect
       style="color:#000000;fill:#000000;stroke:#000000;stroke-width:1.47344792;stroke-linecap:butt;stroke-linejoin:miter;stroke-miterlimit:4;stroke-opacity:1;stroke-dasharray:none;stroke-dashoffset:0;marker:none;visibility:visible;display:inline;overflow:visible;enable-background:accumulate"
       id="rect4072-7"
       width="11.431924"
       height="19.47661"
       x="253.66254"
       y="129.92757"
       ry="5.4517574"
       transform="matrix(0.99992576,0.01218531,-0.01218531,0.99992576,0,0)" />
    <path
       style="font-size:medium;font-style:normal;font-variant:normal;font-weight:normal;font-stretch:normal;text-indent:0;text-align:start;text-decoration:none;line-height:normal;letter-spacing:normal;word-spacing:normal;text-transform:none;direction:ltr;block-progression:tb;writing-mode:lr-tb;text-anchor:start;baseline-shift:baseline;color:#000000;fill:#1d3d59;fill-opacity:1;stroke:none;stroke-width:1px;marker:none;visibility:visible;display:inline;overflow:visible;enable-background:accumulate;font-family:Sans;-inkscape-font-specification:Sans"
       d="m 150.15625,80.15625 c 2.10872,3.451471 4.25405,5.213959 6.5,6.09375 2.24595,0.879791 4.5258,0.885695 6.875,0.90625 2.35802,0.02063 4.724,-0.02168 6.4375,-0.1875 0.85675,-0.08291 1.5465,-0.172088 2.0625,-0.375 0.258,-0.101456 0.48259,-0.224097 0.65625,-0.46875 0.17366,-0.244653 0.1727,-0.648472 0.0312,-0.90625 l -0.875,0.46875 c 0.0112,0.02042 0.013,-0.130533 0.0312,-0.15625 0.0182,-0.02572 -0.0538,0.06015 -0.21875,0.125 -0.32982,0.129697 -0.99674,0.264807 -1.8125,0.34375 -1.63153,0.157886 -3.93401,0.176788 -6.28125,0.15625 -2.35607,-0.02062 -4.50433,-0.04976 -6.53125,-0.84375 -2.96596,-0.794802 -5.23896,-4.116742 -6.8749,-5.15625 z"
       id="path4092"
       inkscape:connector-curvature="0"
       sodipodi:nodetypes="csssssccccsscc" />
    <path
       style="font-size:medium;font-style:normal;font-variant:normal;font-weight:normal;font-stretch:normal;text-indent:0;text-align:start;text-decoration:none;line-height:normal;letter-spacing:normal;word-spacing:normal;text-transform:none;direction:ltr;block-progression:tb;writing-mode:lr-tb;text-anchor:start;baseline-shift:baseline;color:#000000;fill:#1d3d59;fill-opacity:1;stroke:none;stroke-width:1px;marker:none;visibility:visible;display:inline;overflow:visible;enable-background:accumulate;font-family:Sans;-inkscape-font-specification:Sans"
       d="m 155.59375,60.5 c 1.06466,1.191954 2.6671,1.78868 4.46875,1.53125 0.0883,-0.01261 0.19203,-0.07719 0.28125,-0.09375 0.46091,1.121902 0.99755,2.244006 1.53125,3.4375 l 0.0312,0.09375 0.0312,0.03125 c 1.05096,1.200213 2.35061,3.823042 4.46875,5.125 l 0.53125,-0.84375 c -1.70361,-1.04716 -2.95406,-3.393663 -4.15625,-4.8125 -0.5669,-1.267748 -0.92449,-2.324003 -1.375,-3.4375 1.4204,-0.492726 2.89254,-1.305622 4.4375,-2.84375 0.0236,-0.02348 0.0389,-0.03876 0.0625,-0.0625 1.32351,-0.968913 1.98121,-2.165527 2.0625,-3.3125 0.0829,-1.169904 -0.36912,-2.243608 -1.125,-3.03125 -0.75588,-0.787642 -1.80208,-1.284322 -2.90625,-1.25 -1.10417,0.03432 -2.25524,0.626668 -3.0625,1.90625 -1.53014,2.425411 -1.75535,4.571381 -1.34375,6.5625 0.10622,0.513837 0.32561,0.999316 0.5,1.5 -0.0369,0.0061 -0.0885,0.02603 -0.125,0.03125 -1.51503,0.216476 -2.70934,-0.232336 -3.5625,-1.1875 -1.70632,-1.910327 -1.95553,-5.982231 0.96875,-10.4375 -4.40971,3.894569 -3.45876,9.002657 -1.71865,11.09375 z m 8.375,-8.46875 c 0.77381,-0.02405 1.54218,0.330194 2.125,0.9375 0.58282,0.607306 0.93545,1.428348 0.875,2.28125 -0.0605,0.852902 -0.49718,1.779059 -1.6875,2.625 l -0.0312,0.03125 -0.0312,0.03125 c -1.51098,1.52014 -2.91036,2.255458 -4.1875,2.6875 -0.14558,-0.426775 -0.44412,-0.922253 -0.53125,-1.34375 -0.36953,-1.787563 -0.20005,-3.563583 1.21875,-5.8125 0.66721,-1.057582 1.47619,-1.413447 2.25,-1.4375 z"
       id="path4094"
       inkscape:connector-curvature="0"
       sodipodi:nodetypes="cccccccccccccssssccscccscccccsscc" />
    <path
       style="font-size:medium;font-style:normal;font-variant:normal;font-weight:normal;font-stretch:normal;text-indent:0;text-align:start;text-decoration:none;line-height:normal;letter-spacing:normal;word-spacing:normal;text-transform:none;direction:ltr;block-progression:tb;writing-mode:lr-tb;text-anchor:start;baseline-shift:baseline;color:#000000;fill:#1d3d59;fill-opacity:1;stroke:none;stroke-width:1px;marker:none;visibility:visible;display:inline;overflow:visible;enable-background:accumulate;font-family:Sans;-inkscape-font-specification:Sans"
       d="m 194.125,27.59375 c -1.84092,2.94293 -1.46401,6.776287 -0.15625,10.40625 1.30776,3.629963 3.54476,7.12687 5.625,9.46875 l 0.75,-0.6875 c -1.98991,-2.240193 -4.18488,-5.616845 -5.4375,-9.09375 -1.67122,-2.823905 -0.59766,-8.728902 -0.78125,-10.09375 z"
       id="path4096"
       inkscape:connector-curvature="0"
       sodipodi:nodetypes="cscccc" />
    <path
       style="font-size:medium;font-style:normal;font-variant:normal;font-weight:normal;font-stretch:normal;text-indent:0;text-align:start;text-decoration:none;line-height:normal;letter-spacing:normal;word-spacing:normal;text-transform:none;direction:ltr;block-progression:tb;writing-mode:lr-tb;text-anchor:start;baseline-shift:baseline;color:#000000;fill:#1d3d59;fill-opacity:1;stroke:none;stroke-width:1px;marker:none;visibility:visible;display:inline;overflow:visible;enable-background:accumulate;font-family:Sans;-inkscape-font-specification:Sans"
       d="m 205.3125,23.3125 c -3.56464,6.420027 -4.0144,16.481071 0.3125,22.9375 l 0.8125,-0.5625 c -6.91297,-11.576996 -0.31236,-20.314129 -1.125,-22.375 z"
       id="path4098"
       inkscape:connector-curvature="0"
       sodipodi:nodetypes="cccc" />
    <path
       style="font-size:medium;font-style:normal;font-variant:normal;font-weight:normal;font-stretch:normal;text-indent:0;text-align:start;text-decoration:none;line-height:normal;letter-spacing:normal;word-spacing:normal;text-transform:none;direction:ltr;block-progression:tb;writing-mode:lr-tb;text-anchor:start;baseline-shift:baseline;color:#000000;fill:#1d3d59;fill-opacity:1;stroke:none;stroke-width:1px;marker:none;visibility:visible;display:inline;overflow:visible;enable-background:accumulate;font-family:Sans;-inkscape-font-specification:Sans"
       d="m 307.15625,22.96875 c 1.636,1.698697 2.74238,2.810529 3.625,4.34375 0.40161,0.723194 0.63504,1.442755 0.625,2.09375 -0.01,0.650995 -0.23775,1.225246 -0.75,1.71875 -1.08183,1.042234 -2.46908,1.791744 -4,2.25 -0.0163,-0.119553 0.0196,-0.290598 0,-0.40625 -0.13524,-0.796243 -0.37023,-1.520363 -0.71875,-2.09375 -0.34852,-0.573387 -0.85531,-1.011369 -1.5,-1.1875 -2.23424,-0.610402 -4.17205,0.340653 -5.0625,1.625 -0.44523,0.642173 -0.64468,1.428835 -0.375,2.125 0.26968,0.696165 0.98873,1.165165 2.03125,1.3125 1.57216,0.222185 3.13257,0.12703 4.625,-0.15625 0.0679,1.205456 0.15151,2.412362 0,3.84375 -0.41881,3.956682 -1.50889,8.225794 -2.03125,9.65625 -0.54275,1.486293 -0.96823,2.197831 -1.21875,2.5 -0.11631,0.140293 -0.16726,0.206444 -0.1875,0.21875 0.0237,-0.006 0.0937,-0.03125 0.0937,-0.03125 l -0.0312,1 c 0,0 0.12197,0.01664 0.1875,0 0.0655,-0.01664 0.1123,-0.05198 0.1875,-0.09375 0.15039,-0.08353 0.31536,-0.214795 0.5,-0.4375 0.36927,-0.445409 0.84045,-1.263085 1.40625,-2.8125 0.58619,-1.605252 1.63293,-5.81665 2.0625,-9.875 0.15839,-1.496391 0.11251,-2.819439 0.0312,-4.125 1.78893,-0.485834 3.40154,-1.354858 4.6875,-2.59375 0.6987,-0.673126 1.04895,-1.528099 1.0625,-2.40625 0.0136,-0.878151 -0.2838,-1.785488 -0.75,-2.625 -0.93241,-1.679024 -2.60495,-3.152513 -4.5,-3.84375 z m -2.96875,7.6875 c 0.37201,0.101634 0.65437,0.335609 0.90625,0.75 0.25188,0.414391 0.44091,1.002879 0.5625,1.71875 0.0215,0.12633 -0.0171,0.335211 0,0.46875 -1.43387,0.29713 -2.93281,0.404567 -4.46875,0.1875 -0.82208,-0.11618 -1.13611,-0.424758 -1.25,-0.71875 -0.11389,-0.293992 -0.0645,-0.733811 0.25,-1.1875 0.6291,-0.907379 2.16745,-1.719408 4,-1.21875 z"
       id="path4102"
       inkscape:connector-curvature="0"
       sodipodi:nodetypes="cccsccssssscssscccccssscscsccssccsscs" />
    <path
       style="font-size:medium;font-style:normal;font-variant:normal;font-weight:normal;font-stretch:normal;text-indent:0;text-align:start;text-decoration:none;line-height:normal;letter-spacing:normal;word-spacing:normal;text-transform:none;direction:ltr;block-progression:tb;writing-mode:lr-tb;text-anchor:start;baseline-shift:baseline;color:#000000;fill:#1d3d59;fill-opacity:1;stroke:none;stroke-width:1px;marker:none;visibility:visible;display:inline;overflow:visible;enable-background:accumulate;font-family:Sans;-inkscape-font-specification:Sans"
       d="m 364.4375,77.09375 c -2.21923,0.121034 -4.52786,1.365012 -5.75,4 -1.50271,3.239891 -2.77421,4.474907 -4.0625,5.15625 -1.28829,0.681343 -2.74272,0.799383 -4.5,1.6875 l 0,0.03125 c -0.86557,0.10079 -1.83066,0.411449 -2.875,0.84375 -1.11319,0.460801 -2.25834,1.006907 -3.1875,1.34375 l 0.3125,0.9375 c 0.99387,-0.360305 2.16229,-0.893498 3.25,-1.34375 1.08771,-0.450252 2.139,-0.796285 2.78125,-0.84375 L 350.5,88.875 l 0.0937,-0.03125 c 1.58784,-0.802482 3.00289,-0.926968 4.5,-1.71875 1.49711,-0.791782 2.94609,-2.243451 4.5,-5.59375 1.4271,-3.076873 4.46103,-3.917806 6.6875,-3.25 1.11323,0.333903 2.01036,1.043642 2.40625,2 0.7245,2.033989 0.0643,2.731485 0.28125,4.3125 1.02259,-1.790253 1.15456,-3.408248 0.625,-4.6875 -0.52956,-1.279252 -1.68778,-2.15954 -3.03125,-2.5625 -0.67173,-0.20148 -1.38526,-0.290345 -2.125,-0.25 z"
       id="path4104"
       inkscape:connector-curvature="0"
       sodipodi:nodetypes="cssccsccscccsssccsscc" />
    <path
       style="font-size:medium;font-style:normal;font-variant:normal;font-weight:normal;font-stretch:normal;text-indent:0;text-align:start;text-decoration:none;line-height:normal;letter-spacing:normal;word-spacing:normal;text-transform:none;direction:ltr;block-progression:tb;writing-mode:lr-tb;text-anchor:start;baseline-shift:baseline;color:#000000;fill:#1d3d59;fill-opacity:1;stroke:none;stroke-width:1px;marker:none;visibility:visible;display:inline;overflow:visible;enable-background:accumulate;font-family:Sans;-inkscape-font-specification:Sans"
       d="m 362.71875,115.28125 -0.0625,0 -0.0625,0.0312 c -0.89769,0.45317 -1.72795,0.53018 -2.625,0.5625 -0.89705,0.0323 -1.8783,0.007 -2.9375,0.3125 l 0.28125,0.96875 c 0.88604,-0.25541 1.75091,-0.2475 2.6875,-0.28125 0.89778,-0.0323 1.87713,-0.16938 2.90625,-0.65625 l 0,0.0312 c 8.58042,-1.9023 14.20725,-5.85365 19.40625,-13.375 -5.87499,5.55665 -11.2873,10.46545 -19.59375,12.40635 z"
       id="path4108"
       inkscape:connector-curvature="0"
       sodipodi:nodetypes="ccccccccccc" />
    <path
       style="font-size:medium;font-style:normal;font-variant:normal;font-weight:normal;font-stretch:normal;text-indent:0;text-align:start;text-decoration:none;line-height:normal;letter-spacing:normal;word-spacing:normal;text-transform:none;direction:ltr;block-progression:tb;writing-mode:lr-tb;text-anchor:start;baseline-shift:baseline;color:#000000;fill:#1d3d59;fill-opacity:1;stroke:none;stroke-width:1px;marker:none;visibility:visible;display:inline;overflow:visible;enable-background:accumulate;font-family:Sans;-inkscape-font-specification:Sans"
       d="m 372.25,116.03125 c -3.94146,0.13957 -7.85466,0.72367 -11.125,1.28125 l 0.15625,1 c 3.86792,-1.08412 12.97456,-1.90974 22.28125,-0.875 -3.4126,-1.22225 -7.37104,-1.54582 -11.3125,-1.40625 z"
       id="path4110"
       inkscape:connector-curvature="0"
       sodipodi:nodetypes="scccs" />
    <path
       style="font-size:medium;font-style:normal;font-variant:normal;font-weight:normal;font-stretch:normal;text-indent:0;text-align:start;text-decoration:none;line-height:normal;letter-spacing:normal;word-spacing:normal;text-transform:none;direction:ltr;block-progression:tb;writing-mode:lr-tb;text-anchor:start;baseline-shift:baseline;color:#000000;fill:#1d3d59;fill-opacity:1;stroke:none;stroke-width:1px;marker:none;visibility:visible;display:inline;overflow:visible;enable-background:accumulate;font-family:Sans;-inkscape-font-specification:Sans"
       d="m 386.75,137.90625 c -0.51369,-0.0582 -1.05502,0.006 -1.5625,0.25 -1.01496,0.48848 -1.8687,1.60607 -2.375,3.4375 -0.4971,1.79812 -0.62143,3.43514 -0.34375,4.84375 0.11893,0.60332 0.35239,1.14569 0.625,1.65625 -1.94695,1.12807 -3.88523,1.80911 -5.5,1.96875 l 0.0937,1 c 1.8248,-0.1804 3.91683,-0.93027 6,-2.15625 0.26942,0.33138 0.52273,0.67543 0.875,0.9375 2.29159,0.96192 7.05182,2.49824 10.68755,-0.625 -4.95923,1.466 -8.2876,1.18741 -10.09375,-0.15625 -0.2626,-0.19536 -0.42011,-0.47927 -0.625,-0.71875 1.55477,-1.02519 3.08919,-2.27766 4.4375,-3.875 0.9169,-1.08625 1.15471,-2.34482 0.9375,-3.4375 -0.21721,-1.09268 -0.85574,-2.02348 -1.71875,-2.59375 -0.43151,-0.28514 -0.92381,-0.47307 -1.4375,-0.53125 z m -0.125,1 c 0.33921,0.0402 0.68475,0.16668 1,0.375 0.63051,0.41664 1.14993,1.15094 1.3125,1.96875 0.16257,0.81781 -0.014,1.72183 -0.75,2.59375 -1.2934,1.53229 -2.75811,2.68121 -4.25,3.65625 -0.19407,-0.38997 -0.40652,-0.7758 -0.5,-1.25 -0.23774,-1.20599 -0.1234,-2.68519 0.34375,-4.375 0.45794,-1.6565 1.17037,-2.48842 1.84375,-2.8125 0.33669,-0.16204 0.66079,-0.1964 1,-0.15625 z"
       id="path4112"
       inkscape:connector-curvature="0"
       sodipodi:nodetypes="ccssccccccscsssccssscsssc" />
    <path
       style="font-size:medium;font-style:normal;font-variant:normal;font-weight:normal;font-stretch:normal;text-indent:0;text-align:start;text-decoration:none;line-height:normal;letter-spacing:normal;word-spacing:normal;text-transform:none;direction:ltr;block-progression:tb;writing-mode:lr-tb;text-anchor:start;baseline-shift:baseline;color:#000000;fill:#1d3d59;fill-opacity:1;stroke:none;stroke-width:1px;marker:none;visibility:visible;display:inline;overflow:visible;enable-background:accumulate;font-family:Sans;-inkscape-font-specification:Sans"
       d="m 367.4375,180.53125 0.0937,1 c 3.00406,-0.31731 6.0262,0.0838 8.15625,1.34375 2.13005,1.25991 3.42913,3.27922 3.125,6.4375 1.61289,-4.20972 -1.42972,-6.56291 -2.59375,-7.2813 -2.3958,-1.4171 -5.61646,-1.83429 -8.78125,-1.5 z"
       id="path4114"
       inkscape:connector-curvature="0"
       sodipodi:nodetypes="ccccccc" />
    <path
       style="fill:#1d3d59;fill-opacity:1;stroke:#1d3d59;stroke-width:1px;stroke-linecap:butt;stroke-linejoin:miter;stroke-opacity:1"
       d="m 161.13094,136.69342 c 0,0 11.17554,-5.48618 19.70959,-7.11171 8.53405,-1.62554 21.94469,-3.45426 21.94469,-3.45426 l 0.40638,-19.3032 c 0,0 -23.2291,1.50237 -30.27555,6.90851 -9.03714,6.93344 -11.78511,22.96066 -11.78511,22.96066 z"
       id="path4184"
       inkscape:connector-curvature="0"
       sodipodi:nodetypes="csccsc" />
    <path
       style="fill:#1d3d59;fill-opacity:1;stroke:#1d3d59;stroke-width:1px;stroke-linecap:butt;stroke-linejoin:miter;stroke-opacity:1"
       d="m 236.71822,99.71254 -0.81277,22.55427 c 0,0 21.12714,-1.15557 31.4947,-0.40638 14.20953,1.02683 26.00853,4.26702 26.00853,4.26702 0,0 1.21794,-12.85847 -3.25107,-18.49044 -4.40318,-5.54903 -18.69362,-8.330853 -28.85321,-8.940428 -8.1156,-0.486935 -24.58618,1.015958 -24.58618,1.015958 z"
       id="path4186"
       inkscape:connector-curvature="0"
       sodipodi:nodetypes="ccscssc" />
    <path
       inkscape:connector-curvature="0"
       style="fill:#3a4592;fill-opacity:1;stroke:none;stroke-width:1.60000002000000000;stroke-linecap:butt;stroke-linejoin:miter;stroke-miterlimit:4;stroke-opacity:1;stroke-dasharray:none;display:inline"
       d="m 273.875,114.1875 c -9.13943,-2.7e-4 -22.24527,0.74556 -27.96875,1.5625 -6.54113,0.93366 -15.28045,2.68284 -17.71875,4.96875 -2.45424,2.30085 -2.36181,10.26699 -1.90625,18.40625 -2.10611,-0.48914 -5.31113,-1.0574 -8.25,-0.8125 -2.86031,0.23836 -5.72685,0.73742 -7.71875,1.125 0.26924,-7.98187 -0.012,-15.69484 -2.4375,-17.96875 -2.4383,-2.28591 -11.29498,-2.97143 -21.5625,-3 -3.42251,-0.01 -7.00664,0.0234 -10.5625,0.125 -14.22342,0.40638 -34.11534,3.27006 -37.78125,7.34375 -3.66591,4.07368 -2.84375,15.01382 -2.84375,20.5 0,5.48617 3.03031,24.1871 5.875,25.40625 2.84469,1.21915 17.07419,3.87487 29.0625,4.28125 11.98831,0.40638 29.88962,-1.01515 32.9375,-2.4375 3.04788,-1.42234 6.29668,-16.05917 6.90625,-26.21875 0.036,-0.59924 0.0586,-1.22873 0.0937,-1.84375 1.61682,-0.65322 4.02237,-1.40179 6.8125,-1.625 3.3212,-0.26569 7.34085,0.4281 9.84375,0.9375 0.0413,0.64876 0.0872,1.33876 0.125,1.96875 0.60957,10.15958 3.45212,25.42141 6.5,26.84375 3.04788,1.42235 20.94919,2.84388 32.9375,2.4375 11.98831,-0.40638 29.76409,-1.03032 34.4375,-3.875 2.64369,-1.6092 6.90625,-20.95133 6.90625,-26.4375 0,-5.48618 1.58663,-25.27424 -2.84375,-28.5 -4.47868,-3.26092 -18.32911,-2.87101 -27.21875,-3.125 -1.1112,-0.0318 -2.31937,-0.0625 -3.625,-0.0625 z m -3.34375,5.75 c 2.45983,-0.009 4.70124,0 6.5625,0 7.44501,1e-5 20.69532,0.15484 22.53125,2.09375 2.83397,2.99292 1.62499,18.92817 1.625,22.40625 10e-6,5.28298 -2.65545,21.35878 -5.09375,23.1875 -2.4383,1.82872 -24.0605,3.6718 -30.15625,3.875 -6.09575,0.2032 -26.01476,-0.59321 -28.65625,-2.21875 -2.6415,-1.62554 -4.46848,-12.62247 -5.28125,-20.34375 -0.81277,-7.72128 -1.84441,-21.12419 0.1875,-23.5625 1.52394,-1.82872 7.1635,-3.22751 15.4375,-4.375 6.20551,-0.86061 15.46427,-1.03688 22.84375,-1.0625 z m -86.8125,3.78125 c 9.83892,-0.11429 18.56981,0.57753 20.09375,2.40625 2.03191,2.43831 1.62527,15.65372 0.8125,23.375 -0.81277,7.72128 -3.046,18.09321 -5.6875,19.71875 -2.64149,1.62554 -22.373,2.23445 -28.46875,2.03125 -6.09575,-0.2032 -22.1242,-2.04628 -24.5625,-3.875 -2.4383,-1.82872 -4.51918,-15.5461 -4.6875,-19.71875 -0.14019,-3.47526 -0.80495,-13.90444 1.84375,-17.0625 2.6487,-3.15806 17.44879,-5.68723 30.65625,-6.5 3.30186,-0.20319 6.72036,-0.3369 10,-0.375 z"
       id="path4158"
       sodipodi:nodetypes="csscscscssssssccscssssssccccssssssssscssssssssss" />
    <path
       style="fill:#a39dd3;fill-opacity:1;stroke:none;stroke-width:1.60000002000000000;stroke-linecap:butt;stroke-linejoin:miter;stroke-miterlimit:4;stroke-opacity:1;stroke-dasharray:none"
       d="m 225.94906,235.85092 c -4.36862,3.96224 -2.23511,12.39468 5.48617,13.20745 7.72128,0.81277 17.67768,-0.20321 24.17981,-1.21916 6.50213,-1.01595 17.27129,-1.04787 20.11597,-7.34681 2.84467,-6.29894 -1.11982,-11.9029 -6.09574,-11.98829 -4.97592,-0.0854 -15.06521,1.82024 -23.16386,2.87659 -8.09865,1.05634 -16.15373,0.50798 -20.52235,4.47022 z"
       id="path4213"
       inkscape:connector-curvature="0"
       sodipodi:nodetypes="zzzzzzz" />
    <path
       style="fill:#1d3d59;fill-opacity:1;stroke:none;stroke-width:1.60000002000000000;stroke-linecap:butt;stroke-linejoin:miter;stroke-miterlimit:4;stroke-opacity:1;stroke-dasharray:none;display:inline"
       d="m 231.75381,240.03 c -1.35783,0.85823 -1.1355,1.87425 0.8391,2.46711 1.9746,0.59286 14.00842,-0.75779 18.56474,-1.03749 4.55632,-0.2797 14.42675,-2.05191 15.48575,-2.78584 1.059,-0.73393 1.10514,-2.84464 -0.92039,-2.79696 -2.02553,0.0477 -11.06056,1.54435 -16.96788,2.31487 -5.90731,0.77051 -15.64348,0.98009 -17.00132,1.83831 z"
       id="path4213-9"
       inkscape:connector-curvature="0"
       sodipodi:nodetypes="zzzzzzz" />
    <path
       style="fill:none;stroke:#1d3d59;stroke-width:1.375;stroke-linecap:round;stroke-linejoin:miter;stroke-opacity:1;stroke-miterlimit:4;stroke-dasharray:none"
       d="m 195.26713,215.73495 c -4.26702,1.82872 -4.06384,6.29893 -4.67341,9.14362"
       id="path4240"
       inkscape:connector-curvature="0"
       sodipodi:nodetypes="cc" />
    <path
       style="fill:none;stroke:#1d3d59;stroke-width:1.375;stroke-linecap:round;stroke-linejoin:miter;stroke-opacity:1;display:inline;stroke-miterlimit:4;stroke-dasharray:none"
       d="m 214.87512,215.02378 c -4.26702,2.69079 -3.04788,6.29893 -3.65745,9.14362"
       id="path4240-4"
       inkscape:connector-curvature="0"
       sodipodi:nodetypes="cc" />
    <path
       style="fill:none;stroke:#1d3d59;stroke-width:1.375;stroke-linecap:round;stroke-linejoin:miter;stroke-opacity:1;display:inline;stroke-miterlimit:4;stroke-dasharray:none"
       d="m 236.39172,207.98058 c -3.06923,3.76508 -2.18273,7.19929 -2.28604,10.10672"
       id="path4240-8"
       inkscape:connector-curvature="0"
       sodipodi:nodetypes="cc" />
    <path
       style="fill:none;stroke:#1d3d59;stroke-width:1.375;stroke-linecap:round;stroke-linejoin:miter;stroke-opacity:1;display:inline;stroke-miterlimit:4;stroke-dasharray:none"
       d="m 253.12586,209.39375 c -1.06659,3.15312 -0.45371,5.96599 0.10176,8.82174"
       id="path4240-82"
       inkscape:connector-curvature="0"
       sodipodi:nodetypes="cc" />
    <path
       style="fill:none;stroke:#1d3d59;stroke-width:1.375;stroke-linecap:round;stroke-linejoin:miter;stroke-opacity:1;display:inline;stroke-miterlimit:4;stroke-dasharray:none"
       d="m 226.85508,219.91478 c -2.9192,3.41165 -2.83649,5.79918 -2.82798,8.70843"
       id="path4240-45"
       inkscape:connector-curvature="0"
       sodipodi:nodetypes="cc" />
    <path
       style="fill:none;stroke:#1d3d59;stroke-width:1.375;stroke-linecap:round;stroke-linejoin:miter;stroke-opacity:1;display:inline;stroke-miterlimit:4;stroke-dasharray:none"
       d="m 243.63111,214.88337 c -1.8165,3.36066 -0.88399,6.48851 0.0856,9.23145"
       id="path4240-45-5"
       inkscape:connector-curvature="0"
       sodipodi:nodetypes="cc" />
    <path
       style="fill:none;stroke:#ffffff;stroke-width:2.5999999;stroke-linecap:round;stroke-linejoin:miter;stroke-miterlimit:4;stroke-opacity:1;stroke-dasharray:none"
       d="m 193.00945,146.98276 c 0,0 -0.0238,-3.42819 0.32222,-4.32778 0.71839,-1.86781 2.61086,-1.85038 2.61086,-1.85038"
       id="path4299"
       inkscape:connector-curvature="0"
       sodipodi:nodetypes="csc" />
    <path
       style="fill:none;stroke:#ffffff;stroke-width:2.5999999;stroke-linecap:round;stroke-linejoin:miter;stroke-miterlimit:4;stroke-opacity:1;stroke-dasharray:none;display:inline"
       d="m 254.87154,141.91601 c 0,0 -0.0238,-3.42819 0.32222,-4.32778 0.71839,-1.86781 2.61086,-1.85038 2.61086,-1.85038"
       id="path4299-1"
       inkscape:connector-curvature="0"
       sodipodi:nodetypes="csc" />
    <path
       style="fill:none;stroke:#1d3d59;stroke-width:1.375;stroke-linecap:round;stroke-linejoin:miter;stroke-opacity:1;display:inline;stroke-miterlimit:4;stroke-dasharray:none"
       d="m 212.94639,239.05583 c -3.06923,3.76508 -2.18273,7.19929 -2.28604,10.10672"
       id="path4240-8-7"
       inkscape:connector-curvature="0"
       sodipodi:nodetypes="cc" />
    <path
       style="fill:none;stroke:#1d3d59;stroke-width:1.375;stroke-linecap:round;stroke-linejoin:miter;stroke-opacity:1;display:inline;stroke-miterlimit:4;stroke-dasharray:none"
       d="m 200.04163,229.4631 c -3.50093,3.3674 -3.03511,6.88347 -3.48834,9.75721"
       id="path4240-8-1"
       inkscape:connector-curvature="0"
       sodipodi:nodetypes="cc" />
    <path
       style="fill:none;stroke:#1d3d59;stroke-width:1.375;stroke-linecap:round;stroke-linejoin:miter;stroke-opacity:1;display:inline;stroke-miterlimit:4;stroke-dasharray:none"
       d="m 187.8515,241.13789 c -2.77824,3.98465 -1.6367,7.34271 -1.52168,10.2497"
       id="path4240-8-15"
       inkscape:connector-curvature="0"
       sodipodi:nodetypes="cc" />
    <path
       style="fill:none;stroke:#1d3d59;stroke-width:1.375;stroke-linecap:round;stroke-linejoin:miter;stroke-opacity:1;display:inline;stroke-miterlimit:4;stroke-dasharray:none"
       d="m 203.41044,250.56728 c -2.35236,4.24998 -0.8705,7.47237 -0.45621,10.35198"
       id="path4240-8-2"
       inkscape:connector-curvature="0"
       sodipodi:nodetypes="cc" />
    <path
       style="fill:none;stroke:#1d3d59;stroke-width:1.375;stroke-linecap:round;stroke-linejoin:miter;stroke-opacity:1;display:inline;stroke-miterlimit:4;stroke-dasharray:none"
       d="m 171.76973,212.51107 c -3.97986,3.09976 -2.40972,6.56958 -2.73485,9.46062"
       id="path4240-4-7"
       inkscape:connector-curvature="0"
       sodipodi:nodetypes="cc" />
    <path
       style="fill:none;stroke:#1d3d59;stroke-width:1.375;stroke-linecap:round;stroke-linejoin:miter;stroke-opacity:1;display:inline;stroke-miterlimit:4;stroke-dasharray:none"
       d="m 183.60037,224.36769 c -3.80501,3.31205 -2.04811,6.69115 -2.21519,9.59561"
       id="path4240-4-7-6"
       inkscape:connector-curvature="0"
       sodipodi:nodetypes="cc" />
    <path
       style="fill:none;stroke:#1d3d59;stroke-width:1.375;stroke-linecap:round;stroke-linejoin:miter;stroke-opacity:1;display:inline;stroke-miterlimit:4;stroke-dasharray:none"
       d="m 161.5096,216.35469 c -3.06923,3.76508 -2.32641,7.05561 -1.85501,10.82511"
       id="path4240-8-7-1"
       inkscape:connector-curvature="0"
       sodipodi:nodetypes="cc" />
    <path
       style="fill:none;stroke:#1d3d59;stroke-width:1.375;stroke-linecap:round;stroke-linejoin:miter;stroke-opacity:1;display:inline;stroke-miterlimit:4;stroke-dasharray:none"
       d="m 170.99237,226.84319 c -1.63245,3.76508 -1.60802,7.48665 -1.71133,10.39408"
       id="path4240-8-7-1-4"
       inkscape:connector-curvature="0"
       sodipodi:nodetypes="cc" />
    <path
       style="fill:none;stroke:#1d3d59;stroke-width:1.375;stroke-linecap:round;stroke-linejoin:miter;stroke-opacity:1;display:inline;stroke-miterlimit:4;stroke-dasharray:none"
       d="m 263.51253,213.94408 c 1.5946,2.92182 1.47621,5.79825 1.42178,8.70701"
       id="path4240-82-2"
       inkscape:connector-curvature="0"
       sodipodi:nodetypes="cc" />
    <path
       style="fill:none;stroke:#1d3d59;stroke-width:1.375;stroke-linecap:round;stroke-linejoin:miter;stroke-opacity:1;display:inline;stroke-miterlimit:4;stroke-dasharray:none"
       d="m 267.7949,206.66345 c 2.16003,2.5326 2.63418,5.37215 3.17756,8.23023"
       id="path4240-82-2-3"
       inkscape:connector-curvature="0"
       sodipodi:nodetypes="cc" />
    <path
       style="fill:none;stroke:#1d3d59;stroke-width:1.375;stroke-linecap:round;stroke-linejoin:miter;stroke-opacity:1;display:inline;stroke-miterlimit:4;stroke-dasharray:none"
       d="m 277.80912,219.35897 c 3.55442,1.66997 4.82307,4.31993 5.15762,7.25907"
       id="path4240-82-2-3-2"
       inkscape:connector-curvature="0"
       sodipodi:nodetypes="cc" />
    <path
       style="fill:none;stroke:#1d3d59;stroke-width:1.375;stroke-linecap:round;stroke-linejoin:miter;stroke-opacity:1;display:inline;stroke-miterlimit:4;stroke-dasharray:none"
       d="m 280.70033,239.68633 c 3.35726,3.9236 3.26214,6.66941 3.25235,10.01522"
       id="path4240-45-6"
       inkscape:connector-curvature="0"
       sodipodi:nodetypes="cc" />
    <path
       style="fill:none;stroke:#1d3d59;stroke-width:1.375;stroke-linecap:round;stroke-linejoin:miter;stroke-opacity:1;display:inline;stroke-miterlimit:4;stroke-dasharray:none"
       d="m 292.76678,227.98112 c 4.37011,2.56662 5.14818,3.62264 5.84396,8.38638"
       id="path4240-45-8"
       inkscape:connector-curvature="0"
       sodipodi:nodetypes="cc" />
    <path
       style="fill:none;stroke:#1d3d59;stroke-width:1.375;stroke-linecap:round;stroke-linejoin:miter;stroke-opacity:1;display:inline;stroke-miterlimit:4;stroke-dasharray:none"
       d="m 309.29067,235.17463 c 4.35458,2.64428 5.11061,5.24726 6.13132,8.38638"
       id="path4240-45-8-5"
       inkscape:connector-curvature="0"
       sodipodi:nodetypes="cc" />
    <path
       style="fill:none;stroke:#1d3d59;stroke-width:1.375;stroke-linecap:round;stroke-linejoin:miter;stroke-opacity:1;display:inline;stroke-miterlimit:4;stroke-dasharray:none"
       d="m 314.46308,220.80681 c 4.35458,2.64428 4.67958,5.39094 4.83822,8.96109"
       id="path4240-45-8-7"
       inkscape:connector-curvature="0"
       sodipodi:nodetypes="cc" />
    <path
       style="fill:none;stroke:#1d3d59;stroke-width:1.375;stroke-linecap:round;stroke-linejoin:miter;stroke-opacity:1;display:inline;stroke-miterlimit:4;stroke-dasharray:none"
       d="m 324.06172,239.38595 c 3.12575,4.02298 2.90412,6.72445 2.73864,10.0212"
       id="path4240-45-8-6"
       inkscape:connector-curvature="0"
       sodipodi:nodetypes="cc" />
    <path
       style="fill:none;stroke:#1d3d59;stroke-width:1.375;stroke-linecap:round;stroke-linejoin:miter;stroke-opacity:1;display:inline;stroke-miterlimit:4;stroke-dasharray:none"
       d="m 301.40839,251.30278 c 3.42805,3.76868 3.41641,6.47921 3.50687,9.77887"
       id="path4240-45-8-1"
       inkscape:connector-curvature="0"
       sodipodi:nodetypes="cc" />
    <path
       style="fill:none;stroke:#1d3d59;stroke-width:1.375;stroke-linecap:round;stroke-linejoin:miter;stroke-opacity:1;display:inline;stroke-miterlimit:4;stroke-dasharray:none"
       d="m 312.81365,253.55394 c 3.34883,2.21325 2.66808,4.81623 2.68304,7.38063"
       id="path4240-45-8-8"
       inkscape:connector-curvature="0"
       sodipodi:nodetypes="cc" />
    <path
       style="fill:none;stroke:#1d3d59;stroke-width:1.375;stroke-linecap:round;stroke-linejoin:miter;stroke-opacity:1;display:inline;stroke-miterlimit:4;stroke-dasharray:none"
       d="m 289.04494,264.0203 c 2.85809,4.21734 2.46161,6.89874 2.08254,10.1778"
       id="path4240-45-8-9"
       inkscape:connector-curvature="0"
       sodipodi:nodetypes="cc" />
    <path
       style="fill:none;stroke:#1d3d59;stroke-width:1.375;stroke-linecap:round;stroke-linejoin:miter;stroke-opacity:1;display:inline;stroke-miterlimit:4;stroke-dasharray:none"
       d="m 271.24042,257.12374 c 2.85809,4.21734 2.46161,6.89874 2.08254,10.1778"
       id="path4240-45-8-9-2"
       inkscape:connector-curvature="0"
       sodipodi:nodetypes="cc" />
    <path
       style="fill:none;stroke:#1d3d59;stroke-width:1.375;stroke-linecap:round;stroke-linejoin:miter;stroke-opacity:1;display:inline;stroke-miterlimit:4;stroke-dasharray:none"
       d="m 267.36111,276.5203 c 1.85234,3.06791 0.73747,5.46196 1.07679,8.02263"
       id="path4240-45-8-9-7"
       inkscape:connector-curvature="0"
       sodipodi:nodetypes="cc" />
    <path
       style="fill:none;stroke:#1d3d59;stroke-width:1.375;stroke-linecap:round;stroke-linejoin:miter;stroke-opacity:1;display:inline;stroke-miterlimit:4;stroke-dasharray:none"
       d="m 253.75959,259.85363 c -0.99028,4.07366 0.26827,5.89299 0.64731,9.17205"
       id="path4240-45-8-9-9"
       inkscape:connector-curvature="0"
       sodipodi:nodetypes="cc" />
    <path
       style="fill:none;stroke:#1d3d59;stroke-width:1.375;stroke-linecap:round;stroke-linejoin:miter;stroke-opacity:1;display:inline;stroke-miterlimit:4;stroke-dasharray:none"
       d="m 287.07264,209.83197 c 3.93996,1.49718 5.51375,4.22953 6.11151,7.34756"
       id="path4240-82-2-3-2-5"
       inkscape:connector-curvature="0"
       sodipodi:nodetypes="cc" />
    <path
       style="fill:none;stroke:#1d3d59;stroke-width:1.375;stroke-linecap:round;stroke-linejoin:miter;stroke-opacity:1;display:inline;stroke-miterlimit:4;stroke-dasharray:none"
       d="m 299.85868,210.77915 c 3.72744,1.96748 4.95549,4.87169 5.16769,8.0394"
       id="path4240-82-2-3-2-5-4"
       inkscape:connector-curvature="0"
       sodipodi:nodetypes="cc" />
    <path
       style="fill:none;stroke:#1d3d59;stroke-width:1.375;stroke-linecap:round;stroke-linejoin:miter;stroke-opacity:1;display:inline;stroke-miterlimit:4;stroke-dasharray:none"
       d="m 314.25188,205.63212 c 3.18536,2.20423 5.62092,4.6711 6.70523,8.13231"
       id="path4240-82-2-3-2-5-4-3"
       inkscape:connector-curvature="0"
       sodipodi:nodetypes="cc" />
    <path
       style="fill:none;stroke:#1d3d59;stroke-width:1.375;stroke-linecap:round;stroke-linejoin:miter;stroke-opacity:1;display:inline;stroke-miterlimit:4;stroke-dasharray:none"
       d="m 299.49593,196.80119 c 3.6727,0.87592 5.38574,3.12185 6.27616,5.82291"
       id="path4240-82-2-3-2-5-4-1"
       inkscape:connector-curvature="0"
       sodipodi:nodetypes="cc" />
    <path
       style="fill:none;stroke:#1d3d59;stroke-width:1.375;stroke-linecap:round;stroke-linejoin:miter;stroke-opacity:1;display:inline;stroke-miterlimit:4;stroke-dasharray:none"
       d="m 287.64604,196.84237 c 3.3571,1.96748 4.46314,4.87169 4.65425,8.0394"
       id="path4240-82-2-3-2-5-4-2"
       inkscape:connector-curvature="0"
       sodipodi:nodetypes="cc" />
    <path
       style="fill:none;stroke:#1d3d59;stroke-width:1.375;stroke-linecap:round;stroke-linejoin:miter;stroke-opacity:1;display:inline;stroke-miterlimit:4;stroke-dasharray:none"
       d="m 324.28397,218.82512 c 3.72744,1.96748 4.95549,4.87169 5.16769,8.0394"
       id="path4240-82-2-3-2-5-4-33"
       inkscape:connector-curvature="0"
       sodipodi:nodetypes="cc" />
    <path
       style="fill:none;stroke:#1d3d59;stroke-width:1.375;stroke-linecap:round;stroke-linejoin:miter;stroke-opacity:1;display:inline;stroke-miterlimit:4;stroke-dasharray:none"
       d="m 219.61456,260.62861 c -0.91558,3.10056 0.13525,6.32295 1.26793,9.05888"
       id="path4240-8-2-4"
       inkscape:connector-curvature="0"
       sodipodi:nodetypes="cc" />
    <path
       style="fill:none;stroke:#1d3d59;stroke-width:1.375;stroke-linecap:round;stroke-linejoin:miter;stroke-opacity:1;display:inline;stroke-miterlimit:4;stroke-dasharray:none"
       d="m 240.01685,260.48493 c -1.34661,3.38791 -0.15211,4.45513 0.26218,7.33474"
       id="path4240-8-2-1"
       inkscape:connector-curvature="0"
       sodipodi:nodetypes="cc" />
    <path
       style="fill:none;stroke:#1d3d59;stroke-width:1.375;stroke-linecap:round;stroke-linejoin:miter;stroke-opacity:1;display:inline;stroke-miterlimit:4;stroke-dasharray:none"
       d="m 247.5733,277.9802 c -0.4187,3.30439 1.03216,5.92852 2.0902,7.68462"
       id="path4240-8-2-13"
       inkscape:connector-curvature="0"
       sodipodi:nodetypes="cc" />
    <path
       style="fill:none;stroke:#1d3d59;stroke-width:1.375;stroke-linecap:round;stroke-linejoin:miter;stroke-opacity:1;display:inline;stroke-miterlimit:4;stroke-dasharray:none"
       d="m 236.4249,274.85274 c -1.05926,2.95688 -0.29579,5.74823 0.1185,8.62784"
       id="path4240-8-2-8"
       inkscape:connector-curvature="0"
       sodipodi:nodetypes="cc" />
    <path
       style="fill:none;stroke:#1d3d59;stroke-width:1.375;stroke-linecap:round;stroke-linejoin:miter;stroke-opacity:1;display:inline;stroke-miterlimit:4;stroke-dasharray:none"
       d="m 228.95363,255.31252 c -1.63397,3.38791 -0.15211,5.3172 0.26218,8.19681"
       id="path4240-8-2-7"
       inkscape:connector-curvature="0"
       sodipodi:nodetypes="cc" />
    <path
       style="fill:none;stroke:#152f45;stroke-width:1.375;stroke-linecap:round;stroke-linejoin:miter;stroke-opacity:1;display:inline;stroke-miterlimit:4;stroke-dasharray:none"
       d="m 320.4023,202.01149 c 3.3046,2.44253 6.17816,3.3046 11.49425,13.21839"
       id="path4722"
       inkscape:connector-curvature="0" />
    <path
       style="fill:none;stroke:#152f45;stroke-width:1.375;stroke-linecap:round;stroke-linejoin:miter;stroke-opacity:1;display:inline;stroke-miterlimit:4;stroke-dasharray:none"
       d="m 335.77586,213.64942 c 0,0 -1.2931,-6.46551 -4.5977,-10.4885 -3.3046,-4.02299 -9.77011,-9.91379 -9.77011,-9.91379 0,0 9.62643,4.45402 12.21264,7.61494 2.58621,3.16092 6.6092,9.91379 6.6092,9.91379 0,0 0.57471,-6.75287 -1.29311,-11.06322 -1.86781,-4.31034 -7.18391,-8.33333 -7.18391,-8.33333"
       id="path4724"
       inkscape:connector-curvature="0" />
    <path
       style="fill:none;stroke:#152f45;stroke-width:1.375;stroke-linecap:round;stroke-linejoin:miter;stroke-opacity:1;display:inline;stroke-miterlimit:4;stroke-dasharray:none"
       d="m 334.33908,183.90805 c 0,0 6.03448,3.59195 8.04598,7.1839 2.01149,3.59196 4.02299,11.49426 4.02299,11.49426"
       id="path4726"
       inkscape:connector-curvature="0" />
    <path
       style="fill:none;stroke:#152f45;stroke-width:1.375;stroke-linecap:round;stroke-linejoin:miter;stroke-opacity:1;display:inline;stroke-miterlimit:4;stroke-dasharray:none"
       d="m 352.01149,197.55747 c 0,0 -0.14367,-5.17241 -2.5862,-10.34483 -2.44253,-5.17241 -7.04023,-9.91379 -7.04023,-9.91379 0,0 7.32758,3.01724 9.91379,7.18391 2.58621,4.16666 3.59195,10.4885 3.59195,10.4885"
       id="path4728"
       inkscape:connector-curvature="0" />
    <path
       style="fill:none;stroke:#152f45;stroke-width:1.375;stroke-linecap:round;stroke-linejoin:miter;stroke-opacity:1;display:inline;stroke-miterlimit:4;stroke-dasharray:none"
       d="m 342.52874,161.2069 c 0,0 5.31609,3.87931 8.33333,9.62643 3.01724,5.74713 5.8908,13.79311 5.8908,13.79311 0,0 0.28736,-9.62644 -1.58046,-14.65518 -1.86781,-5.02873 -8.18965,-13.64942 -8.18965,-13.64942"
       id="path4730"
       inkscape:connector-curvature="0" />
    <path
       style="fill:none;stroke:#152f45;stroke-width:1.375;stroke-linecap:round;stroke-linejoin:miter;stroke-opacity:1;display:inline;stroke-miterlimit:4;stroke-dasharray:none"
       d="m 358.76437,164.36782 c 0,0 1.43678,2.72988 2.01149,5.60344"
       id="path4732"
       inkscape:connector-curvature="0" />
    <path
       style="fill:#ffffcb;fill-opacity:1;stroke:#cdce76;stroke-width:2;stroke-linecap:butt;stroke-linejoin:miter;stroke-miterlimit:4;stroke-opacity:1;stroke-dasharray:none"
       d="m 298.4951,390.32381 0.24427,28.94572 c 0,0 8.79364,-0.3664 15.1446,-1.0992 6.35096,-0.73281 14.53393,-2.56481 14.53393,-2.56481 l 0.12213,-25.15957 z"
       id="path4775"
       inkscape:connector-curvature="0"
       sodipodi:nodetypes="ccsccc" />
    <path
       style="fill:#ffffcb;fill-opacity:1;stroke:#cdce76;stroke-width:2;stroke-linecap:butt;stroke-linejoin:miter;stroke-miterlimit:4;stroke-opacity:1;stroke-dasharray:none"
       d="m 337.0894,390.07954 c 0,0 -14.16753,2.44268 -21.25129,2.68695 -7.08376,0.24427 -20.39635,0.73281 -20.39635,0.73281 l 0.61067,-13.43473 c 0,0 8.18296,0.7328 14.77819,0.48853 6.59522,-0.24426 17.70941,-0.7328 17.70941,-0.7328 l 0,11.48058 z"
       id="path4773"
       inkscape:connector-curvature="0"
       sodipodi:nodetypes="csccsccc" />
    <path
       style="fill:#ffffcb;fill-opacity:1;stroke:#cdce76;stroke-width:2.11711001;stroke-linecap:butt;stroke-linejoin:miter;stroke-miterlimit:4;stroke-opacity:1;stroke-dasharray:none"
       d="m 181.63544,377.01266 c 6.46428,-5.94712 6.98141,-14.73853 6.98141,-14.73853 l 10.34284,12.15283 c 0,0 0.52422,7.27482 -5.42999,14.22139 -6.20569,7.23998 -13.96282,10.60141 -13.96282,10.60141 l -12.4114,-12.15284 c 0,0 8.01569,-4.13713 14.47996,-10.08426 z"
       id="path4783"
       inkscape:connector-curvature="0"
       sodipodi:nodetypes="sccsccs" />
    <path
       style="fill:none;stroke:#5c93ba;stroke-width:2.0866766;stroke-linecap:butt;stroke-linejoin:miter;stroke-miterlimit:4;stroke-opacity:1;stroke-dasharray:none"
       d="m 123.00902,370.31374 c 0,0 4.71821,0.47182 7.54914,0.47182 2.83093,0 8.9646,3.30276 8.9646,3.30276"
       id="path4810"
       inkscape:connector-curvature="0" />
    <path
       style="fill:none;stroke:#5c93ba;stroke-width:2.11711001;stroke-linecap:butt;stroke-linejoin:miter;stroke-miterlimit:4;stroke-opacity:1;stroke-dasharray:none"
       d="m 118.72586,394.33897 c 0,0 -4.32535,-0.42842 -3.54964,-5.52948 0.49478,-3.25366 5.85079,-4.38809 8.04484,-5.85078 2.19404,-1.4627 8.77618,-4.38809 12.43293,-9.8732"
       id="path4812"
       inkscape:connector-curvature="0"
       sodipodi:nodetypes="cssc" />
    <path
       style="fill:none;stroke:#5c93ba;stroke-width:2.11711001;stroke-linecap:butt;stroke-linejoin:miter;stroke-miterlimit:4;stroke-opacity:1;stroke-dasharray:none;display:inline"
       d="m 108.95975,393.71474 c 0,0 -3.80822,-0.68699 -3.29107,-5.27091 0.36895,-3.27032 4.29936,-5.42238 6.49341,-6.88507 2.19405,-1.4627 8.77619,-5.1638 13.20865,-10.64891"
       id="path4812-4"
       inkscape:connector-curvature="0"
       sodipodi:nodetypes="cssc" />
    <path
       style="fill:none;stroke:#5c93ba;stroke-width:1.85247135;stroke-linecap:round;stroke-linejoin:miter;stroke-miterlimit:4;stroke-opacity:1;stroke-dasharray:none"
       d="m 126.55987,362.01556 c 0,0 4.86439,2.33924 10.08425,1.03428 4.13715,-1.03428 8.53284,-5.42998 8.53284,-5.42998"
       id="path4832"
       inkscape:connector-curvature="0"
       sodipodi:nodetypes="csc" />
    <path
       style="fill:none;stroke:#5c93ba;stroke-width:1.7201519;stroke-linecap:butt;stroke-linejoin:miter;stroke-miterlimit:4;stroke-opacity:1;stroke-dasharray:none"
       d="m 161.98406,351.41415 c -5.17141,-1.03428 -9.37365,3.66928 -12.15282,9.56713 -1.77724,3.77157 -3.40005,3.65217 -4.91285,4.91285 -3.10284,2.5857 -3.61998,4.91284 -3.61998,4.91284"
       id="path4834"
       inkscape:connector-curvature="0"
       sodipodi:nodetypes="cssc" />
  </g>
</svg>
