<?xml version="1.0" encoding="UTF-8" standalone="no"?>
<!-- Created with Inkscape (http://www.inkscape.org/) -->

<svg
   xmlns:dc="http://purl.org/dc/elements/1.1/"
   xmlns:cc="http://creativecommons.org/ns#"
   xmlns:rdf="http://www.w3.org/1999/02/22-rdf-syntax-ns#"
   xmlns:svg="http://www.w3.org/2000/svg"
   xmlns="http://www.w3.org/2000/svg"
   xmlns:sodipodi="http://sodipodi.sourceforge.net/DTD/sodipodi-0.dtd"
   xmlns:inkscape="http://www.inkscape.org/namespaces/inkscape"
   width="500"
   height="500"
   id="svg2"
   version="1.1"
   inkscape:version="0.48.5 r10040"
   sodipodi:docname="max-pregunta.svg">
  <defs
     id="defs4" />
  <sodipodi:namedview
     id="base"
     pagecolor="#ffffff"
     bordercolor="#666666"
     borderopacity="1.0"
     inkscape:pageopacity="0.0"
     inkscape:pageshadow="2"
     inkscape:zoom="1.9940411"
     inkscape:cx="268.3972"
     inkscape:cy="187.02849"
     inkscape:document-units="px"
     inkscape:current-layer="layer1"
     showgrid="false"
     inkscape:window-width="1920"
     inkscape:window-height="1057"
     inkscape:window-x="-8"
     inkscape:window-y="-8"
     inkscape:window-maximized="1" />
  <metadata
     id="metadata7">
    <rdf:RDF>
      <cc:Work
         rdf:about="">
        <dc:format>image/svg+xml</dc:format>
        <dc:type
           rdf:resource="http://purl.org/dc/dcmitype/StillImage" />
        <dc:title />
      </cc:Work>
    </rdf:RDF>
  </metadata>
  <g
     inkscape:label="Capa 1"
     inkscape:groupmode="layer"
     id="layer1"
     transform="translate(0,-552.36218)"
     style="display:inline" />
  <g
     inkscape:groupmode="layer"
     id="layer2"
     inkscape:label="Capa"
     style="display:inline"
     sodipodi:insensitive="true">
    <path
       style="fill:#e54c4c;fill-opacity:1;stroke:#7c2423;stroke-width:2;stroke-linecap:butt;stroke-linejoin:miter;stroke-miterlimit:4;stroke-opacity:1;stroke-dasharray:none"
       d="m 186.55583,303.91578 c 0,0 -15.6932,13.47353 -26.57919,15.03885 -10.92055,1.57029 -18.55528,-4.00598 -21.56425,-13.53437 -2.88515,-9.13631 -2.50747,-33.09862 -0.50149,-35.10459 2.00598,-2.00598 8.96605,-6.60547 9.46755,-12.6234 0.50149,-6.01793 0.006,-14.54333 -6.51345,-16.04781 -6.51943,-1.50449 -37.56318,9.61443 -37.56318,9.61443 0,0 -3.00896,14.04184 -1.00298,17.0508 2.00597,3.00897 3.01494,3.51046 3.01494,5.51644 0,2.00597 -7.289071,36.97326 -3.00897,59.18229 3.36999,17.48657 16.33846,43.18791 52.64494,40.11953 26.98912,-2.28093 55.6778,-29.59413 55.6778,-29.59413 z"
       id="path4045"
       inkscape:connector-curvature="0"
       sodipodi:nodetypes="cssssscsssscc" />
    <path
       style="fill:#e54c4c;fill-opacity:1;stroke:#7c2423;stroke-width:2;stroke-linecap:butt;stroke-linejoin:miter;stroke-miterlimit:4;stroke-opacity:1;stroke-dasharray:none"
       d="m 97.872342,234.39716 c -5.67376,1.41844 -8.156029,5.31915 -6.737589,10.99291 1.41844,5.67376 4.964539,13.12056 10.992907,14.18439 6.02837,1.06383 13.12057,1.06384 13.12057,-3.9007 0,-4.96454 -2.83688,-10.6383 -4.96454,-14.53901 -2.12766,-3.90071 -6.02837,-7.44681 -12.411348,-6.73759 z"
       id="path4051"
       inkscape:connector-curvature="0"
       sodipodi:nodetypes="cssssc" />
    <path
       style="fill:#e54c4c;fill-opacity:1;stroke:#7c2423;stroke-width:2;stroke-linecap:butt;stroke-linejoin:miter;stroke-miterlimit:4;stroke-opacity:1;stroke-dasharray:none"
       d="m 125.17731,242.19858 15.95744,1.77305 c 0,0 3.83897,-16.05491 6.38298,-23.40426 3.19149,-9.21986 4.96454,-20.56737 4.60993,-28.7234 -0.23562,-5.41937 -9.38065,-8.61788 -13.82979,-1.77305 -4.60993,7.0922 -7.09219,18.79432 -8.51063,27.65957 -0.81574,5.09835 -4.60993,24.46809 -4.60993,24.46809 z"
       id="path4053"
       inkscape:connector-curvature="0"
       sodipodi:nodetypes="ccssssc" />
    <path
       style="fill:#e54c4c;fill-opacity:1;stroke:#7c2423;stroke-width:2;stroke-linecap:butt;stroke-linejoin:miter;stroke-miterlimit:4;stroke-opacity:1;stroke-dasharray:none"
       d="m 104.96454,231.56028 c 0.70922,7.0922 -0.55079,10.87217 3.90071,18.43972 3.5461,6.02837 16.31206,5.31915 17.37589,0.35461 1.06383,-4.96454 1.06383,-20.21277 -0.70922,-24.46809 -1.77305,-4.25532 -7.44681,-7.0922 -13.12057,-5.67376 -5.67376,1.41844 -7.0922,6.02837 -7.44681,11.34752 z"
       id="path4049"
       inkscape:connector-curvature="0"
       sodipodi:nodetypes="cssssc" />
    <path
       style="fill:#99dbff;fill-opacity:1;stroke:#046577;stroke-width:2;stroke-linecap:butt;stroke-linejoin:miter;stroke-miterlimit:4;stroke-opacity:1;stroke-dasharray:none"
       d="m 242.22169,249.75441 -65.69574,58.17332 c 0,0 10.12921,6.7308 17.5523,19.05678 8.56909,14.22892 11.03287,26.57919 11.03287,26.57919 0,0 12.53735,-8.5254 25.07471,-18.05379 12.53735,-9.52839 36.10758,-34.1016 36.10758,-34.1016 z"
       id="path4043"
       inkscape:connector-curvature="0"
       sodipodi:nodetypes="ccscscc" />
    <path
       style="fill:#99dbff;fill-opacity:1;stroke:#046577;stroke-width:2.5;stroke-linecap:butt;stroke-linejoin:miter;stroke-miterlimit:4;stroke-opacity:1;stroke-dasharray:none"
       d="m 253.75605,236.71556 c -10.53137,13.03885 -24.06574,40.11953 -32.59114,69.70769 -8.5254,29.58815 -11.62293,80.27646 -9.53437,108.32274 3.51047,47.14045 15.54632,88.26298 15.54632,88.26298 l 156.96768,-0.5015 c 0,0 3.04607,-29.11007 4.51345,-69.70769 1.50448,-41.62402 -2.51345,-103.3078 -17.05678,-143.42733 -13.47582,-37.17466 -18.54931,-40.62103 -21.05678,-44.13149 -2.50747,-3.51046 -19.55827,-15.54632 -19.55827,-15.54632 z"
       id="path3269"
       inkscape:connector-curvature="0"
       sodipodi:nodetypes="cssccssscc" />
    <path
       style="fill:#7cb2cf;fill-opacity:1;stroke:#046577;stroke-width:2;stroke-miterlimit:4;stroke-opacity:1;stroke-dasharray:none"
       d="m 244.22766,255.27084 7.77316,-14.54333 -6.01793,-4.51344 -7.27166,14.29258 z"
       id="path3053"
       inkscape:connector-curvature="0" />
    <path
       style="fill:#e54c4c;fill-opacity:1;stroke:#7c2423;stroke-width:2;stroke-miterlimit:4;stroke-opacity:1;stroke-dasharray:none"
       d="m 260.28369,304.25532 c 0,0 -5.21083,-15.94675 -7.80142,-25.53192 -3.5461,-13.12056 -3.41265,-43.81062 -9.21986,-53.19149 -9.21986,-14.89361 -37.49182,-28.47418 -47.51773,-37.58865 -15.60284,-14.1844 -26.95035,-23.00636 -26.95035,-39.00709 0,-17.02128 19.11451,-36.38802 36.17021,-57.446808 16.87872,-20.840267 53.19149,-51.06383 53.19149,-51.06383 0,0 -7.78178,-2.462629 -10.99291,-5.673759 -4.96454,-4.964539 -3.90071,-12.765957 -3.90071,-12.765957 0,0 3.57372,4.767494 6.13223,5.985348 2.55851,1.217854 8.05217,1.10685 8.05217,1.10685 0,0 -1.41844,-6.028369 0.70922,-11.702128 2.12766,-5.673759 10.6383,-7.446808 10.6383,-7.446808 0,0 -3.73519,4.282702 -4.00457,9.574469 -0.2907,5.710518 6.84145,7.446808 6.84145,7.446808 0,0 -0.14688,-6.694568 4.10844,-9.531447 4.25531,-2.83688 10.07595,-3.943731 10.07595,-3.943731 0,0 -4.96454,4.25532 -4.96454,9.219859 0,4.964539 3.5461,7.092198 3.5461,7.092198 0,0 14.89362,0.35461 23.40426,2.48227 8.02391,2.005976 28.6365,7.412856 36.17021,30.851063 6.38298,19.858156 12.05674,39.499373 9.21986,73.758863 -1.75581,21.20403 -7.80142,56.02837 -8.51064,63.12057 -0.70922,7.0922 -2.12766,31.91489 -2.12766,31.91489 0,0 -25.94719,4.88094 -39.71631,14.1844 -13.12057,8.86525 -22.34043,21.63121 -29.07801,31.56028 -6.23325,9.18585 -13.47518,26.59575 -13.47518,26.59575 z"
       id="path2997"
       inkscape:connector-curvature="0"
       sodipodi:nodetypes="cssssscsczcscscscscsssscssc" />
    <path
       style="fill:#7c2423;fill-opacity:1;stroke:#000000;stroke-width:0.8351295px;stroke-linecap:butt;stroke-linejoin:miter;stroke-opacity:1"
       d="m 177.0353,135.79292 c 5.10976,-3.84462 14.48538,-3.92285 28.85665,-3.64824 14.37127,0.27462 32.40001,-1.21606 47.72935,-2.03992 15.32937,-0.82384 33.68414,-3.29014 44.02372,-1.92231 8.3034,1.09847 16.66751,3.68819 20.61399,18.20348 3.58974,13.2032 -0.86859,21.96679 -7.8699,27.73629 -7.66467,6.31618 -37.82915,9.21879 -63.3477,7.49286 -21.46777,-1.45195 -43.06952,-5.96989 -51.86324,-9.21935 -7.79627,-2.88087 -15.00999,-5.49234 -19.1617,-10.98466 -4.20605,-5.56426 -4.98308,-8.94474 -4.66371,-12.51476 0.31937,-3.57002 1.21146,-10.63184 5.68254,-13.10339 z"
       id="path2999-7-4"
       inkscape:connector-curvature="0"
       sodipodi:nodetypes="csssssssssc" />
    <path
       style="fill:#ffffff;stroke:none"
       d="m 188.31106,131.40178 c 0,0 2.50747,7.27167 8.77615,7.52241 6.26868,0.25075 8.02391,-6.51942 8.02391,-6.51942 0,0 1.0022,7.55373 10.28062,7.77316 8.02582,0.18981 11.53438,-7.27166 11.53438,-7.27166 0,0 0.49775,7.37598 13.03884,7.77316 12.04143,0.38135 13.54034,-10.53138 13.54034,-10.53138 0,0 -0.753,9.23034 13.2896,9.02689 13.29079,-0.19256 13.79109,-10.78212 13.79109,-10.78212 0,0 -0.25075,7.27166 10.02989,7.27166 10.28063,0 10.53137,-7.02091 10.53137,-7.02091 z"
       id="path3000"
       inkscape:connector-curvature="0"
       sodipodi:nodetypes="cscscscscscc" />
    <path
       style="fill:#7c2423;fill-opacity:1;stroke:none"
       d="m 264.1844,79.078014 c 0,0 -3.96155,6.469022 -1.83389,8.596682 2.12766,2.127659 3.7003,2.612136 10.69914,2.750836 4.48664,0.08891 8.35632,-0.473062 12.05673,-1.41844 5.55208,-1.41844 9.92908,-9.219858 9.92908,-9.219858 0,0 -0.72315,7.840479 -5.00756,10.638298 -5.02637,3.282336 -13.72031,3.35645 -17.33286,3.191489 -4.54909,-0.207726 -13.14967,-0.764427 -14.24524,-4.817655 -1.31994,-4.883326 5.7346,-9.721352 5.7346,-9.721352 z"
       id="path2995"
       inkscape:connector-curvature="0"
       sodipodi:nodetypes="cssscsssc" />
    <path
       style="fill:#7c2423;fill-opacity:1;stroke:none"
       d="m 239.3617,80.851064 c 0,0 -2.69006,6.304074 -6.73759,8.510638 -3.25233,1.77305 -13.49299,1.77305 -15.2052,-1.167693 -1.64501,-2.825336 1.37542,-7.697555 1.37542,-7.697555 0,0 -1.47928,5.863664 1.71221,6.572884 3.19149,0.70922 6.2539,0.977787 10.3015,-0.04302 3.84428,-0.969533 8.55366,-6.175253 8.55366,-6.175253 z"
       id="path2998"
       inkscape:connector-curvature="0"
       sodipodi:nodetypes="csscssc" />
    <path
       style="fill:#ffbc99;fill-opacity:1;stroke:none"
       d="m 245.98289,182.55419 c 0,0 6.90113,-9.96999 19.55827,-16.29856 13.54035,-6.77017 25.5762,-8.02391 35.60609,-7.27167 9.12578,0.68443 16.04781,8.27466 16.04781,8.27466 0,0 -2.75821,12.53735 -16.80005,14.29258 -14.04184,1.75523 -54.41212,1.00299 -54.41212,1.00299 z"
       id="path3002"
       inkscape:connector-curvature="0"
       sodipodi:nodetypes="csscsc" />
    <path
       inkscape:connector-curvature="0"
       style="fill:#cf423f;fill-opacity:1;stroke:#7c2423;stroke-width:2;stroke-miterlimit:4;stroke-opacity:1;stroke-dasharray:none"
       d="m 296.90625,119.6875 c -11.79065,-0.1286 -28.10771,2.13564 -41.9375,3 -17.02128,1.06383 -35.8238,2.47961 -51.78125,2.125 -15.95745,-0.35461 -22.70125,-1.77703 -28.375,3.1875 -4.96454,3.19149 -9.20789,13.85882 -9.5625,18.46875 -0.35461,4.60993 -1.13905,9.47118 3.53125,16.65625 4.60993,7.0922 12.62449,10.46745 21.28125,14.1875 9.76431,4.19599 35.33953,11.75202 59.21875,12.40625 25.88653,0.70922 53.76989,0.23491 66.6875,-8.15625 10.75754,-6.98799 14.11846,-19.08499 12.40625,-35.8125 -1.80688,-17.65244 -14.90514,-24.11281 -24.125,-25.53125 -2.15264,-0.33118 -4.62283,-0.50157 -7.34375,-0.53125 z M 289.0625,130 c 2.34407,0.0208 4.50447,0.14313 6.375,0.375 8.01154,0.99312 16.06724,3.34559 19.875,16.46875 3.46356,11.93691 -0.83854,19.84633 -7.59375,25.0625 -7.39527,5.7104 -36.50341,8.34165 -61.125,6.78125 -20.7132,-1.3127 -41.54662,-5.40594 -50.03125,-8.34375 -7.52223,-2.60457 -14.46297,-4.97193 -18.46875,-9.9375 -4.05822,-5.0306 -4.80814,-8.08487 -4.5,-11.3125 0.30814,-3.22763 1.15483,-9.60924 5.46875,-11.84375 4.93016,-3.47589 13.97762,-3.52953 27.84375,-3.28125 13.86613,0.24828 31.27197,-1.09891 46.0625,-1.84375 12.01732,-0.60517 25.93612,-2.21503 36.09375,-2.125 z"
       id="path2999"
       sodipodi:nodetypes="ssscsssssssscssssssscssc" />
    <path
       style="fill:#7c2423;fill-opacity:1;stroke:none"
       d="m 224.66939,58.183635 c 1.04475,1.508622 11.03288,-1.504483 22.31649,-2.005977 6.51299,-0.289466 22.06574,0.250748 31.84488,2.005977 9.77914,1.75523 22.81798,4.764196 24.57321,4.011954 1.75523,-0.752242 -3.25857,-9.034323 -16.04781,-11.785114 -12.78923,-2.75079 -32.55395,-1.563266 -45.63597,1.504484 -6.22398,1.459529 -18.09555,4.760054 -17.0508,6.268676 z"
       id="path3049"
       inkscape:connector-curvature="0"
       sodipodi:nodetypes="zsszzsz" />
    <path
       style="fill:#7cb2cf;fill-opacity:1;stroke:#046577;stroke-width:2;stroke-miterlimit:4;stroke-opacity:1;stroke-dasharray:none"
       d="m 297.1353,263.044 c 0,0 13.28959,-12.7881 26.82993,-18.05379 13.54035,-5.26568 21.56425,-7.27166 21.56425,-7.27166 l -1.00298,-8.02391 c 0,0 -17.05081,2.25673 -28.33443,6.01793 -11.28361,3.76121 -27.33143,16.29856 -27.33143,16.29856 z"
       id="path3051"
       inkscape:connector-curvature="0" />
    <path
       style="fill:#e54c4c;fill-opacity:1;stroke:#7c2423;stroke-width:2;stroke-linecap:butt;stroke-linejoin:miter;stroke-miterlimit:4;stroke-opacity:1;stroke-dasharray:none"
       d="m 313.43386,502.50747 c 0,0 8.21582,-38.70084 11.53436,-66.19723 3.51047,-29.08666 2.00598,-50.14942 2.00598,-50.14942 l 57.42109,2.25673 c 0,0 1.50021,16.72528 -0.75224,43.37924 -3.00897,35.60609 -16.04782,70.7047 -16.04782,70.7047 z"
       id="path4041"
       inkscape:connector-curvature="0"
       sodipodi:nodetypes="csccscc" />
    <path
       style="fill:#99dbff;fill-opacity:1;stroke:#046577;stroke-width:2;stroke-linecap:butt;stroke-linejoin:miter;stroke-miterlimit:4;stroke-opacity:1;stroke-dasharray:none"
       d="m 323.99512,307.92773 c 0,0 1.4746,15.04483 1.97609,33.60011 0.5015,18.55528 1.00299,51.15241 1.00299,51.15241 0,0 9.52839,10.53137 35.1046,8.5254 25.5762,-2.00598 26.07172,-8.02391 26.07172,-8.02391 0,0 -0.49776,-34.52969 -5.00299,-61.18229 -3.98875,-23.59711 -15.80305,-53.65988 -15.80305,-53.65988"
       id="path4039"
       inkscape:connector-curvature="0"
       sodipodi:nodetypes="cscscsc" />
    <path
       style="fill:#e54c4c;fill-opacity:1;stroke:#7c2423;stroke-width:2;stroke-linecap:butt;stroke-linejoin:miter;stroke-miterlimit:4;stroke-opacity:1;stroke-dasharray:none"
       d="m 136.52482,255.31915 c 0,0 -3.54609,9.57446 -11.34751,10.9929 -7.35985,1.33815 -14.70439,-1.09777 -12.89362,-9.92907 1.21922,-5.94624 3.70571,-12.87273 11.47518,-15.60284 6.89706,-2.42355 18.10292,-1.06383 20.7751,3.19149"
       id="path4047"
       inkscape:connector-curvature="0"
       sodipodi:nodetypes="csscc" />
  </g>
</svg>
