<?xml version="1.0" encoding="UTF-8" standalone="no"?>
<!-- Created with Inkscape (http://www.inkscape.org/) -->

<svg
   xmlns:dc="http://purl.org/dc/elements/1.1/"
   xmlns:cc="http://creativecommons.org/ns#"
   xmlns:rdf="http://www.w3.org/1999/02/22-rdf-syntax-ns#"
   xmlns:svg="http://www.w3.org/2000/svg"
   xmlns="http://www.w3.org/2000/svg"
   version="1.1"
   width="380"
   height="106"
   id="svg3121">
  <defs
     id="defs3123" />
  <metadata
     id="metadata3126">
    <rdf:RDF>
      <cc:Work
         rdf:about="">
        <dc:format>image/svg+xml</dc:format>
        <dc:type
           rdf:resource="http://purl.org/dc/dcmitype/StillImage" />
        <dc:title></dc:title>
      </cc:Work>
    </rdf:RDF>
  </metadata>
  <g
     transform="translate(0,-946.36218)"
     id="layer1">
    <g
       transform="translate(-938.57142,29.85714)"
       id="g3160">
      <g
         transform="translate(615.29078,668.95184)"
         id="g3800">
        <path
           d="m 389.62137,272.25973 c 0.51666,-0.51943 2.33494,-4.4624 3.29254,-5.44189 0.39756,-0.40664 1.53071,-3.11994 2.60463,-4.51481 0.85556,-1.11125 2.57727,-4.93131 2.9202,-5.37132 0.92403,-1.18562 2.67642,-4.16183 3.68399,-5.05877 1.20404,15.8346 -0.17243,46.55112 -1.85663,61.45662 l -5.32237,-5.048 c -1.41607,-2.00678 -1.71522,-7.99926 -1.86453,-9.80421 -0.11665,-1.41002 -0.81435,-10.4729 -1.10228,-11.63631 -0.98668,-3.98689 -1.89824,-10.40461 -2.35555,-14.58131 z"
           id="path3036"
           style="fill:#c8c8c8;fill-opacity:1;stroke:#e54d4c;stroke-width:1;stroke-linecap:butt;stroke-linejoin:miter;stroke-miterlimit:4;stroke-opacity:1;stroke-dasharray:none" />
        <path
           d="m 335.58781,264.61935 c 2.74584,-0.0445 5.07004,-1.2353 7.5719,-1.84681 3.2684,-0.83608 5.87752,-1.50674 9.04935,-2.21617 1.9127,-0.59881 5.90003,-1.14938 5.90003,-1.14938 0,0 4.36271,5.00705 5.55016,7.79788 0.93428,1.78323 2.43836,3.63921 2.95489,5.17106 1.37649,1.99551 2.18702,2.50113 2.8497,4.06133 1.52228,1.4689 2.01828,2.3187 3.59339,3.65564 0.53776,0.69371 2.79493,3.21607 3.1843,4.08529 0.77155,1.483 2.05973,2.10969 3.30025,4.08026 0.94603,1.09727 2.05356,2.9896 3.69361,4.06298 0.78256,1.2075 1.54381,1.88614 2.66625,4.04283 0.82385,0.34654 2.35916,3.09016 3.61092,4.33263 1.60733,1.40586 2.59456,2.93001 3.44803,3.69361 1.42191,1.7072 2.72539,3.26988 3.81738,4.67791 1.1246,1.26321 2.95489,2.94703 2.95489,2.94703 0,0 -0.0143,-0.83135 0.48527,-4.02298 0.0659,-2.77456 0.74155,-6.7744 0.0854,-8.58131 0.57836,-3.70549 0.27253,-5.98728 0.66514,-9.64116 -0.10206,-2.08099 0.66866,-4.31017 -0.0468,-6.18953 -0.0668,-2.97857 -0.23403,-6.25705 -0.073,-9.36172 -0.14426,-2.66742 0.57439,-4.99498 0.36937,-7.68833 -0.003,-3.46817 0.3752,-6.81928 0.37133,-10.28259 -0.0904,-3.21678 0.4833,-4.55611 0.4833,-4.55611 0,0 5.4066,-1.24653 9.10238,-1.72303 3.17234,-0.88825 9.0471,-1.7257 9.0471,-1.7257 0,0 -0.18859,7.78667 -0.79935,11.45286 -1.04226,4.37955 -0.8326,8.73385 -1.10218,13.44221 -0.2497,2.25275 0.0335,6.07705 -0.73872,7.49153 0.21687,4.29314 -1.55125,7.28156 -1.35564,11.57004 -0.53051,4.6713 -0.84231,8.28825 -1.22989,12.92763 -0.51274,2.14967 -0.53052,4.46514 -0.73479,7.13967 -0.76758,2.99509 -1.13648,7.10314 -1.60318,10.34801 -0.15751,3.13456 -0.80301,4.1601 -0.93106,7.30182 -0.50294,2.99811 -1.64458,5.21209 -1.52873,8.24156 0.15644,2.80037 -1.46659,4.33441 -1.47744,7.16642 -0.1327,2.2563 -0.73873,1.66213 -0.73873,1.66213 0,0 -5.69183,-4.92738 -7.75658,-7.38722 -2.37293,-2.92694 -7.084,-6.47897 -8.41131,-8.1682 -3.31754,-3.33025 -8.45763,-5.76087 -11.35838,-9.37017 -3.32835,-3.94731 -6.81263,-7.79873 -9.76984,-12.01713 -3.02249,-3.2888 -2.91999,-6.32251 -6.15882,-8.98379 -2.25465,-3.34358 -5.42181,-6.21875 -8.31062,-9.04935 -3.31305,-2.43127 -5.25848,-5.10785 -7.5719,-8.31062 -1.20191,-1.08558 -3.16742,-4.46834 -3.69017,-4.10693 -1.04789,-2.87336 -3.57256,-5.08949 -5.1745,-8.08198 -1.09611,-2.05779 -4.05381,-4.59645 -4.19264,-6.89212 z"
           id="path3030"
           style="fill:#ffffff;fill-opacity:1;stroke:#e54d4c;stroke-width:1;stroke-linecap:butt;stroke-linejoin:miter;stroke-miterlimit:4;stroke-opacity:1;stroke-dasharray:none" />
        <path
           d="m 329.30867,277.91635 c -1.68085,2.77111 -2.05813,4.29532 -3.35983,7.01858 0.0157,1.89288 -1.06544,2.92937 -2.0767,4.67841 1.58891,1.58589 5.90774,4.86263 8.23328,6.91773 2.35803,2.35058 5.38886,4.21488 7.55614,6.11045 2.61477,1.78062 5.64636,4.50788 8.3085,6.65852 1.84638,1.79725 4.87927,3.7066 6.82453,5.92177 2.67439,2.3937 5.65577,3.99087 8.14725,6.24717 1.86198,2.13214 4.90535,3.26125 6.41568,5.22236 2.26684,1.5518 3.98019,3.25151 6.12129,4.78235 0.98535,0.85696 2.47028,2.00256 3.6936,2.58553 1.26725,1.50623 3.00558,2.23933 4.43234,3.69362 1.68312,0.39073 3.59275,2.48141 5.17105,3.50892 1.14115,0.67555 2.38017,1.67476 3.32425,2.03149 1.15226,1.29515 2.30026,2.35397 3.32425,3.32425 1.32056,1.84373 2.96503,2.48949 4.06297,3.69361 1.59017,0.74957 4.04874,2.55231 4.04874,2.55231 0,0 1.09781,-0.90159 2.13749,-2.91252 1.04511,-0.52502 2.36196,-2.76401 2.36196,-2.76401 0,0 -4.56329,-4.27041 -7.18665,-6.73262 -2.50754,-3.8536 -4.86443,-4.55742 -7.1436,-7.38329 -3.02726,-3.14363 -6.39785,-6.1589 -9.19522,-9.58081 -3.02966,-3.02831 -6.12982,-6.01146 -8.63954,-9.39679 -2.32284,-2.7697 -4.69504,-5.68944 -7.14283,-8.48016 -1.9477,-2.30787 -4.62945,-5.84047 -7.17644,-7.92968 -2.49553,-3.1909 -4.81302,-5.89502 -8.03898,-8.39496 -2.28815,-2.44432 -2.6937,-4.07569 -4.99282,-5.71001 -1.41933,-3.02756 -4.0123,-5.06802 -5.66222,-7.75658 -1.07035,-1.28588 -2.2497,-4.13423 -3.19654,-5.17302 -1.32822,-1.23364 -3.21299,-5.1244 -4.19462,-5.92551 -2.85808,4.18281 -5.45957,11.19097 -6.15733,13.19289 z"
           id="path3032"
           style="fill:#c8c8c8;fill-opacity:1;stroke:#e54d4c;stroke-width:1;stroke-linecap:butt;stroke-linejoin:miter;stroke-miterlimit:4;stroke-opacity:1;stroke-dasharray:none" />
      </g>
      <g
         transform="translate(811.29078,572.95184)"
         id="text2990"
         style="font-size:60px;font-style:normal;font-variant:normal;font-weight:bold;font-stretch:normal;text-align:center;line-height:100%;letter-spacing:0px;word-spacing:0px;writing-mode:lr-tb;text-anchor:middle;fill:#ffffff;fill-opacity:1;stroke:none;font-family:Miriam Fixed;-inkscape-font-specification:Miriam Fixed Bold">
        <path
           d="m 276.21991,390.70633 -5.45837,-4.01917 -15.90088,21.65955 -3.96057,-15.41931 -7.07886,0 8.5199,29.69971 z"
           id="path2998"
           style="font-style:oblique;line-height:100%;fill:#ffffff;font-family:Ashby;-inkscape-font-specification:Ashby Bold Oblique" />
        <path
           d="m 305.90497,403.66653 c -3e-5,-1.67967 -0.30002,-3.22935 -0.89997,-4.64904 -0.6,-1.41966 -1.42001,-2.63975 -2.46002,-3.66028 -1.04006,-1.02048 -2.29006,-1.82065 -3.75,-2.40051 -1.45998,-0.57981 -3.0298,-0.86973 -4.70947,-0.86976 -2.16066,3e-5 -4.24104,0.45017 -6.24115,1.35041 -2.00013,0.90029 -3.77015,2.10024 -5.31006,3.59985 -1.53992,1.49966 -2.77985,3.23946 -3.71979,5.21942 -0.93994,1.98 -1.40991,4.05031 -1.40991,6.21094 0,1.6797 0.29999,3.22968 0.89997,4.64996 0.59997,1.4203 1.41997,2.64039 2.46002,3.66028 1.04003,1.0199 2.29003,1.81977 3.75,2.3996 1.45995,0.57983 3.02977,0.86975 4.70947,0.86975 l 4.86145,0 0,-6.7804 -4.86145,0 c -1.27931,10e-6 -2.36909,-0.31981 -3.26935,-0.95947 -0.90028,-0.63964 -1.45051,-1.57958 -1.65069,-2.81982 l 20.10131,0 c 0.51999,-0.83984 0.89994,-1.79992 1.13984,-2.88025 0.23983,-1.08031 0.35977,-2.06053 0.3598,-2.94068 z m -6.89942,-0.65918 -12.78076,0 c 0.9204,-1.35984 2.11058,-2.38981 3.57056,-3.0899 1.45994,-0.70005 2.88999,-1.05009 4.29016,-1.05011 1.3989,2e-5 2.52836,0.35006 3.38837,1.05011 0.85996,0.70009 1.37052,1.73006 1.53167,3.0899 z"
           id="path3000"
           style="font-style:oblique;line-height:100%;fill:#ffffff;font-family:Ashby;-inkscape-font-specification:Ashby Bold Oblique" />
        <path
           d="m 344.93756,404.2067 c -4e-5,-1.71996 -0.30002,-3.30992 -0.89996,-4.7699 -0.60001,-1.45994 -1.44016,-2.70994 -2.52045,-3.75 -1.08036,-1.04002 -2.36026,-1.86002 -3.83972,-2.46002 -1.47952,-0.59995 -3.07925,-0.89994 -4.7992,-0.89997 -1.08034,3e-5 -2.1805,0.15018 -3.30047,0.45044 -1.12002,0.30032 -2.20003,0.75015 -3.24005,1.34949 l 0.23987,-1.19934 -14.69971,0 0,6.83899 6.17981,0 -4.7406,20.28076 6.95984,0 3.66027,-15.60059 0.78003,-0.95947 c 1.04002,-1.31956 2.30009,-2.37944 3.78022,-3.17963 1.48008,-0.80015 2.94034,-1.20023 4.38079,-1.20025 1.56004,2e-5 2.82987,0.45015 3.80951,1.3504 0.97959,0.90029 1.46939,2.12984 1.46943,3.68866 -4e-5,0.6006 -0.0598,1.1609 -0.17945,1.68091 l -3.29956,14.21997 6.95984,0 2.93884,-12.65991 c 0.24044,-1.08031 0.36068,-2.14049 0.36072,-3.18054 z"
           id="path3002"
           style="font-style:oblique;line-height:100%;fill:#ffffff;font-family:Ashby;-inkscape-font-specification:Ashby Bold Oblique" />
        <path
           d="m 374.94672,399.76639 0,-6.83899 -8.34046,0 2.57996,-11.28113 -6.95984,0 -2.57996,11.34155 -8.93921,0 0,6.77857 7.37915,0 -4.68017,20.28076 15.54016,0 0,-6.7804 -7.02026,0 3.12011,-13.50036 z"
           id="path3004"
           style="font-style:oblique;line-height:100%;fill:#ffffff;font-family:Ashby;-inkscape-font-specification:Ashby Bold Oblique" />
        <path
           d="m 410.51129,420.04715 0,-6.7804 -5.75867,0 4.68018,-20.33935 -6.96167,0 -4.67834,20.33935 -5.52063,0 c -1.80056,10e-6 -3.27059,-0.52001 -4.4101,-1.56005 -1.13954,-1.04003 -1.7093,-2.47985 -1.70929,-4.31946 -10e-6,-0.60058 0.0598,-1.24083 0.17944,-1.92078 l 2.93885,-12.53906 -6.95984,0 -2.57996,10.979 c -0.23926,1.19997 -0.35889,2.36025 -0.35888,3.48084 -1e-5,1.83961 0.32989,3.53944 0.98968,5.09948 0.65978,1.56007 1.55975,2.90009 2.69989,4.02009 1.14013,1.11999 2.50029,1.99005 4.08051,2.61016 1.58018,0.62012 3.29008,0.93018 5.1297,0.93018 z"
           id="path3006"
           style="font-style:oblique;line-height:100%;fill:#ffffff;font-family:Ashby;-inkscape-font-specification:Ashby Bold Oblique" />
        <path
           d="m 446.13263,394.18716 c -2.00076,-1.28049 -4.24075,-1.92074 -6.71997,-1.92077 l -0.0604,0 c -1.56008,0.0403 -2.99013,0.29055 -4.29016,0.75073 -1.30007,0.46023 -2.29006,0.99002 -2.96997,1.58936 l 0.36072,-1.67908 -14.40125,0 0,6.83899 5.88135,0 -4.68017,20.28076 6.95984,0 2.93884,-12.65991 c 0.60057,-2.60008 1.81089,-4.64018 3.63098,-6.1203 1.82005,-1.48009 4.03013,-2.22014 6.63025,-2.22016 1.15964,2e-5 2.17954,0.28018 3.05969,0.84046 z"
           id="path3008"
           style="font-style:oblique;line-height:100%;fill:#ffffff;font-family:Ashby;-inkscape-font-specification:Ashby Bold Oblique" />
        <path
           d="m 479.12091,420.04715 0,-6.7804 -5.7605,0 3.35999,-14.57885 c -1.1597,-2.23997 -2.59952,-3.87998 -4.31946,-4.92005 -1.72,-1.04001 -3.88003,-1.56003 -6.4801,-1.56006 -2.15945,3e-5 -4.23922,0.43979 -6.23932,1.31928 -2.00014,0.87954 -3.77016,2.06942 -5.31006,3.56964 -1.53993,1.50027 -2.77009,3.23031 -3.69049,5.19012 -0.92042,1.95986 -1.38062,4.0201 -1.38062,6.18073 0,1.6797 0.29022,3.22968 0.87067,4.64996 0.58044,1.4203 1.40044,2.64039 2.46002,3.66028 1.05956,1.0199 2.30956,1.81977 3.75,2.3996 1.44042,0.57983 3.00047,0.86975 4.68018,0.86975 z m -9.71924,-19.92004 -3.0011,13.13964 -5.33935,0 c -1.48073,10e-6 -2.68099,-0.41991 -3.60077,-1.25976 -0.91981,-0.83984 -1.37971,-1.9995 -1.3797,-3.47901 -1e-5,-1.19993 0.2899,-2.38005 0.86975,-3.54034 0.57982,-1.16026 1.32994,-2.18046 2.25037,-3.06061 0.92039,-0.88011 1.9705,-1.59025 3.15033,-2.13043 1.17979,-0.54014 2.36966,-0.81022 3.56964,-0.81024 1.4404,2e-5 2.60068,0.38027 3.48083,1.14075 z"
           id="path3010"
           style="font-style:oblique;line-height:100%;fill:#ffffff;font-family:Ashby;-inkscape-font-specification:Ashby Bold Oblique" />
        <path
           d="m 507.18915,393.82645 c -0.79959,-0.23923 -2.04928,-0.58897 -3.74909,-1.0492 -1.69985,-0.46018 -3.63008,-0.69028 -5.79071,-0.69031 -1.56007,3e-5 -3.09999,0.19016 -4.61975,0.57038 -1.51978,0.38027 -2.86957,0.96041 -4.04938,1.74042 -1.17981,0.78005 -2.13989,1.78988 -2.88024,3.02948 -0.74037,1.23964 -1.11054,2.71944 -1.11054,4.43939 0,1.24025 0.24017,2.32026 0.72052,3.24005 0.48034,0.91981 1.13037,1.6797 1.95007,2.27966 0.8197,0.59999 1.74957,1.05012 2.78962,1.3504 1.04002,0.30031 2.13988,0.45046 3.29956,0.45044 l 2.64038,0 c 0.88011,2e-5 1.32017,0.46022 1.32019,1.38062 -2e-5,0.55909 -0.30001,1.14869 -0.89997,1.7688 -0.59999,0.62012 -1.39985,0.93018 -2.39959,0.93017 l -9.18091,0 0,6.7804 9.42078,0 c 1.31956,0 2.59947,-0.27008 3.83972,-0.81024 1.24021,-0.54016 2.34037,-1.28021 3.30047,-2.22016 0.96006,-0.93993 1.71995,-2.01995 2.27967,-3.24005 0.55967,-1.22008 0.83951,-2.48992 0.83953,-3.80951 -2e-5,-1.08031 -0.19991,-2.09044 -0.59967,-3.03039 -0.3998,-0.93993 -0.93965,-1.73979 -1.61956,-2.3996 -0.67996,-0.65977 -1.49996,-1.17979 -2.46003,-1.56006 -0.9601,-0.38023 -1.9803,-0.57035 -3.0606,-0.57037 l -3.0597,0 c -0.31983,2e-5 -0.72968,-0.0699 -1.22955,-0.20966 -0.49989,-0.13975 -0.74983,-0.48979 -0.74982,-1.05011 -1e-5,-0.36008 0.14983,-0.68998 0.44953,-0.98968 0.29967,-0.29966 0.67961,-0.53953 1.13983,-0.71961 0.46019,-0.18003 0.99028,-0.3201 1.59027,-0.42022 0.59996,-0.10008 1.19963,-0.15013 1.79901,-0.15015 1.35985,2e-5 2.85979,0.1401 4.49982,0.42023 1.63999,0.28017 3.00016,0.63997 4.0805,1.0794 z"
           id="path3012"
           style="font-style:oblique;line-height:100%;fill:#ffffff;font-family:Ashby;-inkscape-font-specification:Ashby Bold Oblique" />
      </g>
    </g>
  </g>
</svg>
