<?xml version="1.0" encoding="UTF-8" standalone="no"?>
<!-- Created with Inkscape (http://www.inkscape.org/) -->

<svg
   xmlns:dc="http://purl.org/dc/elements/1.1/"
   xmlns:cc="http://creativecommons.org/ns#"
   xmlns:rdf="http://www.w3.org/1999/02/22-rdf-syntax-ns#"
   xmlns:svg="http://www.w3.org/2000/svg"
   xmlns="http://www.w3.org/2000/svg"
   version="1.1"
   width="78"
   height="78"
   id="svg3675">
  <defs
     id="defs3677" />
  <metadata
     id="metadata3680">
    <rdf:RDF>
      <cc:Work
         rdf:about="">
        <dc:format>image/svg+xml</dc:format>
        <dc:type
           rdf:resource="http://purl.org/dc/dcmitype/StillImage" />
        <dc:title></dc:title>
      </cc:Work>
    </rdf:RDF>
  </metadata>
  <g
     transform="translate(0,-974.36218)"
     id="layer1">
    <g
       transform="translate(-74.214283,-16.142859)"
       id="g3843">
      <path
         d="m 1739.9625,47.437702 a 117.48943,117.48943 0 1 1 -234.9789,0 117.48943,117.48943 0 1 1 234.9789,0 z"
         transform="matrix(0.33154724,0,0,0.33154724,-424.71217,1013.7772)"
         id="path4424"
         style="color:#000000;fill:#3cdefd;fill-opacity:1;fill-rule:nonzero;stroke:none;stroke-width:0.5;marker:none;visibility:visible;display:inline;overflow:visible;enable-background:accumulate" />
      <path
         d="m 1739.9625,47.437702 a 117.48943,117.48943 0 1 1 -234.9789,0 117.48943,117.48943 0 1 1 234.9789,0 z"
         transform="matrix(0.14561301,0,0,0.03042194,-123.03889,1060.3928)"
         id="path4424-1"
         style="color:#000000;fill:#4f8270;fill-opacity:0.5098038;fill-rule:nonzero;stroke:none;stroke-width:0.5;marker:none;visibility:visible;display:inline;overflow:visible;enable-background:accumulate" />
      <g
         transform="matrix(1.0453547,0,0,1.045205,-1481.4564,1448.2737)"
         id="g4715"
         style="stroke:#e54d4c;stroke-width:0.87848395;stroke-opacity:1">
        <path
           d="m 1519.1864,-381.21838 c 1.5696,0.29271 7.4301,1.8745 9.5023,1.16019 1.3753,-0.4741 6.1722,1.68018 14.7168,1.60818 1.389,-1.39734 0.8351,-6.02266 2.5497,-6.93866 -0.7302,-2.06841 -1.3276,-5.23053 -2.4228,-6.56321 -1.0952,-1.33269 -12.7845,1.90447 -16.6598,0.66338 1.1672,-1.2611 3.1522,-2.98266 5.7744,-3.22166 1.8626,-1.4288 6.7247,-0.8362 9.04,-2.3173 2.6095,-1.2744 5.1205,-1.3693 6.8639,-5.5113 0.7829,-1.841 2.8023,-6.5337 1.6876,-9.2928 -2.6292,-5.7079 -7.3996,-7.8354 -11.4876,-10.9634 -1.7617,-0.788 -8.0648,-2.2141 -10.1456,-1.3254 -5.1127,-0.6282 -9.9763,-2.0656 -14.1002,2.508 -1.837,0.6315 -2.7349,3.2904 -3.5711,3.9706 -0.8384,1.6686 -7.129,6.2275 -7.129,6.2275 0,0 3.6437,0.942 5.0757,1.5565 2.5849,0.6842 7.2315,1.4615 10.0692,1.8652 0.917,-1.785 0.235,-1.6568 1.3508,-3.5991 0.7412,-1.1369 1.2963,-1.5481 2.5032,-2.5705 1.7016,-1.3604 3.1137,-0.1725 4.5623,-0.6981 1.8414,0.297 5.0837,1.8983 6.9374,2.1577 1.6635,1.1151 3.1115,3.2783 2.2787,4.5716 -0.2857,1.713 -0.635,3.9167 -4.724,4.1777 -2.0515,0.5645 -5.5088,-0.2791 -7.2509,1.1344 -1.8289,0.8186 -2.7235,1.5197 -4.1093,3.0429 -1.8128,1.42 -3.9898,3.8855 -4.6405,5.5302 -1.4612,2.47746 -10.1161,3.3721 -11.5002,7.93264 0.064,0.65616 4.2435,2.69736 4.8217,3.05406 2.3184,0.80589 7.6899,1.03488 10.0083,1.84078 l -10e-5,-1e-5 -10e-5,-2e-5 -2e-4,-1e-5 -10e-5,-10e-6 -10e-5,-1e-5 -10e-5,-2e-5 -2e-4,-10e-6 z"
           id="path4717"
           style="fill:#c8c8c8;fill-opacity:1;stroke:#e54d4c;stroke-width:0.95668167px;stroke-linecap:butt;stroke-linejoin:miter;stroke-opacity:1" />
        <path
           d="m 1516.3845,-384.57333 c 3.9873,0.9432 9.1347,1.78211 11.7513,1.34283 1.3082,-0.21964 6.8867,1.20263 12.2026,1.20788 1.1158,-3.39955 2.511,-9.12682 2.9045,-9.74016 0.7868,-1.22669 -9.4784,0.0801 -10.9803,-1.33891 -1.5018,-1.41901 -4.7045,-0.70342 -8.954,-1.71967 1.0368,-1.3702 2.8526,-3.0643 5.4384,-3.5612 1.7122,-1.6059 6.6091,-1.4966 8.7667,-3.1993 2.4708,-1.5261 3.8556,-3.6202 4.8136,-9.2735 -0.5549,-1.795 0.667,-5.2363 -0.7148,-7.8716 -3.1804,-5.4202 -5.1327,-4.9194 -10.1459,-6.9813 -1.831,-0.6101 -7.6656,-2.631 -9.6484,-1.541 -5.1498,-0.1199 -10.1315,-1.0696 -13.7833,3.8891 -1.7655,0.81 -2.3963,3.5446 -3.1612,4.3041 -0.6694,1.7433 -1.0154,3.1684 -1.172,5.0904 -0.3256,1.271 -0.8711,2.5508 -0.1019,2.8584 2.6398,0.4254 7.3404,0.7397 10.2042,0.861 0.7361,-1.8669 0.07,-1.6719 0.9886,-3.715 0.6251,-1.2045 1.1368,-1.6686 2.2368,-2.8053 1.5588,-1.5219 3.0814,-0.4793 4.471,-1.1456 1.8617,0.1136 5.2465,1.3867 7.1166,1.4616 1.7657,0.9453 3.4203,2.9547 2.7194,4.3241 -0.1148,1.7328 -0.2448,3.9602 -4.2879,4.624 -1.9858,0.7645 -5.5095,0.2667 -7.1033,1.8455 -1.7391,0.9953 -5.6196,2.18935 -6.8482,3.84205 -1.6635,1.5922 -4.7551,4.24947 -5.24,5.95047 -1.2092,2.6096 -2.666,4.90198 -3.5935,9.57683 0.1286,0.64663 1.3928,0.47111 2.0034,0.76894 2.3868,0.57283 7.731,0.37246 10.1178,0.9453 l 0,1e-5 -10e-5,10e-6 0,1e-5 z"
           id="path4719"
           style="fill:#ffffff;fill-opacity:1;stroke:#e54d4c;stroke-width:0.95668167px;stroke-linecap:butt;stroke-linejoin:miter;stroke-opacity:1" />
      </g>
    </g>
  </g>
</svg>
