<?xml version="1.0" encoding="UTF-8" standalone="no"?>
<!-- Created with Inkscape (http://www.inkscape.org/) -->

<svg
   xmlns:dc="http://purl.org/dc/elements/1.1/"
   xmlns:cc="http://creativecommons.org/ns#"
   xmlns:rdf="http://www.w3.org/1999/02/22-rdf-syntax-ns#"
   xmlns:svg="http://www.w3.org/2000/svg"
   xmlns="http://www.w3.org/2000/svg"
   version="1.1"
   width="78"
   height="78"
   id="svg3675">
  <defs
     id="defs3677" />
  <metadata
     id="metadata3680">
    <rdf:RDF>
      <cc:Work
         rdf:about="">
        <dc:format>image/svg+xml</dc:format>
        <dc:type
           rdf:resource="http://purl.org/dc/dcmitype/StillImage" />
        <dc:title></dc:title>
      </cc:Work>
    </rdf:RDF>
  </metadata>
  <g
     transform="translate(0,-974.36218)"
     id="layer1">
    <g
       transform="translate(-43.500003,-25.785759)"
       id="g3964">
      <path
         d="m 1739.9625,47.437702 a 117.48943,117.48943 0 1 1 -234.9789,0 117.48943,117.48943 0 1 1 234.9789,0 z"
         transform="matrix(0.33154724,0,0,0.33154724,-455.42645,1023.4201)"
         id="path3891"
         style="color:#000000;fill:#ff2a7f;fill-opacity:1;fill-rule:nonzero;stroke:none;stroke-width:0.5;marker:none;visibility:visible;display:inline;overflow:visible;enable-background:accumulate" />
      <path
         d="m 1739.9625,47.437702 a 117.48943,117.48943 0 1 1 -234.9789,0 117.48943,117.48943 0 1 1 234.9789,0 z"
         transform="matrix(0.14561301,0,0,0.03042194,-153.75315,1070.0356)"
         id="path3893"
         style="color:#000000;fill:#4f8270;fill-opacity:0.5098038;fill-rule:nonzero;stroke:none;stroke-width:0.5;marker:none;visibility:visible;display:inline;overflow:visible;enable-background:accumulate" />
      <path
         d="m 72.972653,1017.9099 c -1.2358,1.9512 -1.9805,3.8208 -3.1148,5.6189 -0.9634,1.5553 -0.9939,3.6629 -1.2624,4.6447 -1.5739,2.0593 -1.6704,4.4275 -3.2729,6.3946 -1.4547,1.1853 -11.1584,6.9555 -11.1584,6.9555 0,0 2.1884,2.2714 3.8624,4.0077 0,0 2.0451,10e-5 3.1071,0.01 1.845,-0.051 5.4242,0.2793 7.2631,0.1486 3.4279,-0.115 5.3041,-0.4687 8.1168,-0.01 3.3746,-0.3264 7.0061,-0.7834 9.6334,-0.3429 0.1331,1.2303 -0.9289,3.2784 -0.6651,5.1605 0.166,2.0695 -4.8809,5.7401 -5.119,7.6292 1.403,1.8415 3.9379,4.1345 3.9379,4.1345 0,0 1.767,-0.3965 2.7903,-0.1228 2.1119,-0.2078 3.9798,0.7269 6.1176,0.3756 1.1311,0.01 3.4223,-0.1486 3.4223,-0.1486 0,0 -0.097,-2.876 0.048,-3.9992 0.2151,-1.9836 -0.3039,-3.5243 -0.048,-5.4996 0,-2.0416 0.3928,-5.0639 0.3928,-7.0959 0.7319,-0.052 1.5465,-0.2973 2.7202,0.1655 1.846897,-0.091 1.643597,0.3871 3.586097,0.1317 1.9774,0 4.832,-0.2229 4.832,-0.2229 0,0 -0.4425,-3.9758 -0.4713,-6.4728 -0.4714,-1.7014 -0.7727,-4.8448 -0.8099,-4.8381 0,0 -2.4396,-2.543 -3.9443,-3.9507 -1.6297,1.2174 -4.695197,4.12 -4.695197,4.12 0,0 0.841,-7.612 0.9428,-11.1127 0.7037,-1.1933 0.3143,-5.4036 0.3143,-5.4036 0,0 -2.5438,-2.8493 -4.1477,-4.125 -1.3641,-0.4931 -5.9843,4.1111 -5.9843,4.1111 0,0 -0.5205,4.8321 -1.0849,6.85 -0.092,2.3867 -1.0627,9.7791 -1.0627,9.7791 0,0 -3.2955,0.02 -5.0135,-0.034 -1.1793,-0.3321 -5.978,-0.086 -5.978,-0.086 1.2455,-2.6833 1.767,-5.4409 2.849,-7.791 0.5083,-0.6289 1.7926,-4.1532 2.8257,-5.9054 0.7561,-2.1125 2.5368,-6.9969 2.5368,-6.9969 l -2.7395,-3.5173 c 0,0 -3.2679,3.5599 -5.3304,3.3401 -1.6504,1.3402 -2.0096,2.1281 -3.3963,4.0986 z"
         id="path3902"
         style="fill:#c8c8c8;fill-opacity:1;stroke:#e54d4c;stroke-width:0.99999994px;stroke-linecap:butt;stroke-linejoin:miter;stroke-opacity:1" />
      <path
         d="m 65.341753,1019.4256 c -0.9634,1.5553 -1.7552,3.7661 -2.6431,4.9543 -0.8513,2.0594 -1.8768,3.3953 -2.9632,5.8785 -0.6289,1.3917 -1.4853,3.3832 -2.3971,4.412 -1.3996,2.381 -1.8608,4.3746 -3.3118,6.8609 0,0 2.0451,10e-5 3.1071,0.01 1.845,-0.051 5.4242,0.2793 7.2631,0.1486 3.4279,-0.115 5.3041,-0.4687 8.1168,-0.01 3.3746,-0.3264 7.0061,-0.7834 9.6334,-0.3429 0.1331,1.2303 -0.9289,3.2784 -0.6651,5.1605 0.166,2.0695 -0.1309,2.9901 -0.369,4.8792 -0.597,1.9665 -0.8121,6.8845 -0.8121,6.8845 0,0 1.767,-0.3965 2.7903,-0.1228 2.1119,-0.2078 3.9798,0.7269 6.1176,0.3756 1.1311,0.01 3.4223,-0.1486 3.4223,-0.1486 0,0 -0.097,-2.876 0.048,-3.9992 0.2151,-1.9836 -0.3039,-3.5243 -0.048,-5.4996 0,-2.0416 0.3928,-5.0639 0.3928,-7.0959 0.7319,-0.052 1.5465,-0.2973 2.7202,0.1655 1.8469,-0.091 1.6436,0.3871 3.5861,0.1317 1.977397,0 4.831997,-0.2229 4.831997,-0.2229 0,0 -0.4425,-3.9758 -0.4713,-6.4728 -0.4714,-1.7014 -0.7727,-4.8448 -0.8099,-4.8381 0,0 -3.314597,0.332 -4.694297,0.2993 -1.3799,-0.033 -3.9452,-0.13 -3.9452,-0.13 0,0 0.841,-7.612 0.9428,-11.1127 0.7037,-1.1933 0.3143,-5.4036 0.3143,-5.4036 0,0 -3.5438,0.026 -5.6477,0 -1.3641,-0.4931 -4.4843,-0.014 -4.4843,-0.014 0,0 -0.5205,4.8321 -1.0849,6.85 -0.092,2.3867 -1.0627,9.7791 -1.0627,9.7791 0,0 -4.5342,0.2265 -6.2522,0.1722 -1.1793,-0.332 -4.9458,-0.1894 -4.9458,-0.1894 1.2455,-2.6832 1.2122,-2.8604 2.191,-5.4169 0.7104,-1.7426 2.1654,-4.263 3.5482,-7.2472 1.169,-2.5254 3.6078,-7.9259 3.6078,-7.9259 0,0 -4.3356,0.027 -6.0975,-0.3053 -2.4878,-0.1205 -2.8389,0.1414 -4.9014,-0.078 -1.6504,1.3402 -1.0418,2.0249 -2.4285,3.9953 -0.9447,1.9468 -1.6559,4.1531 -2.5987,5.6189 z"
         id="path3899"
         style="fill:#ffffff;fill-opacity:1;stroke:#e54d4c;stroke-width:0.99999994px;stroke-linecap:butt;stroke-linejoin:miter;stroke-opacity:1" />
    </g>
  </g>
</svg>
