<?xml version="1.0" encoding="UTF-8" standalone="no"?>
<!-- Created with Inkscape (http://www.inkscape.org/) -->

<svg
   xmlns:dc="http://purl.org/dc/elements/1.1/"
   xmlns:cc="http://creativecommons.org/ns#"
   xmlns:rdf="http://www.w3.org/1999/02/22-rdf-syntax-ns#"
   xmlns:svg="http://www.w3.org/2000/svg"
   xmlns="http://www.w3.org/2000/svg"
   version="1.1"
   width="78"
   height="78"
   id="svg3675">
  <defs
     id="defs3677" />
  <metadata
     id="metadata3680">
    <rdf:RDF>
      <cc:Work
         rdf:about="">
        <dc:format>image/svg+xml</dc:format>
        <dc:type
           rdf:resource="http://purl.org/dc/dcmitype/StillImage" />
        <dc:title></dc:title>
      </cc:Work>
    </rdf:RDF>
  </metadata>
  <g
     transform="translate(0,-974.36218)"
     id="layer1">
    <g
       transform="translate(-98.500003,98.142861)"
       id="g3931">
      <path
         d="m 1739.9625,47.437702 a 117.48943,117.48943 0 1 1 -234.9789,0 117.48943,117.48943 0 1 1 234.9789,0 z"
         transform="matrix(0.33154724,0,0,0.33154724,-400.42645,899.49148)"
         id="path4424-7"
         style="color:#000000;fill:#abc837;fill-opacity:1;fill-rule:nonzero;stroke:none;stroke-width:0.5;marker:none;visibility:visible;display:inline;overflow:visible;enable-background:accumulate" />
      <path
         d="m 1739.9625,47.437702 a 117.48943,117.48943 0 1 1 -234.9789,0 117.48943,117.48943 0 1 1 234.9789,0 z"
         transform="matrix(0.14561301,0,0,0.03042194,-98.753152,946.10704)"
         id="path4424-1-4"
         style="color:#000000;fill:#4f8270;fill-opacity:0.5098038;fill-rule:nonzero;stroke:none;stroke-width:0.5;marker:none;visibility:visible;display:inline;overflow:visible;enable-background:accumulate" />
      <path
         d="m 132.23805,890.90174 c 1.8946,0.14657 3.79,0.12966 5.6136,0.19896 3.0921,0.24529 6.1906,0.59696 9.2634,0.64744 1.4233,0.20448 2.9213,0.083 4.1301,0.0736 1.6119,0.17592 3.199,0.23423 4.7772,0.26001 1.541,0.17343 1.2917,-3.2697 2.7668,-3.26667 1.4775,1.3297 3.6478,3.71697 3.6478,3.71697 0,0 -0.042,1.89193 -0.085,3.15266 0.028,1.43517 -0.5054,2.72563 -0.5299,4.1572 -0.023,0.96461 -0.1747,3.30033 -0.1747,3.30033 0,0 -0.9534,0.7163 -1.0146,0.9639 -0.8355,0.5855 -4.2896,1.8294 -6.1229,2.8121 -2.0763,1.3315 -6.5621,3.0849 -6.5621,3.0849 0,0 4.1148,-0.2497 4.6385,0.5091 1.3192,1.3237 2.8337,2.9138 4.2036,4.5199 0.9317,1.2289 2.0257,2.3285 2.4955,3.3546 0.431,1.8427 1.0965,3.8224 0.541,5.7208 -0.273,1.7374 -0.2953,3.6919 -1.2321,5.1552 -0.8572,1.2485 -1.3228,2.4748 -2.4623,3.5282 -0.9374,1.3716 -2.8804,2.6335 -4.2324,2.9489 -1.2893,0.2184 -2.8615,1.2996 -4.2515,1.4457 -1.8439,0.4173 -2.449,0.2093 -4.3198,0.5856 -1.9346,0.3547 -3.0109,-0.062 -5.2186,0.2731 -2.0626,0.3367 -5.6879,-0.3579 -7.8582,-0.6023 -0.6657,-0.3309 -2.5703,-0.7867 -3.6901,-0.9409 -1.8161,-0.7111 -3.915,-1.7471 -5.7485,-2.3779 -1.5407,-0.5169 -2.7072,-2.2978 -4.219,-2.7208 -1.4109,-1.0745 -2.1477,-1.9496 -3.0006,-3.61 0.4593,-0.5254 0.8357,-1.0581 1.1641,-1.3329 0.8609,-1.7464 2.0099,-1.5098 2.9446,-3.346 0.8321,-0.6991 2.7395,-2.6633 2.7395,-2.6633 0,0 1.1471,1.8395 2.0806,2.1151 1.327,0.6257 1.8603,2.1094 3.5647,2.3164 1.7729,0.5677 2.6438,1.5395 4.5396,1.7385 1.5726,0.1618 2.956,1.1251 4.3999,0.9773 1.3936,-0.077 3.3294,0.03 4.6546,-0.3782 1.0055,-0.3187 1.993,-0.7039 2.8405,-1.2005 0.9558,-0.3521 1.4261,-1.2435 2.2564,-2.0805 0.6914,-0.7331 0.7086,-2.162 0.4726,-2.991 -0.044,-1.22 -0.9859,-1.6976 -1.1762,-2.7436 -0.6117,-0.7196 -0.9301,-1.1041 -1.6229,-1.7838 -0.3894,-0.354 -1.2646,-0.825 -2.1553,-1.305 -1.5697,-0.7437 -3.296,-1.083 -5.197,-1.4087 -1.6936,-0.3543 -3.5519,-0.4246 -5.352,-0.5936 -1.093,-0.1272 -3.4739,0.4239 -4.2294,-0.3588 -1.2834,-1.481 -2.4623,-2.6286 -3.8529,-3.9479 0.3818,-1.0481 8.4639,-2.0162 10.1851,-2.4374 2.5042,-0.3946 4.3491,-1.3794 6.8411,-1.951 2.587,-0.7589 1.9301,-0.617 4.3618,-1.5971 1.5771,-0.7459 4.7499,-1.58076 3.6177,-1.77914 -1.8627,-0.15899 -4.9838,-0.61666 -6.8463,-0.77845 -1.2192,0.11423 -2.7797,-0.11717 -4.2147,-0.21721 -2.2466,-0.19117 -8.929,-0.65317 -11.1573,-1.01082 -0.065,-0.94726 -4.0279,-3.09143 -3.8992,-4.13216 0.4949,-2.07802 4.531,-1.83275 5.2293,-4.22339 2.2181,-0.0678 4.696,-0.004 6.4561,0.22211 z"
         id="path3889"
         style="fill:#c8c8c8;fill-opacity:1;stroke:#e54d4c;stroke-width:1px;stroke-linecap:butt;stroke-linejoin:miter;stroke-opacity:1" />
      <path
         d="m 128.23805,886.90174 c 1.8946,0.14657 3.79,0.12966 5.6136,0.19896 3.0921,0.24529 6.1906,0.59696 9.2634,0.64744 1.4233,0.20448 2.9213,0.083 4.1301,0.0736 1.6119,0.17592 3.199,0.23423 4.7772,0.26001 1.541,0.17343 3.0512,0.2493 4.5263,0.25233 0.6495,-0.3263 1.8883,0.19797 1.8883,0.19797 0,0 -0.042,1.89193 -0.085,3.15266 0.028,1.43517 -0.5054,2.72563 -0.5299,4.1572 -0.023,0.96461 -0.1747,3.30038 -0.1747,3.30038 0,0 -0.9534,0.71627 -1.0146,0.96386 -0.8355,0.58551 -4.2896,1.82939 -6.1229,2.81209 -2.0763,1.3315 -6.5621,3.0849 -6.5621,3.0849 0,0 3.5973,1.1993 4.121,1.9581 2.0437,0.7027 3.3512,1.4648 4.7211,3.0709 0.9317,1.2289 2.0257,2.3285 2.4955,3.3546 0.431,1.8427 1.0965,3.8224 0.541,5.7208 -0.273,1.7374 -0.2953,3.6919 -1.2321,5.1552 -0.8572,1.2485 -1.3228,2.4748 -2.4623,3.5282 -0.9374,1.3716 -2.8804,2.6335 -4.2324,2.9489 -1.2893,0.2184 -2.8615,1.2996 -4.2515,1.4457 -1.8439,0.4173 -2.449,0.2093 -4.3198,0.5856 -1.9346,0.3547 -3.0109,-0.062 -5.2186,0.2731 -2.0626,0.3367 -5.6879,-0.3579 -7.8582,-0.6023 -0.6657,-0.3309 -2.5703,-0.7867 -3.6901,-0.9409 -1.8161,-0.7111 -3.915,-1.7471 -5.7485,-2.3779 -1.5407,-0.5169 -2.7072,-2.2978 -4.219,-2.7208 -1.4109,-1.0745 -2.1477,-1.9496 -3.0006,-3.61 0.4593,-0.5254 0.8357,-1.0581 1.1641,-1.3329 0.8609,-1.7464 2.0099,-1.5098 2.9446,-3.346 0.8321,-0.6991 2.7395,-2.6633 2.7395,-2.6633 0,0 1.1471,1.8395 2.0806,2.1151 1.327,0.6257 1.8603,2.1094 3.5647,2.3164 1.7729,0.5677 2.6438,1.5395 4.5396,1.7385 1.5726,0.1618 2.956,1.1251 4.3999,0.9773 1.3936,-0.077 3.3294,0.03 4.6546,-0.3782 1.0055,-0.3187 1.993,-0.7039 2.8405,-1.2005 0.9558,-0.3521 1.4261,-1.2435 2.2564,-2.0805 0.6914,-0.7331 0.7086,-2.162 0.4726,-2.991 -0.044,-1.22 -0.9859,-1.6976 -1.1762,-2.7436 -0.6117,-0.7196 -0.9301,-1.1041 -1.6229,-1.7838 -0.3894,-0.354 -1.2646,-0.825 -2.1553,-1.305 -1.5697,-0.7437 -3.296,-1.083 -5.197,-1.4087 -1.6936,-0.3543 -3.5519,-0.4246 -5.352,-0.5936 -1.093,-0.1272 -4.3019,0.6309 -4.2294,-0.3588 0.5331,-1.3544 0.4312,-3.3637 1.2186,-4.8794 1.4168,-0.1166 3.3924,-1.0847 5.1136,-1.5059 2.5042,-0.3946 4.3491,-1.37942 6.8411,-1.95096 2.587,-0.75891 1.9301,-0.61708 4.3618,-1.59716 1.5771,-0.7459 4.7499,-1.58074 3.6177,-1.77912 -1.8627,-0.15899 -4.9838,-0.61666 -6.8463,-0.77845 -1.2192,0.11423 -2.7797,-0.11717 -4.2147,-0.21721 -2.2466,-0.19117 -8.929,-0.65317 -11.1573,-1.01082 -0.065,-0.94726 0.5261,-2.36693 0.6548,-3.40766 0.4949,-2.07802 -0.023,-2.55725 0.6753,-4.94789 2.2181,-0.0678 4.696,-0.004 6.4561,0.22211 z"
         id="path3884"
         style="fill:#ffffff;fill-opacity:1;stroke:#e54d4c;stroke-width:1px;stroke-linecap:butt;stroke-linejoin:miter;stroke-opacity:1" />
    </g>
  </g>
</svg>
