<?xml version="1.0" encoding="UTF-8" standalone="no"?>
<!-- Created with Inkscape (http://www.inkscape.org/) -->

<svg
   xmlns:dc="http://purl.org/dc/elements/1.1/"
   xmlns:cc="http://creativecommons.org/ns#"
   xmlns:rdf="http://www.w3.org/1999/02/22-rdf-syntax-ns#"
   xmlns:svg="http://www.w3.org/2000/svg"
   xmlns="http://www.w3.org/2000/svg"
   version="1.1"
   width="424"
   height="32"
   id="svg4119">
  <defs
     id="defs4121" />
  <metadata
     id="metadata4124">
    <rdf:RDF>
      <cc:Work
         rdf:about="">
        <dc:format>image/svg+xml</dc:format>
        <dc:type
           rdf:resource="http://purl.org/dc/dcmitype/StillImage" />
        <dc:title></dc:title>
      </cc:Work>
    </rdf:RDF>
  </metadata>
  <g
     transform="translate(0,-1020.3622)"
     id="layer1">
    <g
       transform="translate(-839.42859,-383.85707)"
       id="g4148">
      <path
         d="m 866.68547,1207.4826 0,8.8918 171.75333,0 0,-8.8918 -171.75333,0 z"
         id="path4922"
         style="font-size:medium;font-style:normal;font-variant:normal;font-weight:normal;font-stretch:normal;text-indent:0;text-align:start;text-decoration:none;line-height:normal;letter-spacing:normal;word-spacing:normal;text-transform:none;direction:ltr;block-progression:tb;writing-mode:lr-tb;text-anchor:start;baseline-shift:baseline;color:#000000;fill:#f7db3c;fill-opacity:1;fill-rule:nonzero;stroke:#ffffff;stroke-width:1.99999988;stroke-miterlimit:4;stroke-opacity:1;stroke-dasharray:none;marker:none;visibility:visible;display:inline;overflow:visible;enable-background:accumulate;font-family:Sans;-inkscape-font-specification:Sans" />
      <path
         d="m 434.41041,268.71555 a 25.428902,25.428902 0 1 1 -50.85781,0 25.428902,25.428902 0 1 1 50.85781,0 z"
         transform="matrix(0.58379588,0,0,0.58752103,616.94244,1054.4861)"
         id="path4920"
         style="color:#000000;fill:#f7db3c;fill-opacity:1;fill-rule:nonzero;stroke:#ffffff;stroke-width:3.41497684;stroke-linecap:butt;stroke-linejoin:bevel;stroke-miterlimit:4;stroke-opacity:1;stroke-dasharray:none;stroke-dashoffset:0;marker:none;visibility:visible;display:inline;overflow:visible;enable-background:accumulate" />
      <path
         d="m 1065.5873,1207.4826 0,8.8918 171.7532,0 0,-8.8918 -171.7532,0 z"
         id="path4928"
         style="font-size:medium;font-style:normal;font-variant:normal;font-weight:normal;font-stretch:normal;text-indent:0;text-align:start;text-decoration:none;line-height:normal;letter-spacing:normal;word-spacing:normal;text-transform:none;direction:ltr;block-progression:tb;writing-mode:lr-tb;text-anchor:start;baseline-shift:baseline;color:#000000;fill:#f7db3c;fill-opacity:1;fill-rule:nonzero;stroke:#ffffff;stroke-width:1.99999988;stroke-miterlimit:4;stroke-opacity:1;stroke-dasharray:none;marker:none;visibility:visible;display:inline;overflow:visible;enable-background:accumulate;font-family:Sans;-inkscape-font-specification:Sans" />
      <path
         d="m 434.41041,268.71555 a 25.428902,25.428902 0 1 1 -50.85781,0 25.428902,25.428902 0 1 1 50.85781,0 z"
         transform="matrix(0.58379588,0,0,0.58752103,813.77127,1054.4861)"
         id="path4924"
         style="color:#000000;fill:#f7db3c;fill-opacity:1;fill-rule:nonzero;stroke:#ffffff;stroke-width:3.41497684;stroke-linecap:butt;stroke-linejoin:bevel;stroke-miterlimit:4;stroke-opacity:1;stroke-dasharray:none;stroke-dashoffset:0;marker:none;visibility:visible;display:inline;overflow:visible;enable-background:accumulate" />
      <path
         d="m 434.41041,268.71555 a 25.428902,25.428902 0 1 1 -50.85781,0 25.428902,25.428902 0 1 1 50.85781,0 z"
         transform="matrix(0.58379588,0,0,0.58752103,1008.3913,1054.4861)"
         id="path4930"
         style="color:#000000;fill:#ddcdfe;fill-opacity:1;fill-rule:nonzero;stroke:#ffffff;stroke-width:3.41497684;stroke-linecap:butt;stroke-linejoin:bevel;stroke-miterlimit:4;stroke-opacity:1;stroke-dasharray:none;stroke-dashoffset:0;marker:none;visibility:visible;display:inline;overflow:visible;enable-background:accumulate" />
      <path
         d="m 846.36157,1219.8263 c 0,0 4.5558,6.8306 13.2342,3.5032 7.1392,-2.7374 8.5634,-10.8988 6.6172,-15.959 -4.6709,-2.3355 -5.4494,5.8387 -7.7849,9.7311 -2.3354,3.8924 -12.0665,2.7247 -12.0665,2.7247 z"
         id="path4959"
         style="fill:#ca8c00;fill-opacity:0.37647059;stroke:none" />
      <path
         d="m 1044.0969,1219.8263 c 0,0 4.5558,6.8306 13.2342,3.5032 7.1392,-2.7374 8.5634,-10.8988 6.6172,-15.959 -4.6709,-2.3355 -5.4494,5.8387 -7.7849,9.7311 -2.3354,3.8924 -12.0665,2.7247 -12.0665,2.7247 z"
         id="path4961"
         style="fill:#ca8c00;fill-opacity:0.37647059;stroke:none" />
      <path
         d="m 1238.329,1219.8263 c 0,0 4.5558,6.8306 13.2342,3.5032 7.1392,-2.7374 8.5634,-10.8988 6.6172,-15.959 -4.6709,-2.3355 -5.4494,5.8387 -7.7849,9.7311 -2.3354,3.8924 -12.0665,2.7247 -12.0665,2.7247 z"
         id="path4963"
         style="fill:#ba98fd;fill-opacity:0.50588301;stroke:none" />
    </g>
    <g
       transform="translate(433.62487,165.57143)"
       id="g4197">
      <path
         d="m 33.632007,865.91116 0,8.8918 171.753303,0 0,-8.8918 -171.753303,0 z"
         id="path5117"
         style="font-size:medium;font-style:normal;font-variant:normal;font-weight:normal;font-stretch:normal;text-indent:0;text-align:start;text-decoration:none;line-height:normal;letter-spacing:normal;word-spacing:normal;text-transform:none;direction:ltr;block-progression:tb;writing-mode:lr-tb;text-anchor:start;baseline-shift:baseline;color:#000000;fill:#ddcdfe;fill-opacity:1;fill-rule:nonzero;stroke:#ffffff;stroke-width:1.99999988;stroke-miterlimit:4;stroke-opacity:1;stroke-dasharray:none;marker:none;visibility:visible;display:inline;overflow:visible;enable-background:accumulate;font-family:Sans;-inkscape-font-specification:Sans" />
      <path
         d="m 434.41041,268.71555 a 25.428902,25.428902 0 1 1 -50.85781,0 25.428902,25.428902 0 1 1 50.85781,0 z"
         transform="matrix(0.58379588,0,0,0.58752103,-216.11099,712.91474)"
         id="path5119"
         style="color:#000000;fill:#f7db3c;fill-opacity:1;fill-rule:nonzero;stroke:#ffffff;stroke-width:3.41497684;stroke-linecap:butt;stroke-linejoin:bevel;stroke-miterlimit:4;stroke-opacity:1;stroke-dasharray:none;stroke-dashoffset:0;marker:none;visibility:visible;display:inline;overflow:visible;enable-background:accumulate" />
      <path
         d="m 232.53381,865.91116 0,8.8918 171.7532,0 0,-8.8918 -171.7532,0 z"
         id="path5121"
         style="font-size:medium;font-style:normal;font-variant:normal;font-weight:normal;font-stretch:normal;text-indent:0;text-align:start;text-decoration:none;line-height:normal;letter-spacing:normal;word-spacing:normal;text-transform:none;direction:ltr;block-progression:tb;writing-mode:lr-tb;text-anchor:start;baseline-shift:baseline;color:#000000;fill:#ddcdfe;fill-opacity:1;fill-rule:nonzero;stroke:#ffffff;stroke-width:1.99999988;stroke-miterlimit:4;stroke-opacity:1;stroke-dasharray:none;marker:none;visibility:visible;display:inline;overflow:visible;enable-background:accumulate;font-family:Sans;-inkscape-font-specification:Sans" />
      <path
         d="m 434.41041,268.71555 a 25.428902,25.428902 0 1 1 -50.85781,0 25.428902,25.428902 0 1 1 50.85781,0 z"
         transform="matrix(0.58379588,0,0,0.58752103,-19.282193,712.91474)"
         id="path5123"
         style="color:#000000;fill:#ddcdfe;fill-opacity:1;fill-rule:nonzero;stroke:#ffffff;stroke-width:3.41497684;stroke-linecap:butt;stroke-linejoin:bevel;stroke-miterlimit:4;stroke-opacity:1;stroke-dasharray:none;stroke-dashoffset:0;marker:none;visibility:visible;display:inline;overflow:visible;enable-background:accumulate" />
      <path
         d="m 434.41041,268.71555 a 25.428902,25.428902 0 1 1 -50.85781,0 25.428902,25.428902 0 1 1 50.85781,0 z"
         transform="matrix(0.58379588,0,0,0.58752103,175.33781,712.91474)"
         id="path5125"
         style="color:#000000;fill:#ddcdfe;fill-opacity:1;fill-rule:nonzero;stroke:#ffffff;stroke-width:3.41497684;stroke-linecap:butt;stroke-linejoin:bevel;stroke-miterlimit:4;stroke-opacity:1;stroke-dasharray:none;stroke-dashoffset:0;marker:none;visibility:visible;display:inline;overflow:visible;enable-background:accumulate" />
      <path
         d="m 13.308107,878.25486 c 0,0 4.5558,6.8307 13.2342,3.5032 7.1392,-2.7374 8.5634,-10.8988 6.6172,-15.959 -4.6709,-2.3354 -5.4494,5.8387 -7.7849,9.7311 -2.3354,3.8924 -12.0665,2.7247 -12.0665,2.7247 z"
         id="path5135"
         style="fill:#ca8c00;fill-opacity:0.37647059;stroke:none" />
      <path
         d="m 211.04341,878.25486 c 0,0 4.5558,6.8307 13.2342,3.5032 7.1392,-2.7374 8.5634,-10.8988 6.6172,-15.959 -4.6709,-2.3354 -5.4494,5.8387 -7.7849,9.7311 -2.3354,3.8924 -12.0665,2.7247 -12.0665,2.7247 z"
         id="path5137"
         style="fill:#cbb2fd;fill-opacity:1;stroke:none" />
      <path
         d="m 405.27551,878.25486 c 0,0 4.5558,6.8307 13.2342,3.5032 7.1392,-2.7374 8.5634,-10.8988 6.6172,-15.959 -4.6709,-2.3354 -5.4494,5.8387 -7.7849,9.7311 -2.3354,3.8924 -12.0665,2.7247 -12.0665,2.7247 z"
         id="path5139"
         style="fill:#ba98fd;fill-opacity:0.50588301;stroke:none" />
    </g>
    <g
       transform="translate(-13.000003,81.142856)"
       id="g4246">
      <path
         d="m 40.256886,950.33973 0,8.8918 171.753304,0 0,-8.8918 -171.753304,0 z"
         id="path4922-9"
         style="font-size:medium;font-style:normal;font-variant:normal;font-weight:normal;font-stretch:normal;text-indent:0;text-align:start;text-decoration:none;line-height:normal;letter-spacing:normal;word-spacing:normal;text-transform:none;direction:ltr;block-progression:tb;writing-mode:lr-tb;text-anchor:start;baseline-shift:baseline;color:#000000;fill:#f7db3c;fill-opacity:1;fill-rule:nonzero;stroke:#ffffff;stroke-width:1.99999988;stroke-miterlimit:4;stroke-opacity:1;stroke-dasharray:none;marker:none;visibility:visible;display:inline;overflow:visible;enable-background:accumulate;font-family:Sans;-inkscape-font-specification:Sans" />
      <path
         d="m 434.41041,268.71555 a 25.428902,25.428902 0 1 1 -50.85781,0 25.428902,25.428902 0 1 1 50.85781,0 z"
         transform="matrix(0.58379588,0,0,0.58752103,-209.48612,797.34331)"
         id="path4920-8"
         style="color:#000000;fill:#f7db3c;fill-opacity:1;fill-rule:nonzero;stroke:#ffffff;stroke-width:3.41497684;stroke-linecap:butt;stroke-linejoin:bevel;stroke-miterlimit:4;stroke-opacity:1;stroke-dasharray:none;stroke-dashoffset:0;marker:none;visibility:visible;display:inline;overflow:visible;enable-background:accumulate" />
      <path
         d="m 239.15869,950.33973 0,8.8918 171.7532,0 0,-8.8918 -171.7532,0 z"
         id="path4928-6"
         style="font-size:medium;font-style:normal;font-variant:normal;font-weight:normal;font-stretch:normal;text-indent:0;text-align:start;text-decoration:none;line-height:normal;letter-spacing:normal;word-spacing:normal;text-transform:none;direction:ltr;block-progression:tb;writing-mode:lr-tb;text-anchor:start;baseline-shift:baseline;color:#000000;fill:#ddcdfe;fill-opacity:1;fill-rule:nonzero;stroke:#ffffff;stroke-width:1.99999988;stroke-miterlimit:4;stroke-opacity:1;stroke-dasharray:none;marker:none;visibility:visible;display:inline;overflow:visible;enable-background:accumulate;font-family:Sans;-inkscape-font-specification:Sans" />
      <path
         d="m 434.41041,268.71555 a 25.428902,25.428902 0 1 1 -50.85781,0 25.428902,25.428902 0 1 1 50.85781,0 z"
         transform="matrix(0.58379588,0,0,0.58752103,-12.657314,797.34331)"
         id="path4924-5"
         style="color:#000000;fill:#ddcdfe;fill-opacity:1;fill-rule:nonzero;stroke:#ffffff;stroke-width:3.41497684;stroke-linecap:butt;stroke-linejoin:bevel;stroke-miterlimit:4;stroke-opacity:1;stroke-dasharray:none;stroke-dashoffset:0;marker:none;visibility:visible;display:inline;overflow:visible;enable-background:accumulate" />
      <path
         d="m 434.41041,268.71555 a 25.428902,25.428902 0 1 1 -50.85781,0 25.428902,25.428902 0 1 1 50.85781,0 z"
         transform="matrix(0.58379588,0,0,0.58752103,181.96269,797.34331)"
         id="path4930-0"
         style="color:#000000;fill:#ddcdfe;fill-opacity:1;fill-rule:nonzero;stroke:#ffffff;stroke-width:3.41497684;stroke-linecap:butt;stroke-linejoin:bevel;stroke-miterlimit:4;stroke-opacity:1;stroke-dasharray:none;stroke-dashoffset:0;marker:none;visibility:visible;display:inline;overflow:visible;enable-background:accumulate" />
      <path
         d="m 19.932986,962.68343 c 0,0 4.5558,6.8307 13.2342,3.5032 7.1392,-2.7374 8.5634,-10.8988 6.6172,-15.959 -4.6709,-2.3354 -5.4494,5.8387 -7.7849,9.7311 -2.3354,3.8924 -12.0665,2.7247 -12.0665,2.7247 z"
         id="path4959-6"
         style="fill:#ca8c00;fill-opacity:0.37647059;stroke:none" />
      <path
         d="m 217.66829,962.68343 c 0,0 4.5558,6.8307 13.2342,3.5032 7.1392,-2.7374 8.5634,-10.8988 6.6172,-15.959 -4.6709,-2.3354 -5.4494,5.8387 -7.7849,9.7311 -2.3354,3.8924 -12.0665,2.7247 -12.0665,2.7247 z"
         id="path4961-5"
         style="fill:#cbb2fd;fill-opacity:1;stroke:none" />
      <path
         d="m 411.90039,962.68343 c 0,0 4.5558,6.8307 13.2342,3.5032 7.1392,-2.7374 8.5634,-10.8988 6.6172,-15.959 -4.6709,-2.3354 -5.4494,5.8387 -7.7849,9.7311 -2.3354,3.8924 -12.0665,2.7247 -12.0665,2.7247 z"
         id="path4963-0"
         style="fill:#ba98fd;fill-opacity:0.50588301;stroke:none" />
    </g>
    <g
       transform="translate(-839.42859,-303.85707)"
       id="g4256">
      <path
         d="m 866.68547,1207.4826 0,8.8918 171.75333,0 0,-8.8918 -171.75333,0 z"
         id="path4258"
         style="font-size:medium;font-style:normal;font-variant:normal;font-weight:normal;font-stretch:normal;text-indent:0;text-align:start;text-decoration:none;line-height:normal;letter-spacing:normal;word-spacing:normal;text-transform:none;direction:ltr;block-progression:tb;writing-mode:lr-tb;text-anchor:start;baseline-shift:baseline;color:#000000;fill:#f7db3c;fill-opacity:1;fill-rule:nonzero;stroke:#ffffff;stroke-width:1.99999988;stroke-miterlimit:4;stroke-opacity:1;stroke-dasharray:none;marker:none;visibility:visible;display:inline;overflow:visible;enable-background:accumulate;font-family:Sans;-inkscape-font-specification:Sans" />
      <path
         d="m 434.41041,268.71555 a 25.428902,25.428902 0 1 1 -50.85781,0 25.428902,25.428902 0 1 1 50.85781,0 z"
         transform="matrix(0.58379588,0,0,0.58752103,616.94244,1054.4861)"
         id="path4260"
         style="color:#000000;fill:#f7db3c;fill-opacity:1;fill-rule:nonzero;stroke:#ffffff;stroke-width:3.41497684;stroke-linecap:butt;stroke-linejoin:bevel;stroke-miterlimit:4;stroke-opacity:1;stroke-dasharray:none;stroke-dashoffset:0;marker:none;visibility:visible;display:inline;overflow:visible;enable-background:accumulate" />
      <path
         d="m 1065.5873,1207.4826 0,8.8918 171.7532,0 0,-8.8918 -171.7532,0 z"
         id="path4262"
         style="font-size:medium;font-style:normal;font-variant:normal;font-weight:normal;font-stretch:normal;text-indent:0;text-align:start;text-decoration:none;line-height:normal;letter-spacing:normal;word-spacing:normal;text-transform:none;direction:ltr;block-progression:tb;writing-mode:lr-tb;text-anchor:start;baseline-shift:baseline;color:#000000;fill:#f7db3c;fill-opacity:1;fill-rule:nonzero;stroke:#ffffff;stroke-width:1.99999988;stroke-miterlimit:4;stroke-opacity:1;stroke-dasharray:none;marker:none;visibility:visible;display:inline;overflow:visible;enable-background:accumulate;font-family:Sans;-inkscape-font-specification:Sans" />
      <path
         d="m 434.41041,268.71555 a 25.428902,25.428902 0 1 1 -50.85781,0 25.428902,25.428902 0 1 1 50.85781,0 z"
         transform="matrix(0.58379588,0,0,0.58752103,813.77127,1054.4861)"
         id="path4264"
         style="color:#000000;fill:#f7db3c;fill-opacity:1;fill-rule:nonzero;stroke:#ffffff;stroke-width:3.41497684;stroke-linecap:butt;stroke-linejoin:bevel;stroke-miterlimit:4;stroke-opacity:1;stroke-dasharray:none;stroke-dashoffset:0;marker:none;visibility:visible;display:inline;overflow:visible;enable-background:accumulate" />
      <path
         d="m 434.41041,268.71555 a 25.428902,25.428902 0 1 1 -50.85781,0 25.428902,25.428902 0 1 1 50.85781,0 z"
         transform="matrix(0.58379588,0,0,0.58752103,1008.3913,1054.4861)"
         id="path4266"
         style="color:#000000;fill:#f7db3c;fill-opacity:1;fill-rule:nonzero;stroke:#ffffff;stroke-width:3.41497684;stroke-linecap:butt;stroke-linejoin:bevel;stroke-miterlimit:4;stroke-opacity:1;stroke-dasharray:none;stroke-dashoffset:0;marker:none;visibility:visible;display:inline;overflow:visible;enable-background:accumulate" />
      <path
         d="m 846.36157,1219.8263 c 0,0 4.5558,6.8306 13.2342,3.5032 7.1392,-2.7374 8.5634,-10.8988 6.6172,-15.959 -4.6709,-2.3355 -5.4494,5.8387 -7.7849,9.7311 -2.3354,3.8924 -12.0665,2.7247 -12.0665,2.7247 z"
         id="path4268"
         style="fill:#ca8c00;fill-opacity:0.37647059;stroke:none" />
      <path
         d="m 1044.0969,1219.8263 c 0,0 4.5558,6.8306 13.2342,3.5032 7.1392,-2.7374 8.5634,-10.8988 6.6172,-15.959 -4.6709,-2.3355 -5.4494,5.8387 -7.7849,9.7311 -2.3354,3.8924 -12.0665,2.7247 -12.0665,2.7247 z"
         id="path4270"
         style="fill:#ca8c00;fill-opacity:0.37647059;stroke:none" />
      <path
         d="m 1238.329,1219.8263 c 0,0 4.5558,6.8306 13.2342,3.5032 7.1392,-2.7374 8.5634,-10.8988 6.6172,-15.959 -4.6709,-2.3355 -5.4494,5.8387 -7.7849,9.7311 -2.3354,3.8924 -12.0665,2.7247 -12.0665,2.7247 z"
         id="path4272"
         style="fill:#e6be25;fill-opacity:1;stroke:none" />
    </g>
  </g>
</svg>
