<?xml version="1.0" encoding="UTF-8" standalone="no"?>
<!-- Created with Inkscape (http://www.inkscape.org/) -->

<svg
   xmlns:dc="http://purl.org/dc/elements/1.1/"
   xmlns:cc="http://creativecommons.org/ns#"
   xmlns:rdf="http://www.w3.org/1999/02/22-rdf-syntax-ns#"
   xmlns:svg="http://www.w3.org/2000/svg"
   xmlns="http://www.w3.org/2000/svg"
   xmlns:sodipodi="http://sodipodi.sourceforge.net/DTD/sodipodi-0.dtd"
   xmlns:inkscape="http://www.inkscape.org/namespaces/inkscape"
   width="424"
   height="32"
   id="svg4119"
   version="1.1"
   inkscape:version="0.48.5 r10040"
   inkscape:export-filename="F:\C U R U B I T O\_producciones\TRANSMEDIA\Venturas emprendedores\02A.png"
   inkscape:export-xdpi="90"
   inkscape:export-ydpi="90"
   sodipodi:docname="pasos-ruta02A.svg">
  <defs
     id="defs4121" />
  <sodipodi:namedview
     id="base"
     pagecolor="#ffffff"
     bordercolor="#666666"
     borderopacity="1.0"
     inkscape:pageopacity="0.0"
     inkscape:pageshadow="2"
     inkscape:zoom="1.4"
     inkscape:cx="231.27892"
     inkscape:cy="181.57143"
     inkscape:document-units="px"
     inkscape:current-layer="layer1"
     showgrid="false"
     inkscape:window-width="1080"
     inkscape:window-height="893"
     inkscape:window-x="104"
     inkscape:window-y="104"
     inkscape:window-maximized="0" />
  <metadata
     id="metadata4124">
    <rdf:RDF>
      <cc:Work
         rdf:about="">
        <dc:format>image/svg+xml</dc:format>
        <dc:type
           rdf:resource="http://purl.org/dc/dcmitype/StillImage" />
        <dc:title></dc:title>
      </cc:Work>
    </rdf:RDF>
  </metadata>
  <g
     inkscape:label="Capa 1"
     inkscape:groupmode="layer"
     id="layer1"
     transform="translate(0,-1020.3622)">
    <g
       id="g4148"
       transform="translate(-400.85716,-100.99993)">
      <path
         inkscape:export-ydpi="90"
         inkscape:export-xdpi="90"
         inkscape:export-filename="E:\C U R U B I T O\_producciones\TRANSMEDIA\Venturas emprendedores\ruta05.png"
         inkscape:connector-curvature="0"
         id="path4922"
         d="m 866.68547,1207.4826 0,8.8918 171.75333,0 0,-8.8918 -171.75333,0 z"
         style="font-size:medium;font-style:normal;font-variant:normal;font-weight:normal;font-stretch:normal;text-indent:0;text-align:start;text-decoration:none;line-height:normal;letter-spacing:normal;word-spacing:normal;text-transform:none;direction:ltr;block-progression:tb;writing-mode:lr-tb;text-anchor:start;baseline-shift:baseline;color:#000000;fill:#f7db3c;fill-opacity:1;fill-rule:nonzero;stroke:#ffffff;stroke-width:1.99999988;stroke-miterlimit:4;stroke-opacity:1;stroke-dasharray:none;marker:none;visibility:visible;display:inline;overflow:visible;enable-background:accumulate;font-family:Sans;-inkscape-font-specification:Sans" />
      <path
         inkscape:export-ydpi="90"
         inkscape:export-xdpi="90"
         inkscape:export-filename="E:\C U R U B I T O\_producciones\TRANSMEDIA\Venturas emprendedores\ruta05.png"
         transform="matrix(0.58379588,0,0,0.58752103,616.94244,1054.4861)"
         d="m 434.41041,268.71555 c 0,14.04399 -11.38491,25.4289 -25.4289,25.4289 -14.044,0 -25.42891,-11.38491 -25.42891,-25.4289 0,-14.044 11.38491,-25.42891 25.42891,-25.42891 14.04399,0 25.4289,11.38491 25.4289,25.42891 z"
         sodipodi:ry="25.428902"
         sodipodi:rx="25.428902"
         sodipodi:cy="268.71555"
         sodipodi:cx="408.98151"
         id="path4920"
         style="color:#000000;fill:#f7db3c;fill-opacity:1;fill-rule:nonzero;stroke:#ffffff;stroke-width:3.41497684;stroke-linecap:butt;stroke-linejoin:bevel;stroke-miterlimit:4;stroke-opacity:1;stroke-dasharray:none;stroke-dashoffset:0;marker:none;visibility:visible;display:inline;overflow:visible;enable-background:accumulate"
         sodipodi:type="arc" />
      <path
         inkscape:export-ydpi="90"
         inkscape:export-xdpi="90"
         inkscape:export-filename="E:\C U R U B I T O\_producciones\TRANSMEDIA\Venturas emprendedores\ruta05.png"
         style="font-size:medium;font-style:normal;font-variant:normal;font-weight:normal;font-stretch:normal;text-indent:0;text-align:start;text-decoration:none;line-height:normal;letter-spacing:normal;word-spacing:normal;text-transform:none;direction:ltr;block-progression:tb;writing-mode:lr-tb;text-anchor:start;baseline-shift:baseline;color:#000000;fill:#f7db3c;fill-opacity:1;fill-rule:nonzero;stroke:#ffffff;stroke-width:1.99999988;stroke-miterlimit:4;stroke-opacity:1;stroke-dasharray:none;marker:none;visibility:visible;display:inline;overflow:visible;enable-background:accumulate;font-family:Sans;-inkscape-font-specification:Sans"
         d="m 1065.5873,1207.4826 0,8.8918 171.7532,0 0,-8.8918 -171.7532,0 z"
         id="path4928"
         inkscape:connector-curvature="0" />
      <path
         inkscape:export-ydpi="90"
         inkscape:export-xdpi="90"
         inkscape:export-filename="E:\C U R U B I T O\_producciones\TRANSMEDIA\Venturas emprendedores\ruta05.png"
         sodipodi:type="arc"
         style="color:#000000;fill:#f7db3c;fill-opacity:1;fill-rule:nonzero;stroke:#ffffff;stroke-width:3.41497684;stroke-linecap:butt;stroke-linejoin:bevel;stroke-miterlimit:4;stroke-opacity:1;stroke-dasharray:none;stroke-dashoffset:0;marker:none;visibility:visible;display:inline;overflow:visible;enable-background:accumulate"
         id="path4924"
         sodipodi:cx="408.98151"
         sodipodi:cy="268.71555"
         sodipodi:rx="25.428902"
         sodipodi:ry="25.428902"
         d="m 434.41041,268.71555 c 0,14.04399 -11.38491,25.4289 -25.4289,25.4289 -14.044,0 -25.42891,-11.38491 -25.42891,-25.4289 0,-14.044 11.38491,-25.42891 25.42891,-25.42891 14.04399,0 25.4289,11.38491 25.4289,25.42891 z"
         transform="matrix(0.58379588,0,0,0.58752103,813.77127,1054.4861)" />
      <path
         inkscape:export-ydpi="90"
         inkscape:export-xdpi="90"
         inkscape:export-filename="E:\C U R U B I T O\_producciones\TRANSMEDIA\Venturas emprendedores\ruta05.png"
         transform="matrix(0.58379588,0,0,0.58752103,1008.3913,1054.4861)"
         d="m 434.41041,268.71555 c 0,14.04399 -11.38491,25.4289 -25.4289,25.4289 -14.044,0 -25.42891,-11.38491 -25.42891,-25.4289 0,-14.044 11.38491,-25.42891 25.42891,-25.42891 14.04399,0 25.4289,11.38491 25.4289,25.42891 z"
         sodipodi:ry="25.428902"
         sodipodi:rx="25.428902"
         sodipodi:cy="268.71555"
         sodipodi:cx="408.98151"
         id="path4930"
         style="color:#000000;fill:#ddcdfe;fill-opacity:1;fill-rule:nonzero;stroke:#ffffff;stroke-width:3.41497684;stroke-linecap:butt;stroke-linejoin:bevel;stroke-miterlimit:4;stroke-opacity:1;stroke-dasharray:none;stroke-dashoffset:0;marker:none;visibility:visible;display:inline;overflow:visible;enable-background:accumulate"
         sodipodi:type="arc" />
      <path
         inkscape:export-ydpi="90"
         inkscape:export-xdpi="90"
         inkscape:export-filename="E:\C U R U B I T O\_producciones\TRANSMEDIA\Venturas emprendedores\ruta05.png"
         sodipodi:nodetypes="csccc"
         inkscape:connector-curvature="0"
         id="path4959"
         d="m 846.36157,1219.8263 c 0,0 4.5558,6.8306 13.2342,3.5032 7.1392,-2.7374 8.5634,-10.8988 6.6172,-15.959 -4.6709,-2.3355 -5.4494,5.8387 -7.7849,9.7311 -2.3354,3.8924 -12.0665,2.7247 -12.0665,2.7247 z"
         style="fill:#ca8c00;fill-opacity:0.37647059;stroke:none" />
      <path
         inkscape:export-ydpi="90"
         inkscape:export-xdpi="90"
         inkscape:export-filename="E:\C U R U B I T O\_producciones\TRANSMEDIA\Venturas emprendedores\ruta05.png"
         style="fill:#ca8c00;fill-opacity:0.37647059;stroke:none"
         d="m 1044.0969,1219.8263 c 0,0 4.5558,6.8306 13.2342,3.5032 7.1392,-2.7374 8.5634,-10.8988 6.6172,-15.959 -4.6709,-2.3355 -5.4494,5.8387 -7.7849,9.7311 -2.3354,3.8924 -12.0665,2.7247 -12.0665,2.7247 z"
         id="path4961"
         inkscape:connector-curvature="0"
         sodipodi:nodetypes="csccc" />
      <path
         inkscape:export-ydpi="90"
         inkscape:export-xdpi="90"
         inkscape:export-filename="E:\C U R U B I T O\_producciones\TRANSMEDIA\Venturas emprendedores\ruta05.png"
         sodipodi:nodetypes="csccc"
         inkscape:connector-curvature="0"
         id="path4963"
         d="m 1238.329,1219.8263 c 0,0 4.5558,6.8306 13.2342,3.5032 7.1392,-2.7374 8.5634,-10.8988 6.6172,-15.959 -4.6709,-2.3355 -5.4494,5.8387 -7.7849,9.7311 -2.3354,3.8924 -12.0665,2.7247 -12.0665,2.7247 z"
         style="fill:#ba98fd;fill-opacity:0.50588301;stroke:none" />
    </g>
    <g
       id="g4197"
       transform="translate(433.62487,165.57143)">
      <path
         inkscape:export-ydpi="90"
         inkscape:export-xdpi="90"
         inkscape:export-filename="E:\C U R U B I T O\_producciones\TRANSMEDIA\Venturas emprendedores\ruta03.png"
         style="font-size:medium;font-style:normal;font-variant:normal;font-weight:normal;font-stretch:normal;text-indent:0;text-align:start;text-decoration:none;line-height:normal;letter-spacing:normal;word-spacing:normal;text-transform:none;direction:ltr;block-progression:tb;writing-mode:lr-tb;text-anchor:start;baseline-shift:baseline;color:#000000;fill:#ddcdfe;fill-opacity:1;fill-rule:nonzero;stroke:#ffffff;stroke-width:1.99999988;stroke-miterlimit:4;stroke-opacity:1;stroke-dasharray:none;marker:none;visibility:visible;display:inline;overflow:visible;enable-background:accumulate;font-family:Sans;-inkscape-font-specification:Sans"
         d="m 33.632007,865.91116 0,8.8918 171.753303,0 0,-8.8918 -171.753303,0 z"
         id="path5117"
         inkscape:connector-curvature="0" />
      <path
         inkscape:export-ydpi="90"
         inkscape:export-xdpi="90"
         inkscape:export-filename="E:\C U R U B I T O\_producciones\TRANSMEDIA\Venturas emprendedores\ruta03.png"
         sodipodi:type="arc"
         style="color:#000000;fill:#f7db3c;fill-opacity:1;fill-rule:nonzero;stroke:#ffffff;stroke-width:3.41497684;stroke-linecap:butt;stroke-linejoin:bevel;stroke-miterlimit:4;stroke-opacity:1;stroke-dasharray:none;stroke-dashoffset:0;marker:none;visibility:visible;display:inline;overflow:visible;enable-background:accumulate"
         id="path5119"
         sodipodi:cx="408.98151"
         sodipodi:cy="268.71555"
         sodipodi:rx="25.428902"
         sodipodi:ry="25.428902"
         d="m 434.41041,268.71555 c 0,14.04399 -11.38491,25.4289 -25.4289,25.4289 -14.044,0 -25.42891,-11.38491 -25.42891,-25.4289 0,-14.044 11.38491,-25.42891 25.42891,-25.42891 14.04399,0 25.4289,11.38491 25.4289,25.42891 z"
         transform="matrix(0.58379588,0,0,0.58752103,-216.11099,712.91474)" />
      <path
         inkscape:export-ydpi="90"
         inkscape:export-xdpi="90"
         inkscape:export-filename="E:\C U R U B I T O\_producciones\TRANSMEDIA\Venturas emprendedores\ruta03.png"
         inkscape:connector-curvature="0"
         id="path5121"
         d="m 232.53381,865.91116 0,8.8918 171.7532,0 0,-8.8918 -171.7532,0 z"
         style="font-size:medium;font-style:normal;font-variant:normal;font-weight:normal;font-stretch:normal;text-indent:0;text-align:start;text-decoration:none;line-height:normal;letter-spacing:normal;word-spacing:normal;text-transform:none;direction:ltr;block-progression:tb;writing-mode:lr-tb;text-anchor:start;baseline-shift:baseline;color:#000000;fill:#ddcdfe;fill-opacity:1;fill-rule:nonzero;stroke:#ffffff;stroke-width:1.99999988;stroke-miterlimit:4;stroke-opacity:1;stroke-dasharray:none;marker:none;visibility:visible;display:inline;overflow:visible;enable-background:accumulate;font-family:Sans;-inkscape-font-specification:Sans" />
      <path
         inkscape:export-ydpi="90"
         inkscape:export-xdpi="90"
         inkscape:export-filename="E:\C U R U B I T O\_producciones\TRANSMEDIA\Venturas emprendedores\ruta03.png"
         transform="matrix(0.58379588,0,0,0.58752103,-19.282193,712.91474)"
         d="m 434.41041,268.71555 c 0,14.04399 -11.38491,25.4289 -25.4289,25.4289 -14.044,0 -25.42891,-11.38491 -25.42891,-25.4289 0,-14.044 11.38491,-25.42891 25.42891,-25.42891 14.04399,0 25.4289,11.38491 25.4289,25.42891 z"
         sodipodi:ry="25.428902"
         sodipodi:rx="25.428902"
         sodipodi:cy="268.71555"
         sodipodi:cx="408.98151"
         id="path5123"
         style="color:#000000;fill:#ddcdfe;fill-opacity:1;fill-rule:nonzero;stroke:#ffffff;stroke-width:3.41497684;stroke-linecap:butt;stroke-linejoin:bevel;stroke-miterlimit:4;stroke-opacity:1;stroke-dasharray:none;stroke-dashoffset:0;marker:none;visibility:visible;display:inline;overflow:visible;enable-background:accumulate"
         sodipodi:type="arc" />
      <path
         inkscape:export-ydpi="90"
         inkscape:export-xdpi="90"
         inkscape:export-filename="E:\C U R U B I T O\_producciones\TRANSMEDIA\Venturas emprendedores\ruta03.png"
         sodipodi:type="arc"
         style="color:#000000;fill:#ddcdfe;fill-opacity:1;fill-rule:nonzero;stroke:#ffffff;stroke-width:3.41497684;stroke-linecap:butt;stroke-linejoin:bevel;stroke-miterlimit:4;stroke-opacity:1;stroke-dasharray:none;stroke-dashoffset:0;marker:none;visibility:visible;display:inline;overflow:visible;enable-background:accumulate"
         id="path5125"
         sodipodi:cx="408.98151"
         sodipodi:cy="268.71555"
         sodipodi:rx="25.428902"
         sodipodi:ry="25.428902"
         d="m 434.41041,268.71555 c 0,14.04399 -11.38491,25.4289 -25.4289,25.4289 -14.044,0 -25.42891,-11.38491 -25.42891,-25.4289 0,-14.044 11.38491,-25.42891 25.42891,-25.42891 14.04399,0 25.4289,11.38491 25.4289,25.42891 z"
         transform="matrix(0.58379588,0,0,0.58752103,175.33781,712.91474)" />
      <path
         inkscape:export-ydpi="90"
         inkscape:export-xdpi="90"
         inkscape:export-filename="E:\C U R U B I T O\_producciones\TRANSMEDIA\Venturas emprendedores\ruta03.png"
         style="fill:#ca8c00;fill-opacity:0.37647059;stroke:none"
         d="m 13.308107,878.25486 c 0,0 4.5558,6.8307 13.2342,3.5032 7.1392,-2.7374 8.5634,-10.8988 6.6172,-15.959 -4.6709,-2.3354 -5.4494,5.8387 -7.7849,9.7311 -2.3354,3.8924 -12.0665,2.7247 -12.0665,2.7247 z"
         id="path5135"
         inkscape:connector-curvature="0"
         sodipodi:nodetypes="csccc" />
      <path
         inkscape:export-ydpi="90"
         inkscape:export-xdpi="90"
         inkscape:export-filename="E:\C U R U B I T O\_producciones\TRANSMEDIA\Venturas emprendedores\ruta03.png"
         sodipodi:nodetypes="csccc"
         inkscape:connector-curvature="0"
         id="path5137"
         d="m 211.04341,878.25486 c 0,0 4.5558,6.8307 13.2342,3.5032 7.1392,-2.7374 8.5634,-10.8988 6.6172,-15.959 -4.6709,-2.3354 -5.4494,5.8387 -7.7849,9.7311 -2.3354,3.8924 -12.0665,2.7247 -12.0665,2.7247 z"
         style="fill:#cbb2fd;fill-opacity:1;stroke:none" />
      <path
         inkscape:export-filename="E:\C U R U B I T O\_producciones\TRANSMEDIA\Venturas emprendedores\ruta03.png"
         inkscape:export-ydpi="90"
         inkscape:export-xdpi="90"
         style="fill:#ba98fd;fill-opacity:0.50588301;stroke:none"
         d="m 405.27551,878.25486 c 0,0 4.5558,6.8307 13.2342,3.5032 7.1392,-2.7374 8.5634,-10.8988 6.6172,-15.959 -4.6709,-2.3354 -5.4494,5.8387 -7.7849,9.7311 -2.3354,3.8924 -12.0665,2.7247 -12.0665,2.7247 z"
         id="path5139"
         inkscape:connector-curvature="0"
         sodipodi:nodetypes="csccc" />
    </g>
    <g
       id="g4246"
       transform="translate(427,113.28571)">
      <path
         inkscape:export-ydpi="90"
         inkscape:export-xdpi="90"
         inkscape:export-filename="E:\C U R U B I T O\_producciones\TRANSMEDIA\Venturas emprendedores\ruta04.png"
         inkscape:connector-curvature="0"
         id="path4922-9"
         d="m 40.256886,950.33973 0,8.8918 171.753304,0 0,-8.8918 -171.753304,0 z"
         style="font-size:medium;font-style:normal;font-variant:normal;font-weight:normal;font-stretch:normal;text-indent:0;text-align:start;text-decoration:none;line-height:normal;letter-spacing:normal;word-spacing:normal;text-transform:none;direction:ltr;block-progression:tb;writing-mode:lr-tb;text-anchor:start;baseline-shift:baseline;color:#000000;fill:#f7db3c;fill-opacity:1;fill-rule:nonzero;stroke:#ffffff;stroke-width:1.99999988;stroke-miterlimit:4;stroke-opacity:1;stroke-dasharray:none;marker:none;visibility:visible;display:inline;overflow:visible;enable-background:accumulate;font-family:Sans;-inkscape-font-specification:Sans" />
      <path
         inkscape:export-ydpi="90"
         inkscape:export-xdpi="90"
         inkscape:export-filename="E:\C U R U B I T O\_producciones\TRANSMEDIA\Venturas emprendedores\ruta04.png"
         transform="matrix(0.58379588,0,0,0.58752103,-209.48612,797.34331)"
         d="m 434.41041,268.71555 c 0,14.04399 -11.38491,25.4289 -25.4289,25.4289 -14.044,0 -25.42891,-11.38491 -25.42891,-25.4289 0,-14.044 11.38491,-25.42891 25.42891,-25.42891 14.04399,0 25.4289,11.38491 25.4289,25.42891 z"
         sodipodi:ry="25.428902"
         sodipodi:rx="25.428902"
         sodipodi:cy="268.71555"
         sodipodi:cx="408.98151"
         id="path4920-8"
         style="color:#000000;fill:#f7db3c;fill-opacity:1;fill-rule:nonzero;stroke:#ffffff;stroke-width:3.41497684;stroke-linecap:butt;stroke-linejoin:bevel;stroke-miterlimit:4;stroke-opacity:1;stroke-dasharray:none;stroke-dashoffset:0;marker:none;visibility:visible;display:inline;overflow:visible;enable-background:accumulate"
         sodipodi:type="arc" />
      <path
         inkscape:export-ydpi="90"
         inkscape:export-xdpi="90"
         inkscape:export-filename="E:\C U R U B I T O\_producciones\TRANSMEDIA\Venturas emprendedores\ruta04.png"
         style="font-size:medium;font-style:normal;font-variant:normal;font-weight:normal;font-stretch:normal;text-indent:0;text-align:start;text-decoration:none;line-height:normal;letter-spacing:normal;word-spacing:normal;text-transform:none;direction:ltr;block-progression:tb;writing-mode:lr-tb;text-anchor:start;baseline-shift:baseline;color:#000000;fill:#ddcdfe;fill-opacity:1;fill-rule:nonzero;stroke:#ffffff;stroke-width:1.99999988;stroke-miterlimit:4;stroke-opacity:1;stroke-dasharray:none;marker:none;visibility:visible;display:inline;overflow:visible;enable-background:accumulate;font-family:Sans;-inkscape-font-specification:Sans"
         d="m 239.15869,950.33973 0,8.8918 171.7532,0 0,-8.8918 -171.7532,0 z"
         id="path4928-6"
         inkscape:connector-curvature="0" />
      <path
         inkscape:export-ydpi="90"
         inkscape:export-xdpi="90"
         inkscape:export-filename="E:\C U R U B I T O\_producciones\TRANSMEDIA\Venturas emprendedores\ruta04.png"
         sodipodi:type="arc"
         style="color:#000000;fill:#ddcdfe;fill-opacity:1;fill-rule:nonzero;stroke:#ffffff;stroke-width:3.41497684;stroke-linecap:butt;stroke-linejoin:bevel;stroke-miterlimit:4;stroke-opacity:1;stroke-dasharray:none;stroke-dashoffset:0;marker:none;visibility:visible;display:inline;overflow:visible;enable-background:accumulate"
         id="path4924-5"
         sodipodi:cx="408.98151"
         sodipodi:cy="268.71555"
         sodipodi:rx="25.428902"
         sodipodi:ry="25.428902"
         d="m 434.41041,268.71555 c 0,14.04399 -11.38491,25.4289 -25.4289,25.4289 -14.044,0 -25.42891,-11.38491 -25.42891,-25.4289 0,-14.044 11.38491,-25.42891 25.42891,-25.42891 14.04399,0 25.4289,11.38491 25.4289,25.42891 z"
         transform="matrix(0.58379588,0,0,0.58752103,-12.657314,797.34331)" />
      <path
         inkscape:export-ydpi="90"
         inkscape:export-xdpi="90"
         inkscape:export-filename="E:\C U R U B I T O\_producciones\TRANSMEDIA\Venturas emprendedores\ruta04.png"
         transform="matrix(0.58379588,0,0,0.58752103,181.96269,797.34331)"
         d="m 434.41041,268.71555 c 0,14.04399 -11.38491,25.4289 -25.4289,25.4289 -14.044,0 -25.42891,-11.38491 -25.42891,-25.4289 0,-14.044 11.38491,-25.42891 25.42891,-25.42891 14.04399,0 25.4289,11.38491 25.4289,25.42891 z"
         sodipodi:ry="25.428902"
         sodipodi:rx="25.428902"
         sodipodi:cy="268.71555"
         sodipodi:cx="408.98151"
         id="path4930-0"
         style="color:#000000;fill:#ddcdfe;fill-opacity:1;fill-rule:nonzero;stroke:#ffffff;stroke-width:3.41497684;stroke-linecap:butt;stroke-linejoin:bevel;stroke-miterlimit:4;stroke-opacity:1;stroke-dasharray:none;stroke-dashoffset:0;marker:none;visibility:visible;display:inline;overflow:visible;enable-background:accumulate"
         sodipodi:type="arc" />
      <path
         inkscape:export-ydpi="90"
         inkscape:export-xdpi="90"
         inkscape:export-filename="E:\C U R U B I T O\_producciones\TRANSMEDIA\Venturas emprendedores\ruta04.png"
         sodipodi:nodetypes="csccc"
         inkscape:connector-curvature="0"
         id="path4959-6"
         d="m 19.932986,962.68343 c 0,0 4.5558,6.8307 13.2342,3.5032 7.1392,-2.7374 8.5634,-10.8988 6.6172,-15.959 -4.6709,-2.3354 -5.4494,5.8387 -7.7849,9.7311 -2.3354,3.8924 -12.0665,2.7247 -12.0665,2.7247 z"
         style="fill:#ca8c00;fill-opacity:0.37647059;stroke:none" />
      <path
         inkscape:export-ydpi="90"
         inkscape:export-xdpi="90"
         inkscape:export-filename="E:\C U R U B I T O\_producciones\TRANSMEDIA\Venturas emprendedores\ruta04.png"
         style="fill:#cbb2fd;fill-opacity:1;stroke:none"
         d="m 217.66829,962.68343 c 0,0 4.5558,6.8307 13.2342,3.5032 7.1392,-2.7374 8.5634,-10.8988 6.6172,-15.959 -4.6709,-2.3354 -5.4494,5.8387 -7.7849,9.7311 -2.3354,3.8924 -12.0665,2.7247 -12.0665,2.7247 z"
         id="path4961-5"
         inkscape:connector-curvature="0"
         sodipodi:nodetypes="csccc" />
      <path
         inkscape:export-ydpi="90"
         inkscape:export-xdpi="90"
         inkscape:export-filename="E:\C U R U B I T O\_producciones\TRANSMEDIA\Venturas emprendedores\ruta04.png"
         sodipodi:nodetypes="csccc"
         inkscape:connector-curvature="0"
         id="path4963-0"
         d="m 411.90039,962.68343 c 0,0 4.5558,6.8307 13.2342,3.5032 7.1392,-2.7374 8.5634,-10.8988 6.6172,-15.959 -4.6709,-2.3354 -5.4494,5.8387 -7.7849,9.7311 -2.3354,3.8924 -12.0665,2.7247 -12.0665,2.7247 z"
         style="fill:#ba98fd;fill-opacity:0.50588301;stroke:none" />
    </g>
    <g
       transform="translate(-839.42859,-175.99993)"
       id="g4256">
      <path
         style="font-size:medium;font-style:normal;font-variant:normal;font-weight:normal;font-stretch:normal;text-indent:0;text-align:start;text-decoration:none;line-height:normal;letter-spacing:normal;word-spacing:normal;text-transform:none;direction:ltr;block-progression:tb;writing-mode:lr-tb;text-anchor:start;baseline-shift:baseline;color:#000000;fill:#f7db3c;fill-opacity:1;fill-rule:nonzero;stroke:#ffffff;stroke-width:1.99999988;stroke-miterlimit:4;stroke-opacity:1;stroke-dasharray:none;marker:none;visibility:visible;display:inline;overflow:visible;enable-background:accumulate;font-family:Sans;-inkscape-font-specification:Sans"
         d="m 866.68547,1207.4826 0,8.8918 171.75333,0 0,-8.8918 -171.75333,0 z"
         id="path4258"
         inkscape:connector-curvature="0"
         inkscape:export-filename="E:\C U R U B I T O\_producciones\TRANSMEDIA\Venturas emprendedores\ruta05.png"
         inkscape:export-xdpi="90"
         inkscape:export-ydpi="90" />
      <path
         sodipodi:type="arc"
         style="color:#000000;fill:#f7db3c;fill-opacity:1;fill-rule:nonzero;stroke:#ffffff;stroke-width:3.41497684;stroke-linecap:butt;stroke-linejoin:bevel;stroke-miterlimit:4;stroke-opacity:1;stroke-dasharray:none;stroke-dashoffset:0;marker:none;visibility:visible;display:inline;overflow:visible;enable-background:accumulate"
         id="path4260"
         sodipodi:cx="408.98151"
         sodipodi:cy="268.71555"
         sodipodi:rx="25.428902"
         sodipodi:ry="25.428902"
         d="m 434.41041,268.71555 c 0,14.04399 -11.38491,25.4289 -25.4289,25.4289 -14.044,0 -25.42891,-11.38491 -25.42891,-25.4289 0,-14.044 11.38491,-25.42891 25.42891,-25.42891 14.04399,0 25.4289,11.38491 25.4289,25.42891 z"
         transform="matrix(0.58379588,0,0,0.58752103,616.94244,1054.4861)"
         inkscape:export-filename="E:\C U R U B I T O\_producciones\TRANSMEDIA\Venturas emprendedores\ruta05.png"
         inkscape:export-xdpi="90"
         inkscape:export-ydpi="90" />
      <path
         inkscape:connector-curvature="0"
         id="path4262"
         d="m 1065.5873,1207.4826 0,8.8918 171.7532,0 0,-8.8918 -171.7532,0 z"
         style="font-size:medium;font-style:normal;font-variant:normal;font-weight:normal;font-stretch:normal;text-indent:0;text-align:start;text-decoration:none;line-height:normal;letter-spacing:normal;word-spacing:normal;text-transform:none;direction:ltr;block-progression:tb;writing-mode:lr-tb;text-anchor:start;baseline-shift:baseline;color:#000000;fill:#f7db3c;fill-opacity:1;fill-rule:nonzero;stroke:#ffffff;stroke-width:1.99999988;stroke-miterlimit:4;stroke-opacity:1;stroke-dasharray:none;marker:none;visibility:visible;display:inline;overflow:visible;enable-background:accumulate;font-family:Sans;-inkscape-font-specification:Sans"
         inkscape:export-filename="E:\C U R U B I T O\_producciones\TRANSMEDIA\Venturas emprendedores\ruta05.png"
         inkscape:export-xdpi="90"
         inkscape:export-ydpi="90" />
      <path
         transform="matrix(0.58379588,0,0,0.58752103,813.77127,1054.4861)"
         d="m 434.41041,268.71555 c 0,14.04399 -11.38491,25.4289 -25.4289,25.4289 -14.044,0 -25.42891,-11.38491 -25.42891,-25.4289 0,-14.044 11.38491,-25.42891 25.42891,-25.42891 14.04399,0 25.4289,11.38491 25.4289,25.42891 z"
         sodipodi:ry="25.428902"
         sodipodi:rx="25.428902"
         sodipodi:cy="268.71555"
         sodipodi:cx="408.98151"
         id="path4264"
         style="color:#000000;fill:#f7db3c;fill-opacity:1;fill-rule:nonzero;stroke:#ffffff;stroke-width:3.41497684;stroke-linecap:butt;stroke-linejoin:bevel;stroke-miterlimit:4;stroke-opacity:1;stroke-dasharray:none;stroke-dashoffset:0;marker:none;visibility:visible;display:inline;overflow:visible;enable-background:accumulate"
         sodipodi:type="arc"
         inkscape:export-filename="E:\C U R U B I T O\_producciones\TRANSMEDIA\Venturas emprendedores\ruta05.png"
         inkscape:export-xdpi="90"
         inkscape:export-ydpi="90" />
      <path
         sodipodi:type="arc"
         style="color:#000000;fill:#f7db3c;fill-opacity:1;fill-rule:nonzero;stroke:#ffffff;stroke-width:3.41497684;stroke-linecap:butt;stroke-linejoin:bevel;stroke-miterlimit:4;stroke-opacity:1;stroke-dasharray:none;stroke-dashoffset:0;marker:none;visibility:visible;display:inline;overflow:visible;enable-background:accumulate"
         id="path4266"
         sodipodi:cx="408.98151"
         sodipodi:cy="268.71555"
         sodipodi:rx="25.428902"
         sodipodi:ry="25.428902"
         d="m 434.41041,268.71555 c 0,14.04399 -11.38491,25.4289 -25.4289,25.4289 -14.044,0 -25.42891,-11.38491 -25.42891,-25.4289 0,-14.044 11.38491,-25.42891 25.42891,-25.42891 14.04399,0 25.4289,11.38491 25.4289,25.42891 z"
         transform="matrix(0.58379588,0,0,0.58752103,1008.3913,1054.4861)"
         inkscape:export-filename="E:\C U R U B I T O\_producciones\TRANSMEDIA\Venturas emprendedores\ruta05.png"
         inkscape:export-xdpi="90"
         inkscape:export-ydpi="90" />
      <path
         style="fill:#ca8c00;fill-opacity:0.37647059;stroke:none"
         d="m 846.36157,1219.8263 c 0,0 4.5558,6.8306 13.2342,3.5032 7.1392,-2.7374 8.5634,-10.8988 6.6172,-15.959 -4.6709,-2.3355 -5.4494,5.8387 -7.7849,9.7311 -2.3354,3.8924 -12.0665,2.7247 -12.0665,2.7247 z"
         id="path4268"
         inkscape:connector-curvature="0"
         sodipodi:nodetypes="csccc"
         inkscape:export-filename="E:\C U R U B I T O\_producciones\TRANSMEDIA\Venturas emprendedores\ruta05.png"
         inkscape:export-xdpi="90"
         inkscape:export-ydpi="90" />
      <path
         sodipodi:nodetypes="csccc"
         inkscape:connector-curvature="0"
         id="path4270"
         d="m 1044.0969,1219.8263 c 0,0 4.5558,6.8306 13.2342,3.5032 7.1392,-2.7374 8.5634,-10.8988 6.6172,-15.959 -4.6709,-2.3355 -5.4494,5.8387 -7.7849,9.7311 -2.3354,3.8924 -12.0665,2.7247 -12.0665,2.7247 z"
         style="fill:#ca8c00;fill-opacity:0.37647059;stroke:none"
         inkscape:export-filename="E:\C U R U B I T O\_producciones\TRANSMEDIA\Venturas emprendedores\ruta05.png"
         inkscape:export-xdpi="90"
         inkscape:export-ydpi="90" />
      <path
         style="fill:#e6be25;fill-opacity:1;stroke:none"
         d="m 1238.329,1219.8263 c 0,0 4.5558,6.8306 13.2342,3.5032 7.1392,-2.7374 8.5634,-10.8988 6.6172,-15.959 -4.6709,-2.3355 -5.4494,5.8387 -7.7849,9.7311 -2.3354,3.8924 -12.0665,2.7247 -12.0665,2.7247 z"
         id="path4272"
         inkscape:connector-curvature="0"
         sodipodi:nodetypes="csccc"
         inkscape:export-filename="E:\C U R U B I T O\_producciones\TRANSMEDIA\Venturas emprendedores\ruta05.png"
         inkscape:export-xdpi="90"
         inkscape:export-ydpi="90" />
    </g>
    <g
       transform="translate(-408.7143,-110.99993)"
       id="g4274">
      <path
         style="font-size:medium;font-style:normal;font-variant:normal;font-weight:normal;font-stretch:normal;text-indent:0;text-align:start;text-decoration:none;line-height:normal;letter-spacing:normal;word-spacing:normal;text-transform:none;direction:ltr;block-progression:tb;writing-mode:lr-tb;text-anchor:start;baseline-shift:baseline;color:#000000;fill:#f7db3c;fill-opacity:1;fill-rule:nonzero;stroke:#ffffff;stroke-width:1.99999988;stroke-miterlimit:4;stroke-opacity:1;stroke-dasharray:none;marker:none;visibility:visible;display:inline;overflow:visible;enable-background:accumulate;font-family:Sans;-inkscape-font-specification:Sans"
         d="m 866.68547,1207.4826 0,8.8918 171.75333,0 0,-8.8918 -171.75333,0 z"
         id="path4276"
         inkscape:connector-curvature="0"
         inkscape:export-filename="E:\C U R U B I T O\_producciones\TRANSMEDIA\Venturas emprendedores\ruta05.png"
         inkscape:export-xdpi="90"
         inkscape:export-ydpi="90" />
      <path
         sodipodi:type="arc"
         style="color:#000000;fill:#f7db3c;fill-opacity:1;fill-rule:nonzero;stroke:#ffffff;stroke-width:3.41497684;stroke-linecap:butt;stroke-linejoin:bevel;stroke-miterlimit:4;stroke-opacity:1;stroke-dasharray:none;stroke-dashoffset:0;marker:none;visibility:visible;display:inline;overflow:visible;enable-background:accumulate"
         id="path4278"
         sodipodi:cx="408.98151"
         sodipodi:cy="268.71555"
         sodipodi:rx="25.428902"
         sodipodi:ry="25.428902"
         d="m 434.41041,268.71555 c 0,14.04399 -11.38491,25.4289 -25.4289,25.4289 -14.044,0 -25.42891,-11.38491 -25.42891,-25.4289 0,-14.044 11.38491,-25.42891 25.42891,-25.42891 14.04399,0 25.4289,11.38491 25.4289,25.42891 z"
         transform="matrix(0.58379588,0,0,0.58752103,616.94244,1054.4861)"
         inkscape:export-filename="E:\C U R U B I T O\_producciones\TRANSMEDIA\Venturas emprendedores\ruta05.png"
         inkscape:export-xdpi="90"
         inkscape:export-ydpi="90" />
      <path
         inkscape:connector-curvature="0"
         id="path4280"
         d="m 1065.5873,1207.4826 0,8.8918 171.7532,0 0,-8.8918 -171.7532,0 z"
         style="font-size:medium;font-style:normal;font-variant:normal;font-weight:normal;font-stretch:normal;text-indent:0;text-align:start;text-decoration:none;line-height:normal;letter-spacing:normal;word-spacing:normal;text-transform:none;direction:ltr;block-progression:tb;writing-mode:lr-tb;text-anchor:start;baseline-shift:baseline;color:#000000;fill:#ddcdfe;fill-opacity:1;fill-rule:nonzero;stroke:#ffffff;stroke-width:1.99999988;stroke-miterlimit:4;stroke-opacity:1;stroke-dasharray:none;marker:none;visibility:visible;display:inline;overflow:visible;enable-background:accumulate;font-family:Sans;-inkscape-font-specification:Sans"
         inkscape:export-filename="E:\C U R U B I T O\_producciones\TRANSMEDIA\Venturas emprendedores\ruta05.png"
         inkscape:export-xdpi="90"
         inkscape:export-ydpi="90" />
      <path
         transform="matrix(0.58379588,0,0,0.58752103,813.77127,1054.4861)"
         d="m 434.41041,268.71555 c 0,14.04399 -11.38491,25.4289 -25.4289,25.4289 -14.044,0 -25.42891,-11.38491 -25.42891,-25.4289 0,-14.044 11.38491,-25.42891 25.42891,-25.42891 14.04399,0 25.4289,11.38491 25.4289,25.42891 z"
         sodipodi:ry="25.428902"
         sodipodi:rx="25.428902"
         sodipodi:cy="268.71555"
         sodipodi:cx="408.98151"
         id="path4282"
         style="color:#000000;fill:#f7db3c;fill-opacity:1;fill-rule:nonzero;stroke:#ffffff;stroke-width:3.41497684;stroke-linecap:butt;stroke-linejoin:bevel;stroke-miterlimit:4;stroke-opacity:1;stroke-dasharray:none;stroke-dashoffset:0;marker:none;visibility:visible;display:inline;overflow:visible;enable-background:accumulate"
         sodipodi:type="arc"
         inkscape:export-filename="E:\C U R U B I T O\_producciones\TRANSMEDIA\Venturas emprendedores\ruta05.png"
         inkscape:export-xdpi="90"
         inkscape:export-ydpi="90" />
      <path
         sodipodi:type="arc"
         style="color:#000000;fill:#ddcdfe;fill-opacity:1;fill-rule:nonzero;stroke:#ffffff;stroke-width:3.41497684;stroke-linecap:butt;stroke-linejoin:bevel;stroke-miterlimit:4;stroke-opacity:1;stroke-dasharray:none;stroke-dashoffset:0;marker:none;visibility:visible;display:inline;overflow:visible;enable-background:accumulate"
         id="path4284"
         sodipodi:cx="408.98151"
         sodipodi:cy="268.71555"
         sodipodi:rx="25.428902"
         sodipodi:ry="25.428902"
         d="m 434.41041,268.71555 c 0,14.04399 -11.38491,25.4289 -25.4289,25.4289 -14.044,0 -25.42891,-11.38491 -25.42891,-25.4289 0,-14.044 11.38491,-25.42891 25.42891,-25.42891 14.04399,0 25.4289,11.38491 25.4289,25.42891 z"
         transform="matrix(0.58379588,0,0,0.58752103,1008.3913,1054.4861)"
         inkscape:export-filename="E:\C U R U B I T O\_producciones\TRANSMEDIA\Venturas emprendedores\ruta05.png"
         inkscape:export-xdpi="90"
         inkscape:export-ydpi="90" />
      <path
         style="fill:#ca8c00;fill-opacity:0.37647059;stroke:none"
         d="m 846.36157,1219.8263 c 0,0 4.5558,6.8306 13.2342,3.5032 7.1392,-2.7374 8.5634,-10.8988 6.6172,-15.959 -4.6709,-2.3355 -5.4494,5.8387 -7.7849,9.7311 -2.3354,3.8924 -12.0665,2.7247 -12.0665,2.7247 z"
         id="path4286"
         inkscape:connector-curvature="0"
         sodipodi:nodetypes="csccc"
         inkscape:export-filename="E:\C U R U B I T O\_producciones\TRANSMEDIA\Venturas emprendedores\ruta05.png"
         inkscape:export-xdpi="90"
         inkscape:export-ydpi="90" />
      <path
         sodipodi:nodetypes="csccc"
         inkscape:connector-curvature="0"
         id="path4288"
         d="m 1044.0969,1219.8263 c 0,0 4.5558,6.8306 13.2342,3.5032 7.1392,-2.7374 8.5634,-10.8988 6.6172,-15.959 -4.6709,-2.3355 -5.4494,5.8387 -7.7849,9.7311 -2.3354,3.8924 -12.0665,2.7247 -12.0665,2.7247 z"
         style="fill:#ca8c00;fill-opacity:0.37647059;stroke:none"
         inkscape:export-filename="E:\C U R U B I T O\_producciones\TRANSMEDIA\Venturas emprendedores\ruta05.png"
         inkscape:export-xdpi="90"
         inkscape:export-ydpi="90" />
      <path
         style="fill:#ba98fd;fill-opacity:0.50588301;stroke:none"
         d="m 1238.329,1219.8263 c 0,0 4.5558,6.8306 13.2342,3.5032 7.1392,-2.7374 8.5634,-10.8988 6.6172,-15.959 -4.6709,-2.3355 -5.4494,5.8387 -7.7849,9.7311 -2.3354,3.8924 -12.0665,2.7247 -12.0665,2.7247 z"
         id="path4290"
         inkscape:connector-curvature="0"
         sodipodi:nodetypes="csccc"
         inkscape:export-filename="E:\C U R U B I T O\_producciones\TRANSMEDIA\Venturas emprendedores\ruta05.png"
         inkscape:export-xdpi="90"
         inkscape:export-ydpi="90" />
    </g>
  </g>
</svg>
