<?xml version="1.0" encoding="UTF-8" standalone="no"?>
<!-- Created with Inkscape (http://www.inkscape.org/) -->

<svg
   xmlns:dc="http://purl.org/dc/elements/1.1/"
   xmlns:cc="http://creativecommons.org/ns#"
   xmlns:rdf="http://www.w3.org/1999/02/22-rdf-syntax-ns#"
   xmlns:svg="http://www.w3.org/2000/svg"
   xmlns="http://www.w3.org/2000/svg"
   xmlns:sodipodi="http://sodipodi.sourceforge.net/DTD/sodipodi-0.dtd"
   xmlns:inkscape="http://www.inkscape.org/namespaces/inkscape"
   width="210mm"
   height="297mm"
   id="svg2"
   version="1.1"
   inkscape:version="0.48.5 r10040"
   sodipodi:docname="logo Venturas_.svg">
  <defs
     id="defs4" />
  <sodipodi:namedview
     id="base"
     pagecolor="#ffffff"
     bordercolor="#666666"
     borderopacity="1.0"
     inkscape:pageopacity="0.0"
     inkscape:pageshadow="2"
     inkscape:zoom="2"
     inkscape:cx="281.99794"
     inkscape:cy="674.88688"
     inkscape:document-units="px"
     inkscape:current-layer="layer2"
     showgrid="false"
     inkscape:window-width="1920"
     inkscape:window-height="1060"
     inkscape:window-x="-8"
     inkscape:window-y="-8"
     inkscape:window-maximized="1" />
  <metadata
     id="metadata7">
    <rdf:RDF>
      <cc:Work
         rdf:about="">
        <dc:format>image/svg+xml</dc:format>
        <dc:type
           rdf:resource="http://purl.org/dc/dcmitype/StillImage" />
        <dc:title />
      </cc:Work>
    </rdf:RDF>
  </metadata>
  <g
     inkscape:groupmode="layer"
     id="layer2"
     inkscape:label="Capa">
    <rect
       style="color:#000000;fill:#e54d4c;fill-opacity:1;fill-rule:nonzero;stroke:none;stroke-width:2;marker:none;visibility:visible;display:inline;overflow:visible;enable-background:accumulate"
       id="rect2994"
       width="610"
       height="330"
       x="67.047241"
       y="184.36218" />
    <g
       id="g4335">
      <path
         sodipodi:nodetypes="cssscccssc"
         inkscape:connector-curvature="0"
         id="path3036"
         d="m 389.62137,272.25973 c 0.51666,-0.51943 2.33494,-4.4624 3.29254,-5.44189 0.39756,-0.40664 1.53071,-3.11994 2.60463,-4.51481 0.85556,-1.11125 2.57727,-4.93131 2.9202,-5.37132 0.92403,-1.18562 2.67642,-4.16183 3.68399,-5.05877 1.20404,15.8346 -0.17243,46.55112 -1.85663,61.45662 l -5.32237,-5.048 c -1.41607,-2.00678 -1.71522,-7.99926 -1.86453,-9.80421 -0.11665,-1.41002 -0.81435,-10.4729 -1.10228,-11.63631 -0.98668,-3.98689 -1.89824,-10.40461 -2.35555,-14.58131 z"
         style="fill:#c8c8c8;fill-opacity:1;stroke:#e54d4c;stroke-width:1;stroke-linecap:butt;stroke-linejoin:miter;stroke-opacity:1;stroke-miterlimit:4;stroke-dasharray:none" />
      <path
         sodipodi:nodetypes="cccccccccccccccccccccccccccccccccccccccccccccccc"
         inkscape:connector-curvature="0"
         id="path3030"
         d="m 335.58781,264.61935 c 2.74584,-0.0445 5.07004,-1.2353 7.5719,-1.84681 3.2684,-0.83608 5.87752,-1.50674 9.04935,-2.21617 1.9127,-0.59881 5.90003,-1.14938 5.90003,-1.14938 0,0 4.36271,5.00705 5.55016,7.79788 0.93428,1.78323 2.43836,3.63921 2.95489,5.17106 1.37649,1.99551 2.18702,2.50113 2.8497,4.06133 1.52228,1.4689 2.01828,2.3187 3.59339,3.65564 0.53776,0.69371 2.79493,3.21607 3.1843,4.08529 0.77155,1.483 2.05973,2.10969 3.30025,4.08026 0.94603,1.09727 2.05356,2.9896 3.69361,4.06298 0.78256,1.2075 1.54381,1.88614 2.66625,4.04283 0.82385,0.34654 2.35916,3.09016 3.61092,4.33263 1.60733,1.40586 2.59456,2.93001 3.44803,3.69361 1.42191,1.7072 2.72539,3.26988 3.81738,4.67791 1.1246,1.26321 2.95489,2.94703 2.95489,2.94703 0,0 -0.0143,-0.83135 0.48527,-4.02298 0.0659,-2.77456 0.74155,-6.7744 0.0854,-8.58131 0.57836,-3.70549 0.27253,-5.98728 0.66514,-9.64116 -0.10206,-2.08099 0.66866,-4.31017 -0.0468,-6.18953 -0.0668,-2.97857 -0.23403,-6.25705 -0.073,-9.36172 -0.14426,-2.66742 0.57439,-4.99498 0.36937,-7.68833 -0.003,-3.46817 0.3752,-6.81928 0.37133,-10.28259 -0.0904,-3.21678 0.4833,-4.55611 0.4833,-4.55611 0,0 5.4066,-1.24653 9.10238,-1.72303 3.17234,-0.88825 9.0471,-1.7257 9.0471,-1.7257 0,0 -0.18859,7.78667 -0.79935,11.45286 -1.04226,4.37955 -0.8326,8.73385 -1.10218,13.44221 -0.2497,2.25275 0.0335,6.07705 -0.73872,7.49153 0.21687,4.29314 -1.55125,7.28156 -1.35564,11.57004 -0.53051,4.6713 -0.84231,8.28825 -1.22989,12.92763 -0.51274,2.14967 -0.53052,4.46514 -0.73479,7.13967 -0.76758,2.99509 -1.13648,7.10314 -1.60318,10.34801 -0.15751,3.13456 -0.80301,4.1601 -0.93106,7.30182 -0.50294,2.99811 -1.64458,5.21209 -1.52873,8.24156 0.15644,2.80037 -1.46659,4.33441 -1.47744,7.16642 -0.1327,2.2563 -0.73873,1.66213 -0.73873,1.66213 0,0 -5.69183,-4.92738 -7.75658,-7.38722 -2.37293,-2.92694 -7.084,-6.47897 -8.41131,-8.1682 -3.31754,-3.33025 -8.45763,-5.76087 -11.35838,-9.37017 -3.32835,-3.94731 -6.81263,-7.79873 -9.76984,-12.01713 -3.02249,-3.2888 -2.91999,-6.32251 -6.15882,-8.98379 -2.25465,-3.34358 -5.42181,-6.21875 -8.31062,-9.04935 -3.31305,-2.43127 -5.25848,-5.10785 -7.5719,-8.31062 -1.20191,-1.08558 -3.16742,-4.46834 -3.69017,-4.10693 -1.04789,-2.87336 -3.57256,-5.08949 -5.1745,-8.08198 -1.09611,-2.05779 -4.05381,-4.59645 -4.19264,-6.89212 z"
         style="fill:#ffffff;fill-opacity:1;stroke:#e54d4c;stroke-width:1;stroke-linecap:butt;stroke-linejoin:miter;stroke-opacity:1;stroke-miterlimit:4;stroke-dasharray:none" />
      <path
         sodipodi:nodetypes="ccccccccccccccccccccccccccccccc"
         inkscape:connector-curvature="0"
         id="path3032"
         d="m 329.30867,277.91635 c -1.68085,2.77111 -2.05813,4.29532 -3.35983,7.01858 0.0157,1.89288 -1.06544,2.92937 -2.0767,4.67841 1.58891,1.58589 5.90774,4.86263 8.23328,6.91773 2.35803,2.35058 5.38886,4.21488 7.55614,6.11045 2.61477,1.78062 5.64636,4.50788 8.3085,6.65852 1.84638,1.79725 4.87927,3.7066 6.82453,5.92177 2.67439,2.3937 5.65577,3.99087 8.14725,6.24717 1.86198,2.13214 4.90535,3.26125 6.41568,5.22236 2.26684,1.5518 3.98019,3.25151 6.12129,4.78235 0.98535,0.85696 2.47028,2.00256 3.6936,2.58553 1.26725,1.50623 3.00558,2.23933 4.43234,3.69362 1.68312,0.39073 3.59275,2.48141 5.17105,3.50892 1.14115,0.67555 2.38017,1.67476 3.32425,2.03149 1.15226,1.29515 2.30026,2.35397 3.32425,3.32425 1.32056,1.84373 2.96503,2.48949 4.06297,3.69361 1.59017,0.74957 4.04874,2.55231 4.04874,2.55231 0,0 1.09781,-0.90159 2.13749,-2.91252 1.04511,-0.52502 2.36196,-2.76401 2.36196,-2.76401 0,0 -4.56329,-4.27041 -7.18665,-6.73262 -2.50754,-3.8536 -4.86443,-4.55742 -7.1436,-7.38329 -3.02726,-3.14363 -6.39785,-6.1589 -9.19522,-9.58081 -3.02966,-3.02831 -6.12982,-6.01146 -8.63954,-9.39679 -2.32284,-2.7697 -4.69504,-5.68944 -7.14283,-8.48016 -1.9477,-2.30787 -4.62945,-5.84047 -7.17644,-7.92968 -2.49553,-3.1909 -4.81302,-5.89502 -8.03898,-8.39496 -2.28815,-2.44432 -2.6937,-4.07569 -4.99282,-5.71001 -1.41933,-3.02756 -4.0123,-5.06802 -5.66222,-7.75658 -1.07035,-1.28588 -2.2497,-4.13423 -3.19654,-5.17302 -1.32822,-1.23364 -3.21299,-5.1244 -4.19462,-5.92551 -2.85808,4.18281 -5.45957,11.19097 -6.15733,13.19289 z"
         style="fill:#c8c8c8;fill-opacity:1;stroke:#e54d4c;stroke-width:1;stroke-linecap:butt;stroke-linejoin:miter;stroke-opacity:1;stroke-miterlimit:4;stroke-dasharray:none" />
    </g>
    <g
       style="font-size:60px;font-style:normal;font-variant:normal;font-weight:bold;font-stretch:normal;text-align:center;line-height:100%;letter-spacing:0px;word-spacing:0px;writing-mode:lr-tb;text-anchor:middle;fill:#ffffff;fill-opacity:1;stroke:none;font-family:Miriam Fixed;-inkscape-font-specification:Miriam Fixed Bold"
       id="text2990">
      <path
         d="m 264.4444,395.82047 c -4e-5,1.19509 -0.75077,1.79262 -2.2522,1.7926 l -2.0105,0 -9.79431,22.43408 -4.95117,0 -9.90967,-22.43408 -2.03064,0 c -1.50147,2e-5 -2.2522,-0.60728 -2.2522,-1.8219 0,-1.19382 0.75073,-1.79075 2.2522,-1.79077 l 9.04907,0 c 1.50145,2e-5 2.25218,0.60671 2.2522,1.82007 -2e-5,1.19509 -0.75075,1.79262 -2.2522,1.7926 l -3.349,0 8.62976,18.84887 0.19593,0 8.47046,-18.84887 -3.37647,0 c -1.50271,2e-5 -2.25405,-0.60728 -2.25403,-1.8219 -2e-5,-1.19382 0.75132,-1.79075 2.25403,-1.79077 l 9.07654,0 c 1.50143,2e-5 2.25216,0.60671 2.2522,1.82007 z"
         style="line-height:100%;font-family:Miriam Fixed;-inkscape-font-specification:Miriam Fixed Bold;fill:#ffffff;fill-opacity:1"
         id="path3782" />
      <path
         d="m 297.69452,415.52628 c -3e-5,0.44678 -0.21671,0.89966 -0.65003,1.35864 -1.23416,1.27563 -3.2239,2.31384 -5.96923,3.11462 -2.3218,0.66406 -4.52395,0.9961 -6.60645,0.9961 -4.20534,0 -7.76185,-1.35437 -10.66955,-4.06311 -2.98707,-2.78686 -4.4806,-6.2622 -4.4806,-10.42603 0,-3.84154 1.41724,-7.04893 4.25171,-9.62219 2.73681,-2.49754 6.0443,-3.74631 9.92249,-3.74634 4.23215,3e-5 7.65592,1.36294 10.2713,4.08875 2.61533,2.72585 3.90164,6.37819 3.85895,10.95703 l -24.57459,0 c 0.39794,2.60499 1.63726,4.79401 3.71796,6.56707 2.08067,1.77308 4.64812,2.65961 7.70233,2.65961 4.07224,0 7.43284,-1.03942 10.08179,-3.11829 0.47238,-0.3723 0.92282,-0.55846 1.35132,-0.55847 1.19503,10e-6 1.79257,0.59754 1.7926,1.79261 z m -3.78662,-10.9552 c -0.45779,-2.12889 -1.65591,-3.96452 -3.59436,-5.5069 -1.9385,-1.54234 -4.21206,-2.31352 -6.82068,-2.31354 -2.63307,2e-5 -4.91212,0.76815 -6.83716,2.30438 -1.92506,1.53628 -3.11768,3.37496 -3.57788,5.51606 z"
         style="line-height:100%;font-family:Miriam Fixed;-inkscape-font-specification:Miriam Fixed Bold;fill:#ffffff;fill-opacity:1"
         id="path3784" />
      <path
         d="m 334.93817,418.25455 c -3e-5,1.19507 -0.75137,1.7926 -2.25403,1.7926 l -6.46179,0 c -1.52224,0 -2.28335,-0.59753 -2.28332,-1.7926 -3e-5,-1.19507 0.76108,-1.7926 2.28332,-1.79261 l 1.36597,0 0,-14.20715 c -3e-5,-1.69798 -0.61221,-3.04868 -1.83655,-4.05212 -1.17922,-0.968 -2.64101,-1.45201 -4.38538,-1.45203 -1.79567,2e-5 -3.40089,0.52859 -4.81567,1.58569 -0.83986,0.61892 -2.06422,1.87502 -3.6731,3.76831 l 0,14.3573 2.08374,0 c 1.50268,10e-6 2.25402,0.59754 2.25403,1.79261 -1e-5,1.19507 -0.75135,1.7926 -2.25403,1.7926 l -7.86987,0 c -1.50269,0 -2.25403,-0.59753 -2.25403,-1.7926 0,-1.19507 0.75134,-1.7926 2.25403,-1.79261 l 2.08374,0 0,-18.84887 -1.39526,0 c -1.50147,2e-5 -2.2522,-0.60728 -2.2522,-1.8219 0,-1.19382 0.75073,-1.79075 2.2522,-1.79077 l 5.09765,0 0,3.64746 c 2.34984,-3.00657 5.1892,-4.50986 8.51807,-4.50989 3.78294,3e-5 6.61374,1.43069 8.49243,4.29199 0.93503,1.45754 1.40256,2.93215 1.40259,4.42383 l 0,14.60815 1.39343,0 c 1.50266,10e-6 2.254,0.59754 2.25403,1.79261 z"
         style="line-height:100%;font-family:Miriam Fixed;-inkscape-font-specification:Miriam Fixed Bold;fill:#ffffff;fill-opacity:1"
         id="path3786" />
      <path
         d="m 370.22809,416.44547 c -3e-5,1.18286 -1.76151,2.31994 -5.28443,3.41125 -2.40969,0.75928 -4.74123,1.13892 -6.99462,1.13892 -2.70876,0 -4.9457,-0.59876 -6.71082,-1.79627 -2.10328,-1.43066 -3.15492,-3.46923 -3.15491,-6.11572 l 0,-15.47058 -3.80676,0 c -1.50269,2e-5 -2.25403,-0.60728 -2.25403,-1.8219 0,-1.19382 0.75134,-1.79075 2.25403,-1.79077 l 3.80676,0 0,-6.5387 c -10e-6,-1.46237 0.61706,-2.19357 1.8512,-2.1936 1.25365,3e-5 1.88048,0.73123 1.88049,2.1936 l 0,6.5387 12.45301,0 c 1.50265,2e-5 2.25399,0.60671 2.25402,1.82007 -3e-5,1.19509 -0.75137,1.79262 -2.25402,1.7926 l -12.45301,0 0,15.47058 c -10e-6,1.4856 0.71776,2.66419 2.15332,3.53577 0.8618,0.52734 2.13133,0.79101 3.8086,0.79101 1.42576,0 3.04197,-0.21423 4.84863,-0.6427 1.92624,-0.44433 3.43564,-0.99548 4.5282,-1.65344 0.51388,-0.30761 0.94052,-0.46142 1.2799,-0.46143 1.19626,1e-5 1.79441,0.59754 1.79444,1.79261 z"
         style="line-height:100%;font-family:Miriam Fixed;-inkscape-font-specification:Miriam Fixed Bold;fill:#ffffff;fill-opacity:1"
         id="path3788" />
      <path
         d="m 407.18243,418.25455 c -3e-5,1.19507 -0.75076,1.7926 -2.25219,1.7926 l -5.09766,0 0,-3.53394 c -2.68191,2.98829 -6.02907,4.48243 -10.0415,4.48243 -2.55861,0 -4.27248,-0.64148 -5.1416,-1.92444 -2.17164,-1.92993 -3.25746,-4.08813 -3.25745,-6.47461 l 0,-14.98352 -2.60193,0 c -1.50147,2e-5 -2.2522,-0.60728 -2.2522,-1.8219 0,-1.19382 0.75073,-1.79075 2.2522,-1.79077 l 6.30432,0 0,18.59619 c -1e-5,1.4087 0.42907,2.56317 1.28723,3.46344 0.85814,0.90027 1.95678,1.3504 3.2959,1.3504 3.71946,0 7.10447,-1.67724 10.15503,-5.03174 l 0,-14.76562 -3.80676,0 c -1.50271,2e-5 -2.25405,-0.60728 -2.25403,-1.8219 -2e-5,-1.19382 0.75132,-1.79075 2.25403,-1.79077 l 7.50915,0 0,22.46154 1.39527,0 c 1.50143,10e-6 2.25216,0.59754 2.25219,1.79261 z"
         style="line-height:100%;font-family:Miriam Fixed;-inkscape-font-specification:Miriam Fixed Bold;fill:#ffffff;fill-opacity:1"
         id="path3790" />
      <path
         d="m 443.30548,397.62955 c -3e-5,1.23415 -0.63602,1.85121 -1.90796,1.85119 -0.52493,2e-5 -1.09134,-0.30393 -1.69922,-0.91186 -1.05838,-1.05833 -1.97634,-1.5875 -2.7539,-1.58753 -1.41238,3e-5 -3.35269,0.92898 -5.82093,2.78687 -0.9131,0.6885 -2.59767,2.12465 -5.05371,4.30847 l 0,12.38525 10.04151,0 c 1.52097,10e-6 2.28146,0.59754 2.28149,1.79261 -3e-5,1.19507 -0.76052,1.7926 -2.28149,1.7926 l -18.92945,0 c -1.50147,0 -2.2522,-0.58777 -2.25219,-1.76331 -10e-6,-1.15722 0.75072,-1.73583 2.25219,-1.73584 l 5.18738,0 0,-18.93493 -3.80859,0 c -1.50147,2e-5 -2.25221,-0.60728 -2.2522,-1.8219 -10e-6,-1.19382 0.75073,-1.79075 2.2522,-1.79077 l 7.50915,0 0,6.08825 c 1.61253,-1.9946 3.00719,-3.39414 4.18396,-4.1986 2.40354,-1.66258 4.58616,-2.49387 6.54785,-2.4939 1.12791,3e-5 2.43833,0.42971 3.93128,1.28906 1.71505,0.96682 2.5726,1.94827 2.57263,2.94434 z"
         style="line-height:100%;font-family:Miriam Fixed;-inkscape-font-specification:Miriam Fixed Bold;fill:#ffffff;fill-opacity:1"
         id="path3792" />
      <path
         d="m 479.28387,418.25455 c -3e-5,1.19507 -0.76053,1.7926 -2.28149,1.7926 l -6.30249,0 0,-3.47534 c -2.90774,2.94922 -6.43679,4.42383 -10.58716,4.42383 -2.68189,0 -4.92554,-0.64942 -6.73096,-1.94825 -2.08984,-1.52587 -3.13476,-3.59985 -3.13476,-6.22192 0,-3.18602 1.54723,-5.63536 4.64172,-7.34802 2.406,-1.31346 5.27709,-1.9702 8.61328,-1.97022 2.3181,2e-5 4.71739,0.29665 7.19788,0.8899 l 0,-3.31971 c -2e-5,-1.47581 -0.72878,-2.59458 -2.18628,-3.35632 -1.25734,-0.64695 -2.76491,-0.97044 -4.5227,-0.97046 -1.78713,2e-5 -4.35671,0.53713 -7.70874,1.61133 -0.64821,0.20876 -1.10475,0.31313 -1.36963,0.31311 -1.17677,2e-5 -1.76515,-0.5969 -1.76514,-1.79077 -1e-5,-0.47971 0.15441,-0.87278 0.46326,-1.1792 0.3369,-0.35642 1.51854,-0.80076 3.54492,-1.33301 3.09325,-0.82273 5.40953,-1.2341 6.94885,-1.23413 2.5952,3e-5 4.62034,0.5939 6.07544,1.78162 2.83323,1.54787 4.24985,3.60048 4.24988,6.15783 l 0,15.38452 2.57263,0 c 1.52096,10e-6 2.28146,0.59754 2.28149,1.79261 z m -8.58398,-5.72205 0,-4.64355 c -1.85061,-0.531 -4.16384,-0.7965 -6.9397,-0.79651 -3.33497,10e-6 -5.94605,0.71839 -7.83325,2.15515 -1.31837,1.00099 -1.97755,2.19361 -1.97754,3.57788 -1e-5,1.5503 0.6079,2.71973 1.82373,3.5083 1.10351,0.71778 2.51159,1.07666 4.22425,1.07666 3.73899,0 7.30649,-1.62597 10.70251,-4.87793 z"
         style="line-height:100%;font-family:Miriam Fixed;-inkscape-font-specification:Miriam Fixed Bold;fill:#ffffff;fill-opacity:1"
         id="path3794" />
      <path
         d="m 512.85077,412.53799 c -3e-5,2.9065 -1.45694,5.1294 -4.37073,6.66871 -2.23879,1.19262 -4.8749,1.78894 -7.90832,1.78894 -3.97951,0 -6.886,-0.96741 -8.71949,-2.90223 -1e-5,0.7483 -0.271,1.30372 -0.81298,1.66626 -0.30153,0.19165 -0.6476,0.28748 -1.03821,0.28748 -1.23414,0 -1.8512,-0.73181 -1.8512,-2.19543 l 0,-4.96766 c 0,-1.46361 0.61706,-2.19542 1.8512,-2.19543 1.25365,1e-5 1.88048,0.63599 1.88049,1.90796 -10e-6,1.68335 1.15844,2.99866 3.47534,3.94592 1.36962,0.57862 3.07921,0.86792 5.12879,0.86792 2.07395,0 3.93064,-0.35522 5.57007,-1.06567 2.06174,-0.88623 3.09262,-2.15515 3.09265,-3.80677 -3e-5,-2.61717 -2.86258,-4.22179 -8.58765,-4.81384 -2.45973,-0.25389 -4.21876,-0.52794 -5.2771,-0.82214 -2.14845,-0.5786 -3.71034,-1.53258 -4.68567,-2.86194 -0.80811,-1.10594 -1.21216,-2.29429 -1.21216,-3.56506 0,-2.50364 1.33178,-4.43785 3.99536,-5.80262 2.02392,-1.02292 4.34447,-1.53439 6.96167,-1.53442 3.48387,3e-5 5.97837,0.81362 7.48352,2.4408 -2e-5,-1.05222 0.61704,-1.57835 1.8512,-1.57837 1.25363,2e-5 1.88047,0.74099 1.88049,2.2229 l 0,4.13635 c -2e-5,1.46242 -0.62686,2.19362 -1.88049,2.1936 -1.12673,2e-5 -1.7438,-0.62498 -1.8512,-1.875 -0.0977,-0.9802 -0.6,-1.78647 -1.50695,-2.41882 -1.45388,-1.00584 -3.40823,-1.50877 -5.86304,-1.50879 -2.55006,2e-5 -4.52211,0.50967 -5.91614,1.52893 -0.94972,0.69094 -1.42457,1.45144 -1.42456,2.2815 -10e-6,0.93873 0.55968,1.72792 1.67908,2.36755 0.87279,0.49928 2.53538,0.88686 4.98779,1.16272 3.45091,0.39064 5.82456,0.81117 7.12097,1.2616 3.96482,1.42579 5.94724,3.82081 5.94727,7.18505 z"
         style="line-height:100%;font-family:Miriam Fixed;-inkscape-font-specification:Miriam Fixed Bold;fill:#ffffff;fill-opacity:1"
         id="path3796" />
    </g>
  </g>
</svg>
